<?xml version="1.0" encoding="utf-8" standalone="no"?>
<!DOCTYPE svg PUBLIC "-//W3C//DTD SVG 1.1//EN"
  "http://www.w3.org/Graphics/SVG/1.1/DTD/svg11.dtd">
<svg xmlns:xlink="http://www.w3.org/1999/xlink" width="460.8pt" height="345.6pt" viewBox="0 0 460.8 345.6" xmlns="http://www.w3.org/2000/svg" version="1.1">
 <metadata>
  <rdf:RDF xmlns:dc="http://purl.org/dc/elements/1.1/" xmlns:cc="http://creativecommons.org/ns#" xmlns:rdf="http://www.w3.org/1999/02/22-rdf-syntax-ns#">
   <cc:Work>
    <dc:type rdf:resource="http://purl.org/dc/dcmitype/StillImage"/>
    <dc:date>2023-08-03T23:18:57.563240</dc:date>
    <dc:format>image/svg+xml</dc:format>
    <dc:creator>
     <cc:Agent>
      <dc:title>Matplotlib v3.5.1, https://matplotlib.org/</dc:title>
     </cc:Agent>
    </dc:creator>
   </cc:Work>
  </rdf:RDF>
 </metadata>
 <defs>
  <style type="text/css">*{stroke-linejoin: round; stroke-linecap: butt}</style>
 </defs>
 <g id="figure_1">
  <g id="patch_1">
   <path d="M 0 345.6 
L 460.8 345.6 
L 460.8 0 
L 0 0 
z
" style="fill: #ffffff"/>
  </g>
  <g id="axes_1">
   <g id="patch_2">
    <path d="M 57.6 307.584 
L 414.72 307.584 
L 414.72 41.472 
L 57.6 41.472 
z
" style="fill: #ffffff"/>
   </g>
   <g id="PolyCollection_1">
    <defs>
     <path id="m3157e9c6c7" d="M 73.832727 -50.112 
L 73.832727 -50.112 
L 76.087273 -144.291477 
L 78.341818 -164.212796 
L 80.596364 -173.545241 
L 82.850909 -176.383836 
L 85.105455 -183.960867 
L 87.36 -190.069346 
L 89.614545 -197.927679 
L 91.869091 -201.344168 
L 94.123636 -203.954979 
L 96.378182 -205.450961 
L 98.632727 -208.103983 
L 100.887273 -210.46968 
L 103.141818 -215.282623 
L 105.396364 -216.665733 
L 107.650909 -218.091749 
L 109.905455 -220.2279 
L 112.16 -227.575293 
L 114.414545 -229.314258 
L 116.669091 -239.834463 
L 118.923636 -243.208556 
L 121.178182 -244.477634 
L 123.432727 -245.644497 
L 125.687273 -246.957408 
L 127.941818 -247.756461 
L 130.196364 -249.472814 
L 132.450909 -249.950346 
L 134.705455 -251.624071 
L 136.96 -252.075192 
L 139.214545 -253.169262 
L 141.469091 -254.301558 
L 143.723636 -254.887839 
L 145.978182 -255.687494 
L 148.232727 -256.997116 
L 150.487273 -258.157306 
L 152.741818 -259.42796 
L 154.996364 -260.049965 
L 157.250909 -260.94192 
L 159.505455 -261.711365 
L 161.76 -262.574592 
L 164.014545 -263.41669 
L 166.269091 -263.80132 
L 168.523636 -264.318422 
L 170.778182 -265.03004 
L 173.032727 -265.472728 
L 175.287273 -266.037973 
L 177.541818 -266.879422 
L 179.796364 -267.509212 
L 182.050909 -267.892359 
L 184.305455 -268.880599 
L 186.56 -269.217827 
L 188.814545 -269.686926 
L 191.069091 -270.180119 
L 193.323636 -270.611084 
L 195.578182 -270.887799 
L 197.832727 -271.297959 
L 200.087273 -271.671237 
L 202.341818 -272.189266 
L 204.596364 -272.980812 
L 206.850909 -273.393845 
L 209.105455 -273.918593 
L 211.36 -274.223711 
L 213.614545 -274.518357 
L 215.869091 -274.673812 
L 218.123636 -275.061454 
L 220.378182 -275.522212 
L 222.632727 -275.724234 
L 224.887273 -275.756808 
L 227.141818 -276.208717 
L 229.396364 -276.521804 
L 231.650909 -276.926219 
L 233.905455 -276.954391 
L 236.16 -277.269101 
L 238.414545 -277.773878 
L 240.669091 -278.016814 
L 242.923636 -278.348482 
L 245.178182 -278.62237 
L 247.432727 -278.847699 
L 249.687273 -279.03443 
L 251.941818 -279.415492 
L 254.196364 -280.273205 
L 256.450909 -280.579714 
L 258.705455 -280.695598 
L 260.96 -280.936171 
L 263.214545 -281.253383 
L 265.469091 -281.469908 
L 267.723636 -281.700009 
L 269.978182 -281.856298 
L 272.232727 -282.051602 
L 274.487273 -282.290368 
L 276.741818 -282.598359 
L 278.996364 -282.808814 
L 281.250909 -283.168005 
L 283.505455 -283.292647 
L 285.76 -283.529467 
L 288.014545 -283.703688 
L 290.269091 -283.886156 
L 292.523636 -284.203739 
L 294.778182 -284.364569 
L 297.032727 -284.43523 
L 299.287273 -284.691233 
L 301.541818 -284.899417 
L 303.796364 -285.040138 
L 306.050909 -285.1936 
L 308.305455 -285.26491 
L 310.56 -285.453542 
L 312.814545 -285.696478 
L 315.069091 -285.8043 
L 317.323636 -286.026478 
L 319.578182 -286.258386 
L 321.832727 -286.331503 
L 324.087273 -286.509755 
L 326.341818 -286.768677 
L 328.596364 -286.887574 
L 330.850909 -286.980244 
L 333.105455 -287.068235 
L 335.36 -287.252789 
L 337.614545 -287.441698 
L 339.869091 -287.55332 
L 342.123636 -287.78824 
L 344.378182 -287.831332 
L 346.632727 -288.04466 
L 348.887273 -288.19789 
L 351.141818 -288.248952 
L 353.396364 -288.405797 
L 355.650909 -288.59137 
L 357.905455 -288.728523 
L 360.16 -288.824668 
L 362.414545 -288.952044 
L 364.669091 -289.107129 
L 366.923636 -289.220836 
L 369.178182 -289.34381 
L 371.432727 -289.439353 
L 373.687273 -289.58897 
L 375.941818 -289.749753 
L 378.196364 -289.958123 
L 380.450909 -289.975221 
L 382.705455 -290.034623 
L 384.96 -290.202728 
L 387.214545 -290.337378 
L 389.469091 -290.455811 
L 391.723636 -290.551818 
L 393.978182 -290.631237 
L 396.232727 -290.787943 
L 398.487273 -290.871671 
L 398.487273 -292.032 
L 398.487273 -292.032 
L 396.232727 -291.963748 
L 393.978182 -291.886507 
L 391.723636 -291.736381 
L 389.469091 -291.663402 
L 387.214545 -291.444561 
L 384.96 -291.3505 
L 382.705455 -291.220159 
L 380.450909 -291.071422 
L 378.196364 -291.085601 
L 375.941818 -290.886359 
L 373.687273 -290.769409 
L 371.432727 -290.593751 
L 369.178182 -290.479396 
L 366.923636 -290.405584 
L 364.669091 -290.278949 
L 362.414545 -290.155048 
L 360.16 -290.018823 
L 357.905455 -289.957706 
L 355.650909 -289.727559 
L 353.396364 -289.642255 
L 351.141818 -289.521645 
L 348.887273 -289.371286 
L 346.632727 -289.227647 
L 344.378182 -289.119917 
L 342.123636 -288.992449 
L 339.869091 -288.79367 
L 337.614545 -288.737651 
L 335.36 -288.525157 
L 333.105455 -288.375262 
L 330.850909 -288.301543 
L 328.596364 -288.208455 
L 326.341818 -288.044243 
L 324.087273 -287.814002 
L 321.832727 -287.664617 
L 319.578182 -287.537658 
L 317.323636 -287.422098 
L 315.069091 -287.049933 
L 312.814545 -286.982654 
L 310.56 -286.775952 
L 308.305455 -286.609191 
L 306.050909 -286.539827 
L 303.796364 -286.381314 
L 301.541818 -286.190737 
L 299.287273 -286.003542 
L 297.032727 -285.863424 
L 294.778182 -285.611452 
L 292.523636 -285.593011 
L 290.269091 -285.329085 
L 288.014545 -285.077345 
L 285.76 -284.934586 
L 283.505455 -284.759994 
L 281.250909 -284.553061 
L 278.996364 -284.278478 
L 276.741818 -284.148878 
L 274.487273 -283.759893 
L 272.232727 -283.566489 
L 269.978182 -283.36595 
L 267.723636 -283.266699 
L 265.469091 -283.014913 
L 263.214545 -282.812706 
L 260.96 -282.592845 
L 258.705455 -282.393325 
L 256.450909 -282.183565 
L 254.196364 -281.868994 
L 251.941818 -281.527271 
L 249.687273 -281.29022 
L 247.432727 -280.995944 
L 245.178182 -280.810093 
L 242.923636 -280.648568 
L 240.669091 -280.364857 
L 238.414545 -280.023319 
L 236.16 -279.671819 
L 233.905455 -279.403306 
L 231.650909 -279.244885 
L 229.396364 -278.922206 
L 227.141818 -278.688305 
L 224.887273 -278.385643 
L 222.632727 -278.192517 
L 220.378182 -278.039981 
L 218.123636 -277.459956 
L 215.869091 -277.323962 
L 213.614545 -277.046876 
L 211.36 -276.770718 
L 209.105455 -276.413936 
L 206.850909 -276.023051 
L 204.596364 -275.739201 
L 202.341818 -275.10904 
L 200.087273 -274.661163 
L 197.832727 -274.134191 
L 195.578182 -273.735151 
L 193.323636 -273.520897 
L 191.069091 -273.087708 
L 188.814545 -272.584923 
L 186.56 -272.060036 
L 184.305455 -271.832762 
L 182.050909 -271.041169 
L 179.796364 -270.381307 
L 177.541818 -269.920364 
L 175.287273 -269.215233 
L 173.032727 -268.686732 
L 170.778182 -268.218884 
L 168.523636 -267.772489 
L 166.269091 -267.157481 
L 164.014545 -266.699827 
L 161.76 -266.118318 
L 159.505455 -265.36472 
L 157.250909 -264.456409 
L 154.996364 -263.64429 
L 152.741818 -263.149521 
L 150.487273 -262.329988 
L 148.232727 -260.627304 
L 145.978182 -259.726267 
L 143.723636 -258.988701 
L 141.469091 -258.274627 
L 139.214545 -257.395136 
L 136.96 -256.489837 
L 134.705455 -255.94206 
L 132.450909 -254.893029 
L 130.196364 -254.112881 
L 127.941818 -252.500782 
L 125.687273 -251.586817 
L 123.432727 -250.712377 
L 121.178182 -249.16992 
L 118.923636 -247.812851 
L 116.669091 -245.069105 
L 114.414545 -241.420753 
L 112.16 -240.716039 
L 109.905455 -235.586579 
L 107.650909 -233.750125 
L 105.396364 -231.600166 
L 103.141818 -229.966243 
L 100.887273 -226.838979 
L 98.632727 -223.904006 
L 96.378182 -220.870293 
L 94.123636 -219.445436 
L 91.869091 -216.574823 
L 89.614545 -212.60648 
L 87.36 -205.806307 
L 85.105455 -199.740873 
L 82.850909 -193.117562 
L 80.596364 -189.892948 
L 78.341818 -178.883951 
L 76.087273 -156.321796 
L 73.832727 -50.112 
z
" style="stroke: #1f77b4; stroke-opacity: 0.2"/>
    </defs>
    <g clip-path="url(#p38ffa5e963)">
     <use xlink:href="#m3157e9c6c7" x="0" y="345.6" style="fill: #1f77b4; fill-opacity: 0.2; stroke: #1f77b4; stroke-opacity: 0.2"/>
    </g>
   </g>
   <g id="PolyCollection_2">
    <defs>
     <path id="m651f2cab78" d="M 73.832727 -50.112 
L 73.832727 -50.112 
L 76.087273 -222.933466 
L 78.341818 -235.970051 
L 80.596364 -243.266985 
L 82.850909 -247.77986 
L 85.105455 -251.90769 
L 87.36 -254.289974 
L 89.614545 -255.404154 
L 91.869091 -256.660536 
L 94.123636 -257.73723 
L 96.378182 -258.6094 
L 98.632727 -259.913971 
L 100.887273 -260.912683 
L 103.141818 -261.568003 
L 105.396364 -262.142052 
L 107.650909 -262.82281 
L 109.905455 -263.298211 
L 112.16 -263.81295 
L 114.414545 -264.541666 
L 116.669091 -264.824821 
L 118.923636 -265.336131 
L 121.178182 -265.597972 
L 123.432727 -266.082825 
L 125.687273 -266.222295 
L 127.941818 -266.556511 
L 130.196364 -266.856116 
L 132.450909 -267.109894 
L 134.705455 -267.443462 
L 136.96 -268.044987 
L 139.214545 -268.403716 
L 141.469091 -268.676306 
L 143.723636 -268.996762 
L 145.978182 -269.149575 
L 148.232727 -269.376063 
L 150.487273 -269.637162 
L 152.741818 -269.830983 
L 154.996364 -270.090553 
L 157.250909 -270.285996 
L 159.505455 -270.480326 
L 161.76 -270.805971 
L 164.014545 -271.10488 
L 166.269091 -271.301573 
L 168.523636 -271.432563 
L 170.778182 -271.620314 
L 173.032727 -271.88146 
L 175.287273 -272.15507 
L 177.541818 -272.312935 
L 179.796364 -272.401435 
L 182.050909 -272.592198 
L 184.305455 -272.73074 
L 186.56 -272.869051 
L 188.814545 -273.083677 
L 191.069091 -273.262207 
L 193.323636 -273.410665 
L 195.578182 -273.504262 
L 197.832727 -273.703504 
L 200.087273 -273.81545 
L 202.341818 -274.003618 
L 204.596364 -274.109077 
L 206.850909 -274.290851 
L 209.105455 -274.453859 
L 211.36 -274.732473 
L 213.614545 -274.879495 
L 215.869091 -275.102692 
L 218.123636 -275.276403 
L 220.378182 -275.394141 
L 222.632727 -275.568362 
L 224.887273 -275.704496 
L 227.141818 -275.847486 
L 229.396364 -276.02546 
L 231.650909 -276.204407 
L 233.905455 -276.334563 
L 236.16 -276.427234 
L 238.414545 -276.519302 
L 240.669091 -276.701724 
L 242.923636 -276.994981 
L 245.178182 -277.100394 
L 247.432727 -277.184214 
L 249.687273 -277.324471 
L 251.941818 -277.381093 
L 254.196364 -277.574821 
L 256.450909 -277.690474 
L 258.705455 -277.760255 
L 260.96 -277.822437 
L 263.214545 -277.962926 
L 265.469091 -278.089421 
L 267.723636 -278.210866 
L 269.978182 -278.315352 
L 272.232727 -278.427901 
L 274.487273 -278.562088 
L 276.741818 -278.642804 
L 278.996364 -278.7832 
L 281.250909 -278.859144 
L 283.505455 -278.92494 
L 285.76 -278.988327 
L 288.014545 -279.081414 
L 290.269091 -279.126082 
L 292.523636 -279.211339 
L 294.778182 -279.297893 
L 297.032727 -279.383382 
L 299.287273 -279.46331 
L 301.541818 -279.61858 
L 303.796364 -279.648605 
L 306.050909 -279.778761 
L 308.305455 -279.832556 
L 310.56 -279.98259 
L 312.814545 -280.023226 
L 315.069091 -280.071461 
L 317.323636 -280.238964 
L 319.578182 -280.350724 
L 321.832727 -280.370417 
L 324.087273 -280.489128 
L 326.341818 -280.49997 
L 328.596364 -280.588517 
L 330.850909 -280.654406 
L 333.105455 -280.69115 
L 335.36 -280.77409 
L 337.614545 -280.810371 
L 339.869091 -280.916154 
L 342.123636 -281.008593 
L 344.378182 -281.077077 
L 346.632727 -281.085556 
L 348.887273 -281.191572 
L 351.141818 -281.260519 
L 353.396364 -281.328029 
L 355.650909 -281.346054 
L 357.905455 -281.442709 
L 360.16 -281.509664 
L 362.414545 -281.628514 
L 364.669091 -281.632406 
L 366.923636 -281.624066 
L 369.178182 -281.722389 
L 371.432727 -281.784154 
L 373.687273 -281.85185 
L 375.941818 -281.91848 
L 378.196364 -281.963194 
L 380.450909 -281.969171 
L 382.705455 -282.075418 
L 384.96 -282.023847 
L 387.214545 -282.11434 
L 389.469091 -282.203767 
L 391.723636 -282.263864 
L 393.978182 -282.321551 
L 396.232727 -282.392815 
L 398.487273 -282.425203 
L 398.487273 -283.248026 
L 398.487273 -283.248026 
L 396.232727 -283.174353 
L 393.978182 -283.135292 
L 391.723636 -283.048738 
L 389.469091 -282.988224 
L 387.214545 -282.924328 
L 384.96 -282.853296 
L 382.705455 -282.835317 
L 380.450909 -282.755528 
L 378.196364 -282.718182 
L 375.941818 -282.683894 
L 373.687273 -282.631025 
L 371.432727 -282.586728 
L 369.178182 -282.514075 
L 366.923636 -282.426176 
L 364.669091 -282.355839 
L 362.414545 -282.327529 
L 360.16 -282.274845 
L 357.905455 -282.205713 
L 355.650909 -282.12926 
L 353.396364 -282.067587 
L 351.141818 -282.000494 
L 348.887273 -281.909445 
L 346.632727 -281.843602 
L 344.378182 -281.81594 
L 342.123636 -281.748939 
L 339.869091 -281.666323 
L 337.614545 -281.576248 
L 335.36 -281.544925 
L 333.105455 -281.472503 
L 330.850909 -281.41551 
L 328.596364 -281.378905 
L 326.341818 -281.308707 
L 324.087273 -281.232254 
L 321.832727 -281.170257 
L 319.578182 -281.115443 
L 317.323636 -281.003543 
L 315.069091 -280.839886 
L 312.814545 -280.763016 
L 310.56 -280.73211 
L 308.305455 -280.600889 
L 306.050909 -280.52944 
L 303.796364 -280.41337 
L 301.541818 -280.349751 
L 299.287273 -280.257266 
L 297.032727 -280.119094 
L 294.778182 -280.042641 
L 292.523636 -279.999642 
L 290.269091 -279.954094 
L 288.014545 -279.83529 
L 285.76 -279.759393 
L 283.505455 -279.718201 
L 281.250909 -279.693272 
L 278.996364 -279.577619 
L 276.741818 -279.506865 
L 274.487273 -279.438891 
L 272.232727 -279.264393 
L 269.978182 -279.146469 
L 267.723636 -279.069321 
L 265.469091 -278.922206 
L 263.214545 -278.841536 
L 260.96 -278.688722 
L 258.705455 -278.559957 
L 256.450909 -278.522703 
L 254.196364 -278.447501 
L 251.941818 -278.259101 
L 249.687273 -278.126165 
L 247.432727 -278.036877 
L 245.178182 -277.888419 
L 242.923636 -277.826329 
L 240.669091 -277.550124 
L 238.414545 -277.348288 
L 236.16 -277.298987 
L 233.905455 -277.182917 
L 231.650909 -277.065874 
L 229.396364 -276.853612 
L 227.141818 -276.757049 
L 224.887273 -276.609934 
L 222.632727 -276.493725 
L 220.378182 -276.302916 
L 218.123636 -276.143059 
L 215.869091 -275.982507 
L 213.614545 -275.806665 
L 211.36 -275.588101 
L 209.105455 -275.318615 
L 206.850909 -275.16872 
L 204.596364 -274.973046 
L 202.341818 -274.806934 
L 200.087273 -274.673442 
L 197.832727 -274.523825 
L 195.578182 -274.370084 
L 193.323636 -274.230152 
L 191.069091 -274.089617 
L 188.814545 -273.881247 
L 186.56 -273.679132 
L 184.305455 -273.555741 
L 182.050909 -273.415345 
L 179.796364 -273.269064 
L 177.541818 -273.094751 
L 175.287273 -272.963622 
L 173.032727 -272.734447 
L 170.778182 -272.509072 
L 168.523636 -272.352042 
L 166.269091 -272.119392 
L 164.014545 -271.974501 
L 161.76 -271.652656 
L 159.505455 -271.4675 
L 157.250909 -271.132125 
L 154.996364 -270.987559 
L 152.741818 -270.751156 
L 150.487273 -270.538755 
L 148.232727 -270.294753 
L 145.978182 -270.194113 
L 143.723636 -269.934079 
L 141.469091 -269.651711 
L 139.214545 -269.425039 
L 136.96 -269.09819 
L 134.705455 -268.613337 
L 132.450909 -268.26508 
L 130.196364 -268.070148 
L 127.941818 -267.710261 
L 125.687273 -267.447076 
L 123.432727 -267.232776 
L 121.178182 -266.851992 
L 118.923636 -266.507813 
L 116.669091 -266.107985 
L 114.414545 -265.70927 
L 112.16 -264.859851 
L 109.905455 -264.409564 
L 107.650909 -263.871935 
L 105.396364 -263.301593 
L 103.141818 -262.668236 
L 100.887273 -262.095068 
L 98.632727 -261.251811 
L 96.378182 -260.032173 
L 94.123636 -259.008811 
L 91.869091 -257.994437 
L 89.614545 -256.719614 
L 87.36 -255.455539 
L 85.105455 -253.000138 
L 82.850909 -249.294284 
L 80.596364 -244.930608 
L 78.341818 -238.18752 
L 76.087273 -225.999522 
L 73.832727 -50.112 
z
" style="stroke: #ff7f0e; stroke-opacity: 0.2"/>
    </defs>
    <g clip-path="url(#p38ffa5e963)">
     <use xlink:href="#m651f2cab78" x="0" y="345.6" style="fill: #ff7f0e; fill-opacity: 0.2; stroke: #ff7f0e; stroke-opacity: 0.2"/>
    </g>
   </g>
   <g id="PolyCollection_3">
    <defs>
     <path id="m114d3b8a37" d="M 73.832727 -50.112 
L 73.832727 -50.112 
L 76.087273 -170.117909 
L 78.341818 -175.767391 
L 80.596364 -178.475783 
L 82.850909 -181.029833 
L 85.105455 -182.834501 
L 87.36 -184.141158 
L 89.614545 -185.306167 
L 91.869091 -186.356218 
L 94.123636 -186.997638 
L 96.378182 -187.695958 
L 98.632727 -188.349008 
L 100.887273 -188.89975 
L 103.141818 -189.380525 
L 105.396364 -189.805235 
L 107.650909 -190.313719 
L 109.905455 -190.70465 
L 112.16 -191.148542 
L 114.414545 -191.500923 
L 116.669091 -192.097444 
L 118.923636 -192.501071 
L 121.178182 -192.878009 
L 123.432727 -193.197769 
L 125.687273 -193.495705 
L 127.941818 -193.81982 
L 130.196364 -194.121185 
L 132.450909 -194.510495 
L 134.705455 -194.760196 
L 136.96 -195.032323 
L 139.214545 -195.277252 
L 141.469091 -195.491182 
L 143.723636 -195.764375 
L 145.978182 -195.930395 
L 148.232727 -196.209148 
L 150.487273 -196.435218 
L 152.741818 -196.67176 
L 154.996364 -196.905105 
L 157.250909 -197.093736 
L 159.505455 -197.304932 
L 161.76 -197.497919 
L 164.014545 -197.742338 
L 166.269091 -197.87342 
L 168.523636 -198.0665 
L 170.778182 -198.232519 
L 173.032727 -198.37829 
L 175.287273 -198.522671 
L 177.541818 -198.65241 
L 179.796364 -198.78947 
L 182.050909 -198.957713 
L 184.305455 -199.132444 
L 186.56 -199.318202 
L 188.814545 -199.415924 
L 191.069091 -199.588615 
L 193.323636 -199.715528 
L 195.578182 -199.888081 
L 197.832727 -200.099833 
L 200.087273 -200.236986 
L 202.341818 -200.361025 
L 204.596364 -200.524821 
L 206.850909 -200.649926 
L 209.105455 -200.765394 
L 211.36 -200.947121 
L 213.614545 -201.169438 
L 215.869091 -201.350702 
L 218.123636 -201.483082 
L 220.378182 -201.698402 
L 222.632727 -201.82448 
L 224.887273 -201.946852 
L 227.141818 -202.148503 
L 229.396364 -202.220323 
L 231.650909 -202.472434 
L 233.905455 -202.667413 
L 236.16 -202.774308 
L 238.414545 -203.052089 
L 240.669091 -203.279363 
L 242.923636 -203.412207 
L 245.178182 -203.533513 
L 247.432727 -203.717325 
L 249.687273 -203.897384 
L 251.941818 -204.124288 
L 254.196364 -204.209499 
L 256.450909 -204.495388 
L 258.705455 -204.724609 
L 260.96 -204.933118 
L 263.214545 -205.191252 
L 265.469091 -205.561378 
L 267.723636 -205.71637 
L 269.978182 -205.855469 
L 272.232727 -206.120646 
L 274.487273 -206.291113 
L 276.741818 -206.546236 
L 278.996364 -206.763502 
L 281.250909 -206.928363 
L 283.505455 -207.075617 
L 285.76 -207.196135 
L 288.014545 -207.312483 
L 290.269091 -207.396535 
L 292.523636 -207.55389 
L 294.778182 -207.65921 
L 297.032727 -207.721578 
L 299.287273 -207.953903 
L 301.541818 -208.123166 
L 303.796364 -208.182985 
L 306.050909 -208.35424 
L 308.305455 -208.529851 
L 310.56 -208.657227 
L 312.814545 -208.742669 
L 315.069091 -208.864161 
L 317.323636 -208.933386 
L 319.578182 -209.055989 
L 321.832727 -209.161448 
L 324.087273 -209.274228 
L 326.341818 -209.384414 
L 328.596364 -209.425235 
L 330.850909 -209.477409 
L 333.105455 -209.612384 
L 335.36 -209.698058 
L 337.614545 -209.816444 
L 339.869091 -209.833588 
L 342.123636 -209.943264 
L 344.378182 -210.008041 
L 346.632727 -210.116234 
L 348.887273 -210.194309 
L 351.141818 -210.252043 
L 353.396364 -210.320526 
L 355.650909 -210.334195 
L 357.905455 -210.393319 
L 360.16 -210.472923 
L 362.414545 -210.516664 
L 364.669091 -210.59182 
L 366.923636 -210.613227 
L 369.178182 -210.735876 
L 371.432727 -210.823821 
L 373.687273 -210.844672 
L 375.941818 -210.942903 
L 378.196364 -211.006938 
L 380.450909 -211.016344 
L 382.705455 -211.03372 
L 384.96 -211.109849 
L 387.214545 -211.11754 
L 389.469091 -211.171706 
L 391.723636 -211.228282 
L 393.978182 -211.280085 
L 396.232727 -211.294449 
L 398.487273 -211.336892 
L 398.487273 -212.078396 
L 398.487273 -212.078396 
L 396.232727 -212.018253 
L 393.978182 -212.030856 
L 391.723636 -211.954959 
L 389.469091 -211.874984 
L 387.214545 -211.840742 
L 384.96 -211.818223 
L 382.705455 -211.760536 
L 380.450909 -211.776336 
L 378.196364 -211.716147 
L 375.941818 -211.672452 
L 373.687273 -211.587427 
L 371.432727 -211.554066 
L 369.178182 -211.485999 
L 366.923636 -211.421222 
L 364.669091 -211.416218 
L 362.414545 -211.334251 
L 360.16 -211.273134 
L 357.905455 -211.210396 
L 355.650909 -211.155304 
L 353.396364 -211.118235 
L 351.141818 -211.065691 
L 348.887273 -211.040624 
L 346.632727 -210.935072 
L 344.378182 -210.884149 
L 342.123636 -210.747367 
L 339.869091 -210.722995 
L 337.614545 -210.614014 
L 335.36 -210.588345 
L 333.105455 -210.439655 
L 330.850909 -210.416719 
L 328.596364 -210.336558 
L 326.341818 -210.244814 
L 324.087273 -210.16521 
L 321.832727 -210.070686 
L 319.578182 -209.900497 
L 317.323636 -209.80449 
L 315.069091 -209.728546 
L 312.814545 -209.626052 
L 310.56 -209.536347 
L 308.305455 -209.350774 
L 306.050909 -209.146111 
L 303.796364 -209.048019 
L 301.541818 -208.95558 
L 299.287273 -208.770934 
L 297.032727 -208.590782 
L 294.778182 -208.555984 
L 292.523636 -208.422678 
L 290.269091 -208.274683 
L 288.014545 -208.184375 
L 285.76 -208.056165 
L 283.505455 -207.952791 
L 281.250909 -207.894501 
L 278.996364 -207.650407 
L 276.741818 -207.442871 
L 274.487273 -207.221851 
L 272.232727 -207.027428 
L 269.978182 -206.787597 
L 267.723636 -206.699606 
L 265.469091 -206.471543 
L 263.214545 -206.124909 
L 260.96 -205.867145 
L 258.705455 -205.651269 
L 256.450909 -205.443455 
L 254.196364 -205.204689 
L 251.941818 -205.088017 
L 249.687273 -204.789107 
L 247.432727 -204.636386 
L 245.178182 -204.464297 
L 242.923636 -204.247818 
L 240.669091 -204.176091 
L 238.414545 -203.868146 
L 236.16 -203.678913 
L 233.905455 -203.501958 
L 231.650909 -203.343955 
L 229.396364 -203.141794 
L 227.141818 -202.975357 
L 224.887273 -202.830328 
L 222.632727 -202.652076 
L 220.378182 -202.468912 
L 218.123636 -202.163053 
L 215.869091 -202.011165 
L 213.614545 -201.89023 
L 211.36 -201.603322 
L 209.105455 -201.471776 
L 206.850909 -201.344354 
L 204.596364 -201.202938 
L 202.341818 -201.032563 
L 200.087273 -200.928262 
L 197.832727 -200.715583 
L 195.578182 -200.566198 
L 193.323636 -200.443548 
L 191.069091 -200.292634 
L 188.814545 -200.159791 
L 186.56 -199.999841 
L 184.305455 -199.82006 
L 182.050909 -199.632356 
L 179.796364 -199.490616 
L 177.541818 -199.335115 
L 175.287273 -199.181837 
L 173.032727 -199.052099 
L 170.778182 -198.911471 
L 168.523636 -198.721867 
L 166.269091 -198.539074 
L 164.014545 -198.373471 
L 161.76 -198.131416 
L 159.505455 -197.926613 
L 157.250909 -197.719911 
L 154.996364 -197.478551 
L 152.741818 -197.289086 
L 150.487273 -197.021731 
L 148.232727 -196.807615 
L 145.978182 -196.562965 
L 143.723636 -196.341899 
L 141.469091 -196.10494 
L 139.214545 -195.872059 
L 136.96 -195.613739 
L 134.705455 -195.320622 
L 132.450909 -195.064804 
L 130.196364 -194.590053 
L 127.941818 -194.352352 
L 125.687273 -194.023418 
L 123.432727 -193.750503 
L 121.178182 -193.415823 
L 118.923636 -193.022065 
L 116.669091 -192.649251 
L 114.414545 -192.276113 
L 112.16 -191.876887 
L 109.905455 -191.476921 
L 107.650909 -191.123846 
L 105.396364 -190.532838 
L 103.141818 -190.177864 
L 100.887273 -189.636899 
L 98.632727 -189.113217 
L 96.378182 -188.488014 
L 94.123636 -187.816291 
L 91.869091 -187.194841 
L 89.614545 -186.218417 
L 87.36 -185.235784 
L 85.105455 -184.083748 
L 82.850909 -182.37782 
L 80.596364 -179.91621 
L 78.341818 -176.900614 
L 76.087273 -170.715774 
L 73.832727 -50.112 
z
" style="stroke: #2ca02c; stroke-opacity: 0.2"/>
    </defs>
    <g clip-path="url(#p38ffa5e963)">
     <use xlink:href="#m114d3b8a37" x="0" y="345.6" style="fill: #2ca02c; fill-opacity: 0.2; stroke: #2ca02c; stroke-opacity: 0.2"/>
    </g>
   </g>
   <g id="PolyCollection_4">
    <defs>
     <path id="med8c288712" d="M 73.832727 -50.112 
L 73.832727 -50.112 
L 76.087273 -161.365629 
L 78.341818 -169.543768 
L 80.596364 -173.446222 
L 82.850909 -176.59809 
L 85.105455 -178.611778 
L 87.36 -180.395595 
L 89.614545 -181.805162 
L 91.869091 -183.740264 
L 94.123636 -184.759642 
L 96.378182 -185.583716 
L 98.632727 -187.941396 
L 100.887273 -189.127303 
L 103.141818 -189.885488 
L 105.396364 -190.717948 
L 107.650909 -192.029006 
L 109.905455 -193.197259 
L 112.16 -194.61322 
L 114.414545 -195.405045 
L 116.669091 -196.106191 
L 118.923636 -196.671945 
L 121.178182 -197.236356 
L 123.432727 -197.847009 
L 125.687273 -199.007478 
L 127.941818 -199.674706 
L 130.196364 -200.180317 
L 132.450909 -200.738149 
L 134.705455 -201.788987 
L 136.96 -202.363592 
L 139.214545 -202.849047 
L 141.469091 -203.356836 
L 143.723636 -203.719503 
L 145.978182 -204.456605 
L 148.232727 -204.867924 
L 150.487273 -205.542196 
L 152.741818 -205.95736 
L 154.996364 -206.415292 
L 157.250909 -206.86127 
L 159.505455 -207.375082 
L 161.76 -207.770276 
L 164.014545 -208.48106 
L 166.269091 -208.825795 
L 168.523636 -209.198238 
L 170.778182 -209.444742 
L 173.032727 -209.902489 
L 175.287273 -210.297729 
L 177.541818 -211.053273 
L 179.796364 -211.342313 
L 182.050909 -211.629963 
L 184.305455 -211.95899 
L 186.56 -212.204243 
L 188.814545 -212.643363 
L 191.069091 -213.327504 
L 193.323636 -213.649813 
L 195.578182 -214.121135 
L 197.832727 -214.332981 
L 200.087273 -214.602421 
L 202.341818 -214.842391 
L 204.596364 -215.033385 
L 206.850909 -215.546781 
L 209.105455 -215.786659 
L 211.36 -216.254414 
L 213.614545 -217.233526 
L 215.869091 -217.532759 
L 218.123636 -217.729268 
L 220.378182 -218.084845 
L 222.632727 -218.86592 
L 224.887273 -218.989959 
L 227.141818 -219.2379 
L 229.396364 -219.713161 
L 231.650909 -219.722706 
L 233.905455 -220.721696 
L 236.16 -220.814413 
L 238.414545 -221.301722 
L 240.669091 -221.273133 
L 242.923636 -221.617265 
L 245.178182 -221.796444 
L 247.432727 -222.028769 
L 249.687273 -222.101191 
L 251.941818 -222.300665 
L 254.196364 -222.51529 
L 256.450909 -222.985547 
L 258.705455 -223.128029 
L 260.96 -223.315038 
L 263.214545 -223.389221 
L 265.469091 -223.602502 
L 267.723636 -223.744427 
L 269.978182 -223.900207 
L 272.232727 -224.104546 
L 274.487273 -224.163623 
L 276.741818 -224.477545 
L 278.996364 -224.699306 
L 281.250909 -224.76399 
L 283.505455 -224.785212 
L 285.76 -225.053771 
L 288.014545 -225.353746 
L 290.269091 -226.07945 
L 292.523636 -226.159842 
L 294.778182 -226.613928 
L 297.032727 -226.668604 
L 299.287273 -226.843242 
L 301.541818 -227.189737 
L 303.796364 -227.26809 
L 306.050909 -227.980311 
L 308.305455 -228.345155 
L 310.56 -228.496996 
L 312.814545 -228.59518 
L 315.069091 -228.790345 
L 317.323636 -228.966326 
L 319.578182 -229.110661 
L 321.832727 -229.28377 
L 324.087273 -229.399654 
L 326.341818 -229.503168 
L 328.596364 -229.717607 
L 330.850909 -229.84781 
L 333.105455 -229.930379 
L 335.36 -230.046542 
L 337.614545 -230.081618 
L 339.869091 -230.143244 
L 342.123636 -230.380295 
L 344.378182 -230.459807 
L 346.632727 -230.614845 
L 348.887273 -230.825763 
L 351.141818 -230.852823 
L 353.396364 -231.074723 
L 355.650909 -231.072128 
L 357.905455 -231.360149 
L 360.16 -231.458611 
L 362.414545 -231.556147 
L 364.669091 -231.700111 
L 366.923636 -231.798156 
L 369.178182 -231.876556 
L 371.432727 -232.050174 
L 373.687273 -232.09081 
L 375.941818 -232.178709 
L 378.196364 -232.25544 
L 380.450909 -232.386708 
L 382.705455 -232.605503 
L 384.96 -232.762997 
L 387.214545 -232.839497 
L 389.469091 -232.941249 
L 391.723636 -232.941666 
L 393.978182 -233.297475 
L 396.232727 -233.371334 
L 398.487273 -233.520765 
L 398.487273 -235.020454 
L 398.487273 -235.020454 
L 396.232727 -234.891735 
L 393.978182 -234.775062 
L 391.723636 -234.588053 
L 389.469091 -234.503213 
L 387.214545 -234.445108 
L 384.96 -234.333904 
L 382.705455 -234.143836 
L 380.450909 -234.050378 
L 378.196364 -233.944919 
L 375.941818 -233.822686 
L 373.687273 -233.730015 
L 371.432727 -233.696561 
L 369.178182 -233.505799 
L 366.923636 -233.481148 
L 364.669091 -233.387783 
L 362.414545 -233.260824 
L 360.16 -233.147256 
L 357.905455 -233.112504 
L 355.650909 -232.94023 
L 353.396364 -232.861645 
L 351.141818 -232.640069 
L 348.887273 -232.540819 
L 346.632727 -232.485587 
L 344.378182 -232.251177 
L 342.123636 -232.117639 
L 339.869091 -231.918397 
L 337.614545 -231.88953 
L 335.36 -231.827487 
L 333.105455 -231.713872 
L 330.850909 -231.670595 
L 328.596364 -231.464449 
L 326.341818 -231.365014 
L 324.087273 -231.212941 
L 321.832727 -231.183055 
L 319.578182 -230.971905 
L 317.323636 -230.770485 
L 315.069091 -230.406938 
L 312.814545 -230.295177 
L 310.56 -230.083564 
L 308.305455 -230.013551 
L 306.050909 -229.544174 
L 303.796364 -229.225619 
L 301.541818 -228.915775 
L 299.287273 -228.684886 
L 297.032727 -228.455433 
L 294.778182 -228.439818 
L 292.523636 -227.939582 
L 290.269091 -227.814615 
L 288.014545 -227.5259 
L 285.76 -227.285512 
L 283.505455 -227.080942 
L 281.250909 -226.941195 
L 278.996364 -226.801586 
L 276.741818 -226.666102 
L 274.487273 -226.460465 
L 272.232727 -226.352041 
L 269.978182 -226.155533 
L 267.723636 -226.022597 
L 265.469091 -225.855233 
L 263.214545 -225.800558 
L 260.96 -225.546825 
L 258.705455 -225.334656 
L 256.450909 -225.263346 
L 254.196364 -224.95656 
L 251.941818 -224.751989 
L 249.687273 -224.504976 
L 247.432727 -224.364162 
L 245.178182 -224.193648 
L 242.923636 -223.898492 
L 240.669091 -223.834179 
L 238.414545 -223.626689 
L 236.16 -223.354469 
L 233.905455 -223.123766 
L 231.650909 -222.445138 
L 229.396364 -222.185985 
L 227.141818 -221.940871 
L 224.887273 -221.397033 
L 222.632727 -221.17694 
L 220.378182 -220.365702 
L 218.123636 -220.12865 
L 215.869091 -219.848831 
L 213.614545 -219.547373 
L 211.36 -218.501214 
L 209.105455 -218.06367 
L 206.850909 -217.840797 
L 204.596364 -217.4646 
L 202.341818 -217.216336 
L 200.087273 -216.886891 
L 197.832727 -216.768041 
L 195.578182 -216.387118 
L 193.323636 -215.924692 
L 191.069091 -215.452581 
L 188.814545 -214.513179 
L 186.56 -214.039354 
L 184.305455 -213.698279 
L 182.050909 -213.417673 
L 179.796364 -213.172049 
L 177.541818 -212.720696 
L 175.287273 -211.979424 
L 173.032727 -211.515051 
L 170.778182 -211.120738 
L 168.523636 -210.762426 
L 166.269091 -210.489048 
L 164.014545 -210.003685 
L 161.76 -209.07026 
L 159.505455 -208.64467 
L 157.250909 -208.017336 
L 154.996364 -207.638035 
L 152.741818 -207.156518 
L 150.487273 -206.748814 
L 148.232727 -206.151968 
L 145.978182 -205.703906 
L 143.723636 -204.464621 
L 141.469091 -204.081335 
L 139.214545 -203.518871 
L 136.96 -203.070252 
L 134.705455 -202.411503 
L 132.450909 -201.743486 
L 130.196364 -201.216514 
L 127.941818 -200.702331 
L 125.687273 -200.070503 
L 123.432727 -199.090603 
L 121.178182 -198.470822 
L 118.923636 -197.852801 
L 116.669091 -197.340332 
L 114.414545 -196.511903 
L 112.16 -195.685373 
L 109.905455 -194.389699 
L 107.650909 -193.425229 
L 105.396364 -192.092532 
L 103.141818 -191.426508 
L 100.887273 -190.738567 
L 98.632727 -189.305879 
L 96.378182 -186.768093 
L 94.123636 -185.846298 
L 91.869091 -184.779612 
L 89.614545 -182.761199 
L 87.36 -181.403527 
L 85.105455 -179.780772 
L 82.850909 -177.654814 
L 80.596364 -174.642508 
L 78.341818 -170.622177 
L 76.087273 -163.141569 
L 73.832727 -50.112 
z
" style="stroke: #d62728; stroke-opacity: 0.2"/>
    </defs>
    <g clip-path="url(#p38ffa5e963)">
     <use xlink:href="#med8c288712" x="0" y="345.6" style="fill: #d62728; fill-opacity: 0.2; stroke: #d62728; stroke-opacity: 0.2"/>
    </g>
   </g>
   <g id="PolyCollection_5">
    <defs>
     <path id="m6438806800" d="M 73.832727 -50.112 
L 73.832727 -50.112 
L 76.087273 -185.036125 
L 78.341818 -193.533329 
L 80.596364 -198.724971 
L 82.850909 -201.786022 
L 85.105455 -204.981399 
L 87.36 -207.248262 
L 89.614545 -209.64278 
L 91.869091 -211.849778 
L 94.123636 -213.583414 
L 96.378182 -215.573285 
L 98.632727 -217.01436 
L 100.887273 -218.683312 
L 103.141818 -220.263903 
L 105.396364 -221.72759 
L 107.650909 -222.69155 
L 109.905455 -223.924394 
L 112.16 -225.196994 
L 114.414545 -226.462551 
L 116.669091 -227.442079 
L 118.923636 -228.451958 
L 121.178182 -229.374263 
L 123.432727 -230.161824 
L 125.687273 -230.918295 
L 127.941818 -231.527512 
L 130.196364 -232.221522 
L 132.450909 -232.853212 
L 134.705455 -233.605976 
L 136.96 -234.215517 
L 139.214545 -235.043622 
L 141.469091 -235.745602 
L 143.723636 -236.197418 
L 145.978182 -236.729533 
L 148.232727 -237.359879 
L 150.487273 -237.925818 
L 152.741818 -238.384585 
L 154.996364 -238.86448 
L 157.250909 -239.47504 
L 159.505455 -240.101633 
L 161.76 -240.500812 
L 164.014545 -240.935159 
L 166.269091 -241.228879 
L 168.523636 -241.697468 
L 170.778182 -242.047531 
L 173.032727 -242.381933 
L 175.287273 -242.969929 
L 177.541818 -243.184415 
L 179.796364 -243.484946 
L 182.050909 -243.932453 
L 184.305455 -244.255549 
L 186.56 -244.740541 
L 188.814545 -245.045242 
L 191.069091 -245.505537 
L 193.323636 -245.906199 
L 195.578182 -246.355744 
L 197.832727 -246.593769 
L 200.087273 -246.94828 
L 202.341818 -247.448841 
L 204.596364 -247.877489 
L 206.850909 -248.232001 
L 209.105455 -248.601015 
L 211.36 -248.990881 
L 213.614545 -249.259486 
L 215.869091 -249.464335 
L 218.123636 -249.69629 
L 220.378182 -249.967954 
L 222.632727 -250.256067 
L 224.887273 -250.470414 
L 227.141818 -250.799395 
L 229.396364 -251.069159 
L 231.650909 -251.227626 
L 233.905455 -251.740558 
L 236.16 -252.03159 
L 238.414545 -252.281662 
L 240.669091 -252.460609 
L 242.923636 -252.830643 
L 245.178182 -252.962606 
L 247.432727 -253.343436 
L 249.687273 -253.581785 
L 251.941818 -253.810589 
L 254.196364 -254.031423 
L 256.450909 -254.216764 
L 258.705455 -254.446449 
L 260.96 -254.595602 
L 263.214545 -254.874077 
L 265.469091 -254.935564 
L 267.723636 -255.201205 
L 269.978182 -255.542186 
L 272.232727 -255.676281 
L 274.487273 -255.890257 
L 276.741818 -256.13829 
L 278.996364 -256.32479 
L 281.250909 -256.486639 
L 283.505455 -256.691442 
L 285.76 -256.923211 
L 288.014545 -257.140616 
L 290.269091 -257.376695 
L 292.523636 -257.62028 
L 294.778182 -257.800987 
L 297.032727 -258.006763 
L 299.287273 -258.192289 
L 301.541818 -258.386388 
L 303.796364 -258.574556 
L 306.050909 -258.861974 
L 308.305455 -259.102176 
L 310.56 -259.346363 
L 312.814545 -259.365407 
L 315.069091 -259.620205 
L 317.323636 -259.760787 
L 319.578182 -259.950947 
L 321.832727 -260.043525 
L 324.087273 -260.191798 
L 326.341818 -260.316162 
L 328.596364 -260.500345 
L 330.850909 -260.733041 
L 333.105455 -260.769924 
L 335.36 -260.990156 
L 337.614545 -261.138799 
L 339.869091 -261.299444 
L 342.123636 -261.429785 
L 344.378182 -261.585379 
L 346.632727 -261.769145 
L 348.887273 -261.97682 
L 351.141818 -262.024684 
L 353.396364 -262.161698 
L 355.650909 -262.346298 
L 357.905455 -262.449116 
L 360.16 -262.524828 
L 362.414545 -262.696917 
L 364.669091 -262.879432 
L 366.923636 -262.934525 
L 369.178182 -263.029605 
L 371.432727 -263.175515 
L 373.687273 -263.35613 
L 375.941818 -263.385136 
L 378.196364 -263.572933 
L 380.450909 -263.615515 
L 382.705455 -263.794045 
L 384.96 -263.900617 
L 387.214545 -263.966922 
L 389.469091 -264.113991 
L 391.723636 -264.223481 
L 393.978182 -264.337559 
L 396.232727 -264.475638 
L 398.487273 -264.546253 
L 398.487273 -265.640601 
L 398.487273 -265.640601 
L 396.232727 -265.542787 
L 393.978182 -265.408693 
L 391.723636 -265.341321 
L 389.469091 -265.176321 
L 387.214545 -265.064421 
L 384.96 -264.992555 
L 382.705455 -264.885891 
L 380.450909 -264.707268 
L 378.196364 -264.69448 
L 375.941818 -264.584294 
L 373.687273 -264.480689 
L 371.432727 -264.259808 
L 369.178182 -264.130301 
L 366.923636 -264.018169 
L 364.669091 -263.983372 
L 362.414545 -263.850621 
L 360.16 -263.688864 
L 357.905455 -263.600086 
L 355.650909 -263.557596 
L 353.396364 -263.323881 
L 351.141818 -263.207394 
L 348.887273 -263.120932 
L 346.632727 -262.985957 
L 344.378182 -262.783518 
L 342.123636 -262.585249 
L 339.869091 -262.517136 
L 337.614545 -262.358948 
L 335.36 -262.203631 
L 333.105455 -262.032469 
L 330.850909 -261.912599 
L 328.596364 -261.810106 
L 326.341818 -261.573008 
L 324.087273 -261.429368 
L 321.832727 -261.254221 
L 319.578182 -261.240181 
L 317.323636 -261.045897 
L 315.069091 -260.913656 
L 312.814545 -260.748563 
L 310.56 -260.690783 
L 308.305455 -260.439182 
L 306.050909 -260.249161 
L 303.796364 -260.053533 
L 301.541818 -259.841781 
L 299.287273 -259.602181 
L 297.032727 -259.485369 
L 294.778182 -259.312863 
L 292.523636 -259.03638 
L 290.269091 -258.824025 
L 288.014545 -258.65504 
L 285.76 -258.56413 
L 283.505455 -258.223983 
L 281.250909 -258.01881 
L 278.996364 -257.836063 
L 276.741818 -257.631261 
L 274.487273 -257.478633 
L 272.232727 -257.166564 
L 269.978182 -257.068426 
L 267.723636 -256.766922 
L 265.469091 -256.448274 
L 263.214545 -256.332853 
L 260.96 -256.018143 
L 258.705455 -255.858101 
L 256.450909 -255.602654 
L 254.196364 -255.455539 
L 251.941818 -255.207599 
L 249.687273 -254.981436 
L 247.432727 -254.755691 
L 245.178182 -254.422123 
L 242.923636 -254.304338 
L 240.669091 -253.986385 
L 238.414545 -253.731726 
L 236.16 -253.531882 
L 233.905455 -253.242286 
L 231.650909 -252.846165 
L 229.396364 -252.661102 
L 227.141818 -252.389114 
L 224.887273 -252.064952 
L 222.632727 -251.866405 
L 220.378182 -251.664197 
L 218.123636 -251.315617 
L 215.869091 -251.095153 
L 213.614545 -250.915835 
L 211.36 -250.601265 
L 209.105455 -250.235355 
L 206.850909 -249.854108 
L 204.596364 -249.561917 
L 202.341818 -249.137347 
L 200.087273 -248.72158 
L 197.832727 -248.465114 
L 195.578182 -248.143963 
L 193.323636 -247.60411 
L 191.069091 -247.30534 
L 188.814545 -246.947168 
L 186.56 -246.535571 
L 184.305455 -246.045483 
L 182.050909 -245.592786 
L 179.796364 -245.229332 
L 177.541818 -245.056038 
L 175.287273 -244.691379 
L 173.032727 -244.149117 
L 170.778182 -243.764116 
L 168.523636 -243.422162 
L 166.269091 -243.028682 
L 164.014545 -242.633905 
L 161.76 -242.199465 
L 159.505455 -241.651689 
L 157.250909 -241.233883 
L 154.996364 -240.51828 
L 152.741818 -240.004236 
L 150.487273 -239.521839 
L 148.232727 -239.006451 
L 145.978182 -238.430503 
L 143.723636 -237.928321 
L 141.469091 -237.389209 
L 139.214545 -236.618143 
L 136.96 -235.669242 
L 134.705455 -235.188698 
L 132.450909 -234.432088 
L 130.196364 -233.787147 
L 127.941818 -233.123254 
L 125.687273 -232.282407 
L 123.432727 -231.427566 
L 121.178182 -230.450957 
L 118.923636 -229.446916 
L 116.669091 -228.544907 
L 114.414545 -227.507134 
L 112.16 -226.136535 
L 109.905455 -224.895073 
L 107.650909 -223.677195 
L 105.396364 -222.711242 
L 103.141818 -221.170917 
L 100.887273 -219.600566 
L 98.632727 -218.080211 
L 96.378182 -216.483357 
L 94.123636 -214.648246 
L 91.869091 -212.862529 
L 89.614545 -210.776188 
L 87.36 -208.366797 
L 85.105455 -206.315161 
L 82.850909 -202.901638 
L 80.596364 -199.840958 
L 78.341818 -194.892761 
L 76.087273 -186.36581 
L 73.832727 -50.112 
z
" style="stroke: #9467bd; stroke-opacity: 0.2"/>
    </defs>
    <g clip-path="url(#p38ffa5e963)">
     <use xlink:href="#m6438806800" x="0" y="345.6" style="fill: #9467bd; fill-opacity: 0.2; stroke: #9467bd; stroke-opacity: 0.2"/>
    </g>
   </g>
   <g id="PolyCollection_6">
    <defs>
     <path id="m05e7dcf02d" d="M 73.832727 -50.112 
L 73.832727 -50.112 
L 76.087273 -208.473832 
L 78.341818 -218.714913 
L 80.596364 -224.241374 
L 82.850909 -227.878049 
L 85.105455 -229.673172 
L 87.36 -230.959255 
L 89.614545 -231.885777 
L 91.869091 -232.533127 
L 94.123636 -233.326944 
L 96.378182 -234.215841 
L 98.632727 -235.065678 
L 100.887273 -235.775396 
L 103.141818 -236.359545 
L 105.396364 -237.032473 
L 107.650909 -237.538501 
L 109.905455 -238.048097 
L 112.16 -238.473224 
L 114.414545 -238.923418 
L 116.669091 -239.355263 
L 118.923636 -239.854897 
L 121.178182 -240.373482 
L 123.432727 -240.90101 
L 125.687273 -241.340732 
L 127.941818 -241.618142 
L 130.196364 -242.046466 
L 132.450909 -242.403479 
L 134.705455 -242.843619 
L 136.96 -243.132983 
L 139.214545 -243.48388 
L 141.469091 -243.78923 
L 143.723636 -244.17562 
L 145.978182 -244.412718 
L 148.232727 -244.738178 
L 150.487273 -245.133372 
L 152.741818 -245.396278 
L 154.996364 -245.689349 
L 157.250909 -245.983857 
L 159.505455 -246.162387 
L 161.76 -246.394388 
L 164.014545 -246.700386 
L 166.269091 -247.040441 
L 168.523636 -247.403756 
L 170.778182 -247.596002 
L 173.032727 -247.806735 
L 175.287273 -248.052544 
L 177.541818 -248.283247 
L 179.796364 -248.532114 
L 182.050909 -248.717178 
L 184.305455 -248.944499 
L 186.56 -249.114133 
L 188.814545 -249.329499 
L 191.069091 -249.543661 
L 193.323636 -249.727566 
L 195.578182 -249.878665 
L 197.832727 -250.131147 
L 200.087273 -250.245132 
L 202.341818 -250.531345 
L 204.596364 -250.653902 
L 206.850909 -250.878999 
L 209.105455 -251.183607 
L 211.36 -251.32303 
L 213.614545 -251.502719 
L 215.869091 -251.795419 
L 218.123636 -252.000546 
L 220.378182 -252.090899 
L 222.632727 -252.273692 
L 224.887273 -252.437117 
L 227.141818 -252.653364 
L 229.396364 -252.83472 
L 231.650909 -252.973448 
L 233.905455 -253.094754 
L 236.16 -253.229405 
L 238.414545 -253.492589 
L 240.669091 -253.624645 
L 242.923636 -253.754986 
L 245.178182 -253.990926 
L 247.432727 -254.13109 
L 249.687273 -254.261941 
L 251.941818 -254.397148 
L 254.196364 -254.507055 
L 256.450909 -254.70537 
L 258.705455 -254.855219 
L 260.96 -254.972957 
L 263.214545 -255.127671 
L 265.469091 -255.241609 
L 267.723636 -255.322372 
L 269.978182 -255.430982 
L 272.232727 -255.574482 
L 274.487273 -255.711727 
L 276.741818 -255.865885 
L 278.996364 -255.936963 
L 281.250909 -256.024259 
L 283.505455 -256.188889 
L 285.76 -256.24551 
L 288.014545 -256.363666 
L 290.269091 -256.557162 
L 292.523636 -256.619159 
L 294.778182 -256.777486 
L 297.032727 -256.916029 
L 299.287273 -257.027187 
L 301.541818 -257.112908 
L 303.796364 -257.194551 
L 306.050909 -257.314606 
L 308.305455 -257.480903 
L 310.56 -257.556615 
L 312.814545 -257.654614 
L 315.069091 -257.778793 
L 317.323636 -257.991472 
L 319.578182 -258.039105 
L 321.832727 -258.124686 
L 324.087273 -258.205912 
L 326.341818 -258.311603 
L 328.596364 -258.462146 
L 330.850909 -258.521456 
L 333.105455 -258.59865 
L 335.36 -258.707585 
L 337.614545 -258.80841 
L 339.869091 -258.879767 
L 342.123636 -258.936018 
L 344.378182 -259.02614 
L 346.632727 -259.152589 
L 348.887273 -259.233398 
L 351.141818 -259.314392 
L 353.396364 -259.393347 
L 355.650909 -259.492783 
L 357.905455 -259.579384 
L 360.16 -259.676549 
L 362.414545 -259.713061 
L 364.669091 -259.821022 
L 366.923636 -259.91462 
L 369.178182 -259.983103 
L 371.432727 -260.045888 
L 373.687273 -260.139532 
L 375.941818 -260.308748 
L 378.196364 -260.389094 
L 380.450909 -260.473378 
L 382.705455 -260.517721 
L 384.96 -260.647135 
L 387.214545 -260.732716 
L 389.469091 -260.777754 
L 391.723636 -260.852632 
L 393.978182 -260.936499 
L 396.232727 -261.016057 
L 398.487273 -261.045063 
L 398.487273 -261.445632 
L 398.487273 -261.445632 
L 396.232727 -261.392624 
L 393.978182 -261.336929 
L 391.723636 -261.208627 
L 389.469091 -261.17091 
L 387.214545 -261.089776 
L 384.96 -261.026019 
L 382.705455 -260.932144 
L 380.450909 -260.855968 
L 378.196364 -260.822422 
L 375.941818 -260.702042 
L 373.687273 -260.616693 
L 371.432727 -260.5085 
L 369.178182 -260.444372 
L 366.923636 -260.379549 
L 364.669091 -260.275294 
L 362.414545 -260.195597 
L 360.16 -260.128087 
L 357.905455 -260.022813 
L 355.650909 -259.947703 
L 353.396364 -259.850353 
L 351.141818 -259.771814 
L 348.887273 -259.652316 
L 346.632727 -259.563305 
L 344.378182 -259.485323 
L 342.123636 -259.411465 
L 339.869091 -259.30582 
L 337.614545 -259.239514 
L 335.36 -259.161949 
L 333.105455 -259.030727 
L 330.850909 -258.95066 
L 328.596364 -258.858267 
L 326.341818 -258.676911 
L 324.087273 -258.562926 
L 321.832727 -258.49194 
L 319.578182 -258.378511 
L 317.323636 -258.284636 
L 315.069091 -258.103047 
L 312.814545 -258.007689 
L 310.56 -257.899913 
L 308.305455 -257.814842 
L 306.050909 -257.638026 
L 303.796364 -257.500596 
L 301.541818 -257.447264 
L 299.287273 -257.383182 
L 297.032727 -257.253721 
L 294.778182 -257.1187 
L 292.523636 -256.998182 
L 290.269091 -256.899209 
L 288.014545 -256.748156 
L 285.76 -256.634635 
L 283.505455 -256.548404 
L 281.250909 -256.389706 
L 278.996364 -256.29736 
L 276.741818 -256.204411 
L 274.487273 -256.091445 
L 272.232727 -255.956795 
L 269.978182 -255.826268 
L 267.723636 -255.713164 
L 265.469091 -255.619891 
L 263.214545 -255.494322 
L 260.96 -255.326496 
L 258.705455 -255.206765 
L 256.450909 -255.050893 
L 254.196364 -254.836546 
L 251.941818 -254.734423 
L 249.687273 -254.621225 
L 247.432727 -254.458727 
L 245.178182 -254.328757 
L 242.923636 -254.171078 
L 240.669091 -254.009923 
L 238.414545 -253.865635 
L 236.16 -253.637109 
L 233.905455 -253.486983 
L 231.650909 -253.365167 
L 229.396364 -253.217589 
L 227.141818 -253.082661 
L 224.887273 -252.89908 
L 222.632727 -252.70197 
L 220.378182 -252.536784 
L 218.123636 -252.437534 
L 215.869091 -252.261506 
L 213.614545 -252.037428 
L 211.36 -251.854543 
L 209.105455 -251.677774 
L 206.850909 -251.37247 
L 204.596364 -251.194542 
L 202.341818 -251.061421 
L 200.087273 -250.784845 
L 197.832727 -250.628417 
L 195.578182 -250.441084 
L 193.323636 -250.265658 
L 191.069091 -250.089028 
L 188.814545 -249.808792 
L 186.56 -249.605797 
L 184.305455 -249.436348 
L 182.050909 -249.210371 
L 179.796364 -249.055333 
L 177.541818 -248.83992 
L 175.287273 -248.639612 
L 173.032727 -248.410577 
L 170.778182 -248.21203 
L 168.523636 -248.04981 
L 166.269091 -247.645442 
L 164.014545 -247.285926 
L 161.76 -247.053647 
L 159.505455 -246.842126 
L 157.250909 -246.61411 
L 154.996364 -246.350971 
L 152.741818 -246.049375 
L 150.487273 -245.785866 
L 148.232727 -245.386038 
L 145.978182 -245.061413 
L 143.723636 -244.777192 
L 141.469091 -244.475364 
L 139.214545 -244.153935 
L 136.96 -243.811054 
L 134.705455 -243.473547 
L 132.450909 -243.053888 
L 130.196364 -242.672827 
L 127.941818 -242.306639 
L 125.687273 -242.018108 
L 123.432727 -241.545071 
L 121.178182 -241.104607 
L 118.923636 -240.509662 
L 116.669091 -240.046169 
L 114.414545 -239.59908 
L 112.16 -239.154168 
L 109.905455 -238.731822 
L 107.650909 -238.237887 
L 105.396364 -237.715919 
L 103.141818 -237.037292 
L 100.887273 -236.471121 
L 98.632727 -235.709739 
L 96.378182 -234.834047 
L 94.123636 -233.966001 
L 91.869091 -233.20828 
L 89.614545 -232.530996 
L 87.36 -231.641867 
L 85.105455 -230.388219 
L 82.850909 -228.488192 
L 80.596364 -224.845865 
L 78.341818 -219.415318 
L 76.087273 -209.116549 
L 73.832727 -50.112 
z
" style="stroke: #8c564b; stroke-opacity: 0.2"/>
    </defs>
    <g clip-path="url(#p38ffa5e963)">
     <use xlink:href="#m05e7dcf02d" x="0" y="345.6" style="fill: #8c564b; fill-opacity: 0.2; stroke: #8c564b; stroke-opacity: 0.2"/>
    </g>
   </g>
   <g id="matplotlib.axis_1">
    <g id="xtick_1">
     <g id="line2d_1">
      <defs>
       <path id="mcf963096f4" d="M 0 0 
L 0 3.5 
" style="stroke: #000000; stroke-width: 0.8"/>
      </defs>
      <g>
       <use xlink:href="#mcf963096f4" x="73.832727" y="307.584" style="stroke: #000000; stroke-width: 0.8"/>
      </g>
     </g>
     <g id="text_1">
      <!-- 0 -->
      <g transform="translate(70.651477 322.182437)scale(0.1 -0.1)">
       <defs>
        <path id="DejaVuSans-30" d="M 2034 4250 
Q 1547 4250 1301 3770 
Q 1056 3291 1056 2328 
Q 1056 1369 1301 889 
Q 1547 409 2034 409 
Q 2525 409 2770 889 
Q 3016 1369 3016 2328 
Q 3016 3291 2770 3770 
Q 2525 4250 2034 4250 
z
M 2034 4750 
Q 2819 4750 3233 4129 
Q 3647 3509 3647 2328 
Q 3647 1150 3233 529 
Q 2819 -91 2034 -91 
Q 1250 -91 836 529 
Q 422 1150 422 2328 
Q 422 3509 836 4129 
Q 1250 4750 2034 4750 
z
" transform="scale(0.015625)"/>
       </defs>
       <use xlink:href="#DejaVuSans-30"/>
      </g>
     </g>
    </g>
    <g id="xtick_2">
     <g id="line2d_2">
      <g>
       <use xlink:href="#mcf963096f4" x="148.984242" y="307.584" style="stroke: #000000; stroke-width: 0.8"/>
      </g>
     </g>
     <g id="text_2">
      <!-- 20000 -->
      <g transform="translate(133.077992 322.182437)scale(0.1 -0.1)">
       <defs>
        <path id="DejaVuSans-32" d="M 1228 531 
L 3431 531 
L 3431 0 
L 469 0 
L 469 531 
Q 828 903 1448 1529 
Q 2069 2156 2228 2338 
Q 2531 2678 2651 2914 
Q 2772 3150 2772 3378 
Q 2772 3750 2511 3984 
Q 2250 4219 1831 4219 
Q 1534 4219 1204 4116 
Q 875 4013 500 3803 
L 500 4441 
Q 881 4594 1212 4672 
Q 1544 4750 1819 4750 
Q 2544 4750 2975 4387 
Q 3406 4025 3406 3419 
Q 3406 3131 3298 2873 
Q 3191 2616 2906 2266 
Q 2828 2175 2409 1742 
Q 1991 1309 1228 531 
z
" transform="scale(0.015625)"/>
       </defs>
       <use xlink:href="#DejaVuSans-32"/>
       <use xlink:href="#DejaVuSans-30" x="63.623047"/>
       <use xlink:href="#DejaVuSans-30" x="127.246094"/>
       <use xlink:href="#DejaVuSans-30" x="190.869141"/>
       <use xlink:href="#DejaVuSans-30" x="254.492188"/>
      </g>
     </g>
    </g>
    <g id="xtick_3">
     <g id="line2d_3">
      <g>
       <use xlink:href="#mcf963096f4" x="224.135758" y="307.584" style="stroke: #000000; stroke-width: 0.8"/>
      </g>
     </g>
     <g id="text_3">
      <!-- 40000 -->
      <g transform="translate(208.229508 322.182437)scale(0.1 -0.1)">
       <defs>
        <path id="DejaVuSans-34" d="M 2419 4116 
L 825 1625 
L 2419 1625 
L 2419 4116 
z
M 2253 4666 
L 3047 4666 
L 3047 1625 
L 3713 1625 
L 3713 1100 
L 3047 1100 
L 3047 0 
L 2419 0 
L 2419 1100 
L 313 1100 
L 313 1709 
L 2253 4666 
z
" transform="scale(0.015625)"/>
       </defs>
       <use xlink:href="#DejaVuSans-34"/>
       <use xlink:href="#DejaVuSans-30" x="63.623047"/>
       <use xlink:href="#DejaVuSans-30" x="127.246094"/>
       <use xlink:href="#DejaVuSans-30" x="190.869141"/>
       <use xlink:href="#DejaVuSans-30" x="254.492188"/>
      </g>
     </g>
    </g>
    <g id="xtick_4">
     <g id="line2d_4">
      <g>
       <use xlink:href="#mcf963096f4" x="299.287273" y="307.584" style="stroke: #000000; stroke-width: 0.8"/>
      </g>
     </g>
     <g id="text_4">
      <!-- 60000 -->
      <g transform="translate(283.381023 322.182437)scale(0.1 -0.1)">
       <defs>
        <path id="DejaVuSans-36" d="M 2113 2584 
Q 1688 2584 1439 2293 
Q 1191 2003 1191 1497 
Q 1191 994 1439 701 
Q 1688 409 2113 409 
Q 2538 409 2786 701 
Q 3034 994 3034 1497 
Q 3034 2003 2786 2293 
Q 2538 2584 2113 2584 
z
M 3366 4563 
L 3366 3988 
Q 3128 4100 2886 4159 
Q 2644 4219 2406 4219 
Q 1781 4219 1451 3797 
Q 1122 3375 1075 2522 
Q 1259 2794 1537 2939 
Q 1816 3084 2150 3084 
Q 2853 3084 3261 2657 
Q 3669 2231 3669 1497 
Q 3669 778 3244 343 
Q 2819 -91 2113 -91 
Q 1303 -91 875 529 
Q 447 1150 447 2328 
Q 447 3434 972 4092 
Q 1497 4750 2381 4750 
Q 2619 4750 2861 4703 
Q 3103 4656 3366 4563 
z
" transform="scale(0.015625)"/>
       </defs>
       <use xlink:href="#DejaVuSans-36"/>
       <use xlink:href="#DejaVuSans-30" x="63.623047"/>
       <use xlink:href="#DejaVuSans-30" x="127.246094"/>
       <use xlink:href="#DejaVuSans-30" x="190.869141"/>
       <use xlink:href="#DejaVuSans-30" x="254.492188"/>
      </g>
     </g>
    </g>
    <g id="xtick_5">
     <g id="line2d_5">
      <g>
       <use xlink:href="#mcf963096f4" x="374.438788" y="307.584" style="stroke: #000000; stroke-width: 0.8"/>
      </g>
     </g>
     <g id="text_5">
      <!-- 80000 -->
      <g transform="translate(358.532538 322.182437)scale(0.1 -0.1)">
       <defs>
        <path id="DejaVuSans-38" d="M 2034 2216 
Q 1584 2216 1326 1975 
Q 1069 1734 1069 1313 
Q 1069 891 1326 650 
Q 1584 409 2034 409 
Q 2484 409 2743 651 
Q 3003 894 3003 1313 
Q 3003 1734 2745 1975 
Q 2488 2216 2034 2216 
z
M 1403 2484 
Q 997 2584 770 2862 
Q 544 3141 544 3541 
Q 544 4100 942 4425 
Q 1341 4750 2034 4750 
Q 2731 4750 3128 4425 
Q 3525 4100 3525 3541 
Q 3525 3141 3298 2862 
Q 3072 2584 2669 2484 
Q 3125 2378 3379 2068 
Q 3634 1759 3634 1313 
Q 3634 634 3220 271 
Q 2806 -91 2034 -91 
Q 1263 -91 848 271 
Q 434 634 434 1313 
Q 434 1759 690 2068 
Q 947 2378 1403 2484 
z
M 1172 3481 
Q 1172 3119 1398 2916 
Q 1625 2713 2034 2713 
Q 2441 2713 2670 2916 
Q 2900 3119 2900 3481 
Q 2900 3844 2670 4047 
Q 2441 4250 2034 4250 
Q 1625 4250 1398 4047 
Q 1172 3844 1172 3481 
z
" transform="scale(0.015625)"/>
       </defs>
       <use xlink:href="#DejaVuSans-38"/>
       <use xlink:href="#DejaVuSans-30" x="63.623047"/>
       <use xlink:href="#DejaVuSans-30" x="127.246094"/>
       <use xlink:href="#DejaVuSans-30" x="190.869141"/>
       <use xlink:href="#DejaVuSans-30" x="254.492188"/>
      </g>
     </g>
    </g>
    <g id="text_6">
     <!-- epoch -->
     <g transform="translate(220.931875 335.860562)scale(0.1 -0.1)">
      <defs>
       <path id="DejaVuSans-65" d="M 3597 1894 
L 3597 1613 
L 953 1613 
Q 991 1019 1311 708 
Q 1631 397 2203 397 
Q 2534 397 2845 478 
Q 3156 559 3463 722 
L 3463 178 
Q 3153 47 2828 -22 
Q 2503 -91 2169 -91 
Q 1331 -91 842 396 
Q 353 884 353 1716 
Q 353 2575 817 3079 
Q 1281 3584 2069 3584 
Q 2775 3584 3186 3129 
Q 3597 2675 3597 1894 
z
M 3022 2063 
Q 3016 2534 2758 2815 
Q 2500 3097 2075 3097 
Q 1594 3097 1305 2825 
Q 1016 2553 972 2059 
L 3022 2063 
z
" transform="scale(0.015625)"/>
       <path id="DejaVuSans-70" d="M 1159 525 
L 1159 -1331 
L 581 -1331 
L 581 3500 
L 1159 3500 
L 1159 2969 
Q 1341 3281 1617 3432 
Q 1894 3584 2278 3584 
Q 2916 3584 3314 3078 
Q 3713 2572 3713 1747 
Q 3713 922 3314 415 
Q 2916 -91 2278 -91 
Q 1894 -91 1617 61 
Q 1341 213 1159 525 
z
M 3116 1747 
Q 3116 2381 2855 2742 
Q 2594 3103 2138 3103 
Q 1681 3103 1420 2742 
Q 1159 2381 1159 1747 
Q 1159 1113 1420 752 
Q 1681 391 2138 391 
Q 2594 391 2855 752 
Q 3116 1113 3116 1747 
z
" transform="scale(0.015625)"/>
       <path id="DejaVuSans-6f" d="M 1959 3097 
Q 1497 3097 1228 2736 
Q 959 2375 959 1747 
Q 959 1119 1226 758 
Q 1494 397 1959 397 
Q 2419 397 2687 759 
Q 2956 1122 2956 1747 
Q 2956 2369 2687 2733 
Q 2419 3097 1959 3097 
z
M 1959 3584 
Q 2709 3584 3137 3096 
Q 3566 2609 3566 1747 
Q 3566 888 3137 398 
Q 2709 -91 1959 -91 
Q 1206 -91 779 398 
Q 353 888 353 1747 
Q 353 2609 779 3096 
Q 1206 3584 1959 3584 
z
" transform="scale(0.015625)"/>
       <path id="DejaVuSans-63" d="M 3122 3366 
L 3122 2828 
Q 2878 2963 2633 3030 
Q 2388 3097 2138 3097 
Q 1578 3097 1268 2742 
Q 959 2388 959 1747 
Q 959 1106 1268 751 
Q 1578 397 2138 397 
Q 2388 397 2633 464 
Q 2878 531 3122 666 
L 3122 134 
Q 2881 22 2623 -34 
Q 2366 -91 2075 -91 
Q 1284 -91 818 406 
Q 353 903 353 1747 
Q 353 2603 823 3093 
Q 1294 3584 2113 3584 
Q 2378 3584 2631 3529 
Q 2884 3475 3122 3366 
z
" transform="scale(0.015625)"/>
       <path id="DejaVuSans-68" d="M 3513 2113 
L 3513 0 
L 2938 0 
L 2938 2094 
Q 2938 2591 2744 2837 
Q 2550 3084 2163 3084 
Q 1697 3084 1428 2787 
Q 1159 2491 1159 1978 
L 1159 0 
L 581 0 
L 581 4863 
L 1159 4863 
L 1159 2956 
Q 1366 3272 1645 3428 
Q 1925 3584 2291 3584 
Q 2894 3584 3203 3211 
Q 3513 2838 3513 2113 
z
" transform="scale(0.015625)"/>
      </defs>
      <use xlink:href="#DejaVuSans-65"/>
      <use xlink:href="#DejaVuSans-70" x="61.523438"/>
      <use xlink:href="#DejaVuSans-6f" x="125"/>
      <use xlink:href="#DejaVuSans-63" x="186.181641"/>
      <use xlink:href="#DejaVuSans-68" x="241.162109"/>
     </g>
    </g>
   </g>
   <g id="matplotlib.axis_2">
    <g id="ytick_1">
     <g id="line2d_6">
      <defs>
       <path id="m10742afbf7" d="M 0 0 
L -3.5 0 
" style="stroke: #000000; stroke-width: 0.8"/>
      </defs>
      <g>
       <use xlink:href="#m10742afbf7" x="57.6" y="295.488" style="stroke: #000000; stroke-width: 0.8"/>
      </g>
     </g>
     <g id="text_7">
      <!-- 0 -->
      <g transform="translate(44.2375 299.287219)scale(0.1 -0.1)">
       <use xlink:href="#DejaVuSans-30"/>
      </g>
     </g>
    </g>
    <g id="ytick_2">
     <g id="line2d_7">
      <g>
       <use xlink:href="#m10742afbf7" x="57.6" y="249.15267" style="stroke: #000000; stroke-width: 0.8"/>
      </g>
     </g>
     <g id="text_8">
      <!-- 20000 -->
      <g transform="translate(18.7875 252.951889)scale(0.1 -0.1)">
       <use xlink:href="#DejaVuSans-32"/>
       <use xlink:href="#DejaVuSans-30" x="63.623047"/>
       <use xlink:href="#DejaVuSans-30" x="127.246094"/>
       <use xlink:href="#DejaVuSans-30" x="190.869141"/>
       <use xlink:href="#DejaVuSans-30" x="254.492188"/>
      </g>
     </g>
    </g>
    <g id="ytick_3">
     <g id="line2d_8">
      <g>
       <use xlink:href="#m10742afbf7" x="57.6" y="202.817341" style="stroke: #000000; stroke-width: 0.8"/>
      </g>
     </g>
     <g id="text_9">
      <!-- 40000 -->
      <g transform="translate(18.7875 206.616559)scale(0.1 -0.1)">
       <use xlink:href="#DejaVuSans-34"/>
       <use xlink:href="#DejaVuSans-30" x="63.623047"/>
       <use xlink:href="#DejaVuSans-30" x="127.246094"/>
       <use xlink:href="#DejaVuSans-30" x="190.869141"/>
       <use xlink:href="#DejaVuSans-30" x="254.492188"/>
      </g>
     </g>
    </g>
    <g id="ytick_4">
     <g id="line2d_9">
      <g>
       <use xlink:href="#m10742afbf7" x="57.6" y="156.482011" style="stroke: #000000; stroke-width: 0.8"/>
      </g>
     </g>
     <g id="text_10">
      <!-- 60000 -->
      <g transform="translate(18.7875 160.28123)scale(0.1 -0.1)">
       <use xlink:href="#DejaVuSans-36"/>
       <use xlink:href="#DejaVuSans-30" x="63.623047"/>
       <use xlink:href="#DejaVuSans-30" x="127.246094"/>
       <use xlink:href="#DejaVuSans-30" x="190.869141"/>
       <use xlink:href="#DejaVuSans-30" x="254.492188"/>
      </g>
     </g>
    </g>
    <g id="ytick_5">
     <g id="line2d_10">
      <g>
       <use xlink:href="#m10742afbf7" x="57.6" y="110.146681" style="stroke: #000000; stroke-width: 0.8"/>
      </g>
     </g>
     <g id="text_11">
      <!-- 80000 -->
      <g transform="translate(18.7875 113.9459)scale(0.1 -0.1)">
       <use xlink:href="#DejaVuSans-38"/>
       <use xlink:href="#DejaVuSans-30" x="63.623047"/>
       <use xlink:href="#DejaVuSans-30" x="127.246094"/>
       <use xlink:href="#DejaVuSans-30" x="190.869141"/>
       <use xlink:href="#DejaVuSans-30" x="254.492188"/>
      </g>
     </g>
    </g>
    <g id="ytick_6">
     <g id="line2d_11">
      <g>
       <use xlink:href="#m10742afbf7" x="57.6" y="63.811351" style="stroke: #000000; stroke-width: 0.8"/>
      </g>
     </g>
     <g id="text_12">
      <!-- 100000 -->
      <g transform="translate(12.425 67.61057)scale(0.1 -0.1)">
       <defs>
        <path id="DejaVuSans-31" d="M 794 531 
L 1825 531 
L 1825 4091 
L 703 3866 
L 703 4441 
L 1819 4666 
L 2450 4666 
L 2450 531 
L 3481 531 
L 3481 0 
L 794 0 
L 794 531 
z
" transform="scale(0.015625)"/>
       </defs>
       <use xlink:href="#DejaVuSans-31"/>
       <use xlink:href="#DejaVuSans-30" x="63.623047"/>
       <use xlink:href="#DejaVuSans-30" x="127.246094"/>
       <use xlink:href="#DejaVuSans-30" x="190.869141"/>
       <use xlink:href="#DejaVuSans-30" x="254.492188"/>
       <use xlink:href="#DejaVuSans-30" x="318.115234"/>
      </g>
     </g>
    </g>
    <g id="text_13">
     <!-- coverage -->
     <g transform="translate(6.345312 197.742844)rotate(-90)scale(0.1 -0.1)">
      <defs>
       <path id="DejaVuSans-76" d="M 191 3500 
L 800 3500 
L 1894 563 
L 2988 3500 
L 3597 3500 
L 2284 0 
L 1503 0 
L 191 3500 
z
" transform="scale(0.015625)"/>
       <path id="DejaVuSans-72" d="M 2631 2963 
Q 2534 3019 2420 3045 
Q 2306 3072 2169 3072 
Q 1681 3072 1420 2755 
Q 1159 2438 1159 1844 
L 1159 0 
L 581 0 
L 581 3500 
L 1159 3500 
L 1159 2956 
Q 1341 3275 1631 3429 
Q 1922 3584 2338 3584 
Q 2397 3584 2469 3576 
Q 2541 3569 2628 3553 
L 2631 2963 
z
" transform="scale(0.015625)"/>
       <path id="DejaVuSans-61" d="M 2194 1759 
Q 1497 1759 1228 1600 
Q 959 1441 959 1056 
Q 959 750 1161 570 
Q 1363 391 1709 391 
Q 2188 391 2477 730 
Q 2766 1069 2766 1631 
L 2766 1759 
L 2194 1759 
z
M 3341 1997 
L 3341 0 
L 2766 0 
L 2766 531 
Q 2569 213 2275 61 
Q 1981 -91 1556 -91 
Q 1019 -91 701 211 
Q 384 513 384 1019 
Q 384 1609 779 1909 
Q 1175 2209 1959 2209 
L 2766 2209 
L 2766 2266 
Q 2766 2663 2505 2880 
Q 2244 3097 1772 3097 
Q 1472 3097 1187 3025 
Q 903 2953 641 2809 
L 641 3341 
Q 956 3463 1253 3523 
Q 1550 3584 1831 3584 
Q 2591 3584 2966 3190 
Q 3341 2797 3341 1997 
z
" transform="scale(0.015625)"/>
       <path id="DejaVuSans-67" d="M 2906 1791 
Q 2906 2416 2648 2759 
Q 2391 3103 1925 3103 
Q 1463 3103 1205 2759 
Q 947 2416 947 1791 
Q 947 1169 1205 825 
Q 1463 481 1925 481 
Q 2391 481 2648 825 
Q 2906 1169 2906 1791 
z
M 3481 434 
Q 3481 -459 3084 -895 
Q 2688 -1331 1869 -1331 
Q 1566 -1331 1297 -1286 
Q 1028 -1241 775 -1147 
L 775 -588 
Q 1028 -725 1275 -790 
Q 1522 -856 1778 -856 
Q 2344 -856 2625 -561 
Q 2906 -266 2906 331 
L 2906 616 
Q 2728 306 2450 153 
Q 2172 0 1784 0 
Q 1141 0 747 490 
Q 353 981 353 1791 
Q 353 2603 747 3093 
Q 1141 3584 1784 3584 
Q 2172 3584 2450 3431 
Q 2728 3278 2906 2969 
L 2906 3500 
L 3481 3500 
L 3481 434 
z
" transform="scale(0.015625)"/>
      </defs>
      <use xlink:href="#DejaVuSans-63"/>
      <use xlink:href="#DejaVuSans-6f" x="54.980469"/>
      <use xlink:href="#DejaVuSans-76" x="116.162109"/>
      <use xlink:href="#DejaVuSans-65" x="175.341797"/>
      <use xlink:href="#DejaVuSans-72" x="236.865234"/>
      <use xlink:href="#DejaVuSans-61" x="277.978516"/>
      <use xlink:href="#DejaVuSans-67" x="339.257812"/>
      <use xlink:href="#DejaVuSans-65" x="402.734375"/>
     </g>
    </g>
   </g>
   <g id="line2d_12">
    <path d="M 73.832727 295.488 
L 76.087273 195.155794 
L 78.341818 173.783623 
L 80.596364 163.897517 
L 82.850909 160.641533 
L 85.105455 154.102228 
L 87.36 148.150455 
L 89.614545 140.36751 
L 91.869091 136.109061 
L 94.123636 134.325151 
L 96.378182 132.310259 
L 98.632727 129.449748 
L 100.887273 127.093596 
L 103.141818 122.960021 
L 105.396364 121.654524 
L 107.650909 120.162989 
L 109.905455 117.803363 
L 112.16 111.332866 
L 114.414545 110.253716 
L 116.669091 103.037451 
L 118.923636 99.891978 
L 121.178182 98.659921 
L 123.432727 97.275422 
L 127.941818 95.497535 
L 130.196364 93.873713 
L 132.450909 93.168721 
L 134.705455 92.004546 
L 136.96 91.336854 
L 141.469091 89.447994 
L 145.978182 87.788031 
L 148.232727 86.787651 
L 150.487273 85.331332 
L 152.741818 84.335817 
L 154.996364 83.742262 
L 161.76 81.129181 
L 170.778182 79.018607 
L 175.287273 77.97305 
L 179.796364 76.686781 
L 182.050909 76.193773 
L 184.305455 75.287222 
L 200.087273 72.360915 
L 202.341818 71.995792 
L 204.596364 71.257207 
L 211.36 70.131954 
L 249.687273 65.455792 
L 251.941818 65.189364 
L 254.196364 64.48553 
L 258.705455 64.039321 
L 278.996364 62.055011 
L 283.505455 61.609033 
L 292.523636 60.761097 
L 299.287273 60.236349 
L 306.050909 59.744036 
L 317.323636 58.896331 
L 321.832727 58.562485 
L 348.887273 56.842981 
L 380.450909 55.046792 
L 391.723636 54.44675 
L 396.232727 54.206964 
L 398.487273 54.136534 
L 398.487273 54.136534 
" clip-path="url(#p38ffa5e963)" style="fill: none; stroke: #1f77b4; stroke-width: 1.5; stroke-linecap: square"/>
   </g>
   <g id="line2d_13">
    <path d="M 73.832727 295.488 
L 76.087273 121.123289 
L 78.341818 108.411191 
L 80.596364 101.503289 
L 82.850909 97.073631 
L 85.105455 93.147639 
L 87.36 90.763223 
L 89.614545 89.579123 
L 91.869091 88.197635 
L 96.378182 86.292327 
L 98.632727 85.005826 
L 100.887273 84.091167 
L 109.905455 81.734552 
L 112.16 81.302707 
L 114.414545 80.522651 
L 116.669091 80.158224 
L 118.923636 79.678653 
L 134.705455 77.588003 
L 136.96 77.036845 
L 143.723636 76.132842 
L 159.505455 74.6471 
L 164.014545 74.095709 
L 175.287273 73.082124 
L 182.050909 72.611821 
L 191.069091 71.946677 
L 209.105455 70.729448 
L 213.614545 70.221613 
L 233.905455 68.859817 
L 240.669091 68.462955 
L 242.923636 68.215756 
L 290.269091 66.071589 
L 299.287273 65.781066 
L 303.796364 65.577422 
L 337.614545 64.408382 
L 380.450909 63.228916 
L 398.487273 62.773672 
L 398.487273 62.773672 
" clip-path="url(#p38ffa5e963)" style="fill: none; stroke: #ff7f0e; stroke-width: 1.5; stroke-linecap: square"/>
   </g>
   <g id="line2d_14">
    <path d="M 73.832727 295.488 
L 76.087273 175.18573 
L 78.341818 169.255039 
L 80.596364 166.382017 
L 82.850909 163.942694 
L 85.105455 162.114997 
L 87.36 160.917924 
L 91.869091 158.844881 
L 98.632727 156.886982 
L 107.650909 154.893172 
L 123.432727 152.112589 
L 130.196364 151.236388 
L 132.450909 150.810103 
L 143.723636 149.564841 
L 166.269091 147.365535 
L 197.832727 145.188469 
L 206.850909 144.588658 
L 211.36 144.309025 
L 215.869091 143.903127 
L 220.378182 143.544492 
L 256.450909 140.640657 
L 263.214545 139.909485 
L 265.469091 139.587455 
L 276.741818 138.603292 
L 281.250909 138.196931 
L 292.523636 137.649479 
L 303.796364 136.967192 
L 328.596364 135.718686 
L 337.614545 135.408471 
L 346.632727 135.083661 
L 353.396364 134.889052 
L 364.669091 134.623782 
L 398.487273 133.904658 
L 398.487273 133.904658 
" clip-path="url(#p38ffa5e963)" style="fill: none; stroke: #2ca02c; stroke-width: 1.5; stroke-linecap: square"/>
   </g>
   <g id="line2d_15">
    <path d="M 73.832727 295.488 
L 76.087273 183.319434 
L 78.341818 175.563363 
L 80.596364 171.520142 
L 82.850909 168.506261 
L 85.105455 166.462409 
L 87.36 164.653941 
L 89.614545 163.294231 
L 91.869091 161.3734 
L 94.123636 160.312321 
L 96.378182 159.401832 
L 98.632727 156.960886 
L 100.887273 155.643805 
L 105.396364 154.189339 
L 107.650909 152.887779 
L 109.905455 151.855428 
L 112.16 150.513789 
L 114.414545 149.622992 
L 116.669091 148.895991 
L 123.432727 147.179267 
L 125.687273 146.078339 
L 127.941818 145.420146 
L 132.450909 144.35953 
L 134.705455 143.491438 
L 136.96 142.862667 
L 143.723636 141.50342 
L 145.978182 140.495395 
L 148.232727 140.049649 
L 150.487273 139.461886 
L 157.250909 138.119551 
L 159.505455 137.573489 
L 161.76 137.178944 
L 164.014545 136.314327 
L 168.523636 135.57273 
L 170.778182 135.306302 
L 175.287273 134.454658 
L 177.541818 133.692211 
L 182.050909 133.096802 
L 188.814545 132.034564 
L 191.069091 131.219526 
L 197.832727 130.096589 
L 202.341818 129.601959 
L 211.36 128.302717 
L 213.614545 127.2282 
L 220.378182 126.422429 
L 222.632727 125.649787 
L 224.887273 125.426683 
L 227.141818 124.936223 
L 231.650909 124.545385 
L 233.905455 123.731736 
L 240.669091 123.072385 
L 242.923636 122.9211 
L 247.432727 122.441066 
L 254.196364 121.869751 
L 256.450909 121.558146 
L 267.723636 120.764885 
L 274.487273 120.327016 
L 278.996364 119.902121 
L 285.76 119.47491 
L 288.014545 119.227711 
L 290.269091 118.654079 
L 292.523636 118.538936 
L 294.778182 118.092727 
L 299.287273 117.831627 
L 303.796364 117.340936 
L 306.050909 116.771243 
L 308.305455 116.439482 
L 315.069091 116.053509 
L 317.323636 115.706457 
L 333.105455 114.759595 
L 344.378182 114.222337 
L 351.141818 113.773347 
L 362.414545 113.173305 
L 396.232727 111.501758 
L 398.487273 111.303443 
L 398.487273 111.303443 
" clip-path="url(#p38ffa5e963)" style="fill: none; stroke: #d62728; stroke-width: 1.5; stroke-linecap: square"/>
   </g>
   <g id="line2d_16">
    <path d="M 73.832727 295.488 
L 76.087273 159.948589 
L 78.341818 151.392538 
L 80.596364 146.32855 
L 82.850909 143.262078 
L 85.105455 139.99312 
L 91.869091 133.24299 
L 94.123636 131.539239 
L 96.378182 129.532688 
L 98.632727 128.054359 
L 103.141818 124.878072 
L 105.396364 123.378893 
L 107.650909 122.485316 
L 114.414545 118.609366 
L 123.432727 114.752181 
L 127.941818 113.286595 
L 136.96 110.625325 
L 139.214545 109.788741 
L 141.469091 109.080042 
L 161.76 104.189116 
L 211.36 95.856402 
L 256.450909 90.630472 
L 260.96 90.278323 
L 274.487273 88.931587 
L 281.250909 88.360736 
L 310.56 85.63228 
L 317.323636 85.188387 
L 328.596364 84.474128 
L 351.141818 82.937185 
L 362.414545 82.312585 
L 382.705455 81.279076 
L 398.487273 80.514543 
L 398.487273 80.514543 
" clip-path="url(#p38ffa5e963)" style="fill: none; stroke: #9467bd; stroke-width: 1.5; stroke-linecap: square"/>
   </g>
   <g id="line2d_17">
    <path d="M 73.832727 295.488 
L 76.087273 136.802701 
L 78.341818 126.541511 
L 80.596364 121.043824 
L 82.850909 117.424108 
L 85.105455 115.54799 
L 87.36 114.311532 
L 89.614545 113.384826 
L 94.123636 111.979475 
L 98.632727 110.209234 
L 100.887273 109.458601 
L 109.905455 107.243078 
L 127.941818 103.648383 
L 136.96 102.109818 
L 143.723636 101.124266 
L 148.232727 100.559438 
L 150.487273 100.17555 
L 166.269091 98.259584 
L 168.523636 97.879403 
L 188.814545 96.039195 
L 193.323636 95.609898 
L 200.087273 95.06847 
L 204.596364 94.65817 
L 206.850909 94.481633 
L 211.36 94.002757 
L 245.178182 91.441572 
L 299.287273 88.397109 
L 306.050909 88.11678 
L 310.56 87.871203 
L 351.141818 86.058797 
L 387.214545 84.700476 
L 398.487273 84.364777 
L 398.487273 84.364777 
" clip-path="url(#p38ffa5e963)" style="fill: none; stroke: #8c564b; stroke-width: 1.5; stroke-linecap: square"/>
   </g>
   <g id="line2d_18"/>
   <g id="line2d_19"/>
   <g id="line2d_20"/>
   <g id="line2d_21"/>
   <g id="line2d_22"/>
   <g id="line2d_23"/>
   <g id="patch_3">
    <path d="M 57.6 307.584 
L 57.6 41.472 
" style="fill: none; stroke: #000000; stroke-width: 0.8; stroke-linejoin: miter; stroke-linecap: square"/>
   </g>
   <g id="patch_4">
    <path d="M 57.6 307.584 
L 414.72 307.584 
" style="fill: none; stroke: #000000; stroke-width: 0.8; stroke-linejoin: miter; stroke-linecap: square"/>
   </g>
   <g id="legend_1">
    <g id="patch_5">
     <path d="M 324.302813 302.584 
L 407.72 302.584 
Q 409.72 302.584 409.72 300.584 
L 409.72 196.89025 
Q 409.72 194.89025 407.72 194.89025 
L 324.302813 194.89025 
Q 322.302813 194.89025 322.302813 196.89025 
L 322.302813 300.584 
Q 322.302813 302.584 324.302813 302.584 
z
" style="fill: #ffffff; opacity: 0.8; stroke: #cccccc; stroke-linejoin: miter"/>
    </g>
    <g id="text_14">
     <!-- engine_fuzzer -->
     <g transform="translate(331.148125 206.488687)scale(0.1 -0.1)">
      <defs>
       <path id="DejaVuSans-6e" d="M 3513 2113 
L 3513 0 
L 2938 0 
L 2938 2094 
Q 2938 2591 2744 2837 
Q 2550 3084 2163 3084 
Q 1697 3084 1428 2787 
Q 1159 2491 1159 1978 
L 1159 0 
L 581 0 
L 581 3500 
L 1159 3500 
L 1159 2956 
Q 1366 3272 1645 3428 
Q 1925 3584 2291 3584 
Q 2894 3584 3203 3211 
Q 3513 2838 3513 2113 
z
" transform="scale(0.015625)"/>
       <path id="DejaVuSans-69" d="M 603 3500 
L 1178 3500 
L 1178 0 
L 603 0 
L 603 3500 
z
M 603 4863 
L 1178 4863 
L 1178 4134 
L 603 4134 
L 603 4863 
z
" transform="scale(0.015625)"/>
       <path id="DejaVuSans-5f" d="M 3263 -1063 
L 3263 -1509 
L -63 -1509 
L -63 -1063 
L 3263 -1063 
z
" transform="scale(0.015625)"/>
       <path id="DejaVuSans-66" d="M 2375 4863 
L 2375 4384 
L 1825 4384 
Q 1516 4384 1395 4259 
Q 1275 4134 1275 3809 
L 1275 3500 
L 2222 3500 
L 2222 3053 
L 1275 3053 
L 1275 0 
L 697 0 
L 697 3053 
L 147 3053 
L 147 3500 
L 697 3500 
L 697 3744 
Q 697 4328 969 4595 
Q 1241 4863 1831 4863 
L 2375 4863 
z
" transform="scale(0.015625)"/>
       <path id="DejaVuSans-75" d="M 544 1381 
L 544 3500 
L 1119 3500 
L 1119 1403 
Q 1119 906 1312 657 
Q 1506 409 1894 409 
Q 2359 409 2629 706 
Q 2900 1003 2900 1516 
L 2900 3500 
L 3475 3500 
L 3475 0 
L 2900 0 
L 2900 538 
Q 2691 219 2414 64 
Q 2138 -91 1772 -91 
Q 1169 -91 856 284 
Q 544 659 544 1381 
z
M 1991 3584 
L 1991 3584 
z
" transform="scale(0.015625)"/>
       <path id="DejaVuSans-7a" d="M 353 3500 
L 3084 3500 
L 3084 2975 
L 922 459 
L 3084 459 
L 3084 0 
L 275 0 
L 275 525 
L 2438 3041 
L 353 3041 
L 353 3500 
z
" transform="scale(0.015625)"/>
      </defs>
      <use xlink:href="#DejaVuSans-65"/>
      <use xlink:href="#DejaVuSans-6e" x="61.523438"/>
      <use xlink:href="#DejaVuSans-67" x="124.902344"/>
      <use xlink:href="#DejaVuSans-69" x="188.378906"/>
      <use xlink:href="#DejaVuSans-6e" x="216.162109"/>
      <use xlink:href="#DejaVuSans-65" x="279.541016"/>
      <use xlink:href="#DejaVuSans-5f" x="341.064453"/>
      <use xlink:href="#DejaVuSans-66" x="391.064453"/>
      <use xlink:href="#DejaVuSans-75" x="426.269531"/>
      <use xlink:href="#DejaVuSans-7a" x="489.648438"/>
      <use xlink:href="#DejaVuSans-7a" x="542.138672"/>
      <use xlink:href="#DejaVuSans-65" x="594.628906"/>
      <use xlink:href="#DejaVuSans-72" x="656.152344"/>
     </g>
    </g>
    <g id="line2d_24">
     <path d="M 326.302813 217.944937 
L 336.302813 217.944937 
L 346.302813 217.944937 
" style="fill: none; stroke: #1f77b4; stroke-width: 1.5; stroke-linecap: square"/>
    </g>
    <g id="text_15">
     <!-- v8_fuzzilli -->
     <g transform="translate(354.302813 221.444937)scale(0.1 -0.1)">
      <defs>
       <path id="DejaVuSans-6c" d="M 603 4863 
L 1178 4863 
L 1178 0 
L 603 0 
L 603 4863 
z
" transform="scale(0.015625)"/>
      </defs>
      <use xlink:href="#DejaVuSans-76"/>
      <use xlink:href="#DejaVuSans-38" x="59.179688"/>
      <use xlink:href="#DejaVuSans-5f" x="122.802734"/>
      <use xlink:href="#DejaVuSans-66" x="172.802734"/>
      <use xlink:href="#DejaVuSans-75" x="208.007812"/>
      <use xlink:href="#DejaVuSans-7a" x="271.386719"/>
      <use xlink:href="#DejaVuSans-7a" x="323.876953"/>
      <use xlink:href="#DejaVuSans-69" x="376.367188"/>
      <use xlink:href="#DejaVuSans-6c" x="404.150391"/>
      <use xlink:href="#DejaVuSans-6c" x="431.933594"/>
      <use xlink:href="#DejaVuSans-69" x="459.716797"/>
     </g>
    </g>
    <g id="line2d_25">
     <path d="M 326.302813 232.901187 
L 336.302813 232.901187 
L 346.302813 232.901187 
" style="fill: none; stroke: #ff7f0e; stroke-width: 1.5; stroke-linecap: square"/>
    </g>
    <g id="text_16">
     <!-- v8_fuzzjit -->
     <g transform="translate(354.302813 236.401187)scale(0.1 -0.1)">
      <defs>
       <path id="DejaVuSans-6a" d="M 603 3500 
L 1178 3500 
L 1178 -63 
Q 1178 -731 923 -1031 
Q 669 -1331 103 -1331 
L -116 -1331 
L -116 -844 
L 38 -844 
Q 366 -844 484 -692 
Q 603 -541 603 -63 
L 603 3500 
z
M 603 4863 
L 1178 4863 
L 1178 4134 
L 603 4134 
L 603 4863 
z
" transform="scale(0.015625)"/>
       <path id="DejaVuSans-74" d="M 1172 4494 
L 1172 3500 
L 2356 3500 
L 2356 3053 
L 1172 3053 
L 1172 1153 
Q 1172 725 1289 603 
Q 1406 481 1766 481 
L 2356 481 
L 2356 0 
L 1766 0 
Q 1100 0 847 248 
Q 594 497 594 1153 
L 594 3053 
L 172 3053 
L 172 3500 
L 594 3500 
L 594 4494 
L 1172 4494 
z
" transform="scale(0.015625)"/>
      </defs>
      <use xlink:href="#DejaVuSans-76"/>
      <use xlink:href="#DejaVuSans-38" x="59.179688"/>
      <use xlink:href="#DejaVuSans-5f" x="122.802734"/>
      <use xlink:href="#DejaVuSans-66" x="172.802734"/>
      <use xlink:href="#DejaVuSans-75" x="208.007812"/>
      <use xlink:href="#DejaVuSans-7a" x="271.386719"/>
      <use xlink:href="#DejaVuSans-7a" x="323.876953"/>
      <use xlink:href="#DejaVuSans-6a" x="376.367188"/>
      <use xlink:href="#DejaVuSans-69" x="404.150391"/>
      <use xlink:href="#DejaVuSans-74" x="431.933594"/>
     </g>
    </g>
    <g id="line2d_26">
     <path d="M 326.302813 247.857437 
L 336.302813 247.857437 
L 346.302813 247.857437 
" style="fill: none; stroke: #2ca02c; stroke-width: 1.5; stroke-linecap: square"/>
    </g>
    <g id="text_17">
     <!-- sm_fuzzjit -->
     <g transform="translate(354.302813 251.357437)scale(0.1 -0.1)">
      <defs>
       <path id="DejaVuSans-73" d="M 2834 3397 
L 2834 2853 
Q 2591 2978 2328 3040 
Q 2066 3103 1784 3103 
Q 1356 3103 1142 2972 
Q 928 2841 928 2578 
Q 928 2378 1081 2264 
Q 1234 2150 1697 2047 
L 1894 2003 
Q 2506 1872 2764 1633 
Q 3022 1394 3022 966 
Q 3022 478 2636 193 
Q 2250 -91 1575 -91 
Q 1294 -91 989 -36 
Q 684 19 347 128 
L 347 722 
Q 666 556 975 473 
Q 1284 391 1588 391 
Q 1994 391 2212 530 
Q 2431 669 2431 922 
Q 2431 1156 2273 1281 
Q 2116 1406 1581 1522 
L 1381 1569 
Q 847 1681 609 1914 
Q 372 2147 372 2553 
Q 372 3047 722 3315 
Q 1072 3584 1716 3584 
Q 2034 3584 2315 3537 
Q 2597 3491 2834 3397 
z
" transform="scale(0.015625)"/>
       <path id="DejaVuSans-6d" d="M 3328 2828 
Q 3544 3216 3844 3400 
Q 4144 3584 4550 3584 
Q 5097 3584 5394 3201 
Q 5691 2819 5691 2113 
L 5691 0 
L 5113 0 
L 5113 2094 
Q 5113 2597 4934 2840 
Q 4756 3084 4391 3084 
Q 3944 3084 3684 2787 
Q 3425 2491 3425 1978 
L 3425 0 
L 2847 0 
L 2847 2094 
Q 2847 2600 2669 2842 
Q 2491 3084 2119 3084 
Q 1678 3084 1418 2786 
Q 1159 2488 1159 1978 
L 1159 0 
L 581 0 
L 581 3500 
L 1159 3500 
L 1159 2956 
Q 1356 3278 1631 3431 
Q 1906 3584 2284 3584 
Q 2666 3584 2933 3390 
Q 3200 3197 3328 2828 
z
" transform="scale(0.015625)"/>
      </defs>
      <use xlink:href="#DejaVuSans-73"/>
      <use xlink:href="#DejaVuSans-6d" x="52.099609"/>
      <use xlink:href="#DejaVuSans-5f" x="149.511719"/>
      <use xlink:href="#DejaVuSans-66" x="199.511719"/>
      <use xlink:href="#DejaVuSans-75" x="234.716797"/>
      <use xlink:href="#DejaVuSans-7a" x="298.095703"/>
      <use xlink:href="#DejaVuSans-7a" x="350.585938"/>
      <use xlink:href="#DejaVuSans-6a" x="403.076172"/>
      <use xlink:href="#DejaVuSans-69" x="430.859375"/>
      <use xlink:href="#DejaVuSans-74" x="458.642578"/>
     </g>
    </g>
    <g id="line2d_27">
     <path d="M 326.302813 262.813687 
L 336.302813 262.813687 
L 346.302813 262.813687 
" style="fill: none; stroke: #d62728; stroke-width: 1.5; stroke-linecap: square"/>
    </g>
    <g id="text_18">
     <!-- sm_fuzzilli -->
     <g transform="translate(354.302813 266.313687)scale(0.1 -0.1)">
      <use xlink:href="#DejaVuSans-73"/>
      <use xlink:href="#DejaVuSans-6d" x="52.099609"/>
      <use xlink:href="#DejaVuSans-5f" x="149.511719"/>
      <use xlink:href="#DejaVuSans-66" x="199.511719"/>
      <use xlink:href="#DejaVuSans-75" x="234.716797"/>
      <use xlink:href="#DejaVuSans-7a" x="298.095703"/>
      <use xlink:href="#DejaVuSans-7a" x="350.585938"/>
      <use xlink:href="#DejaVuSans-69" x="403.076172"/>
      <use xlink:href="#DejaVuSans-6c" x="430.859375"/>
      <use xlink:href="#DejaVuSans-6c" x="458.642578"/>
      <use xlink:href="#DejaVuSans-69" x="486.425781"/>
     </g>
    </g>
    <g id="line2d_28">
     <path d="M 326.302813 277.769937 
L 336.302813 277.769937 
L 346.302813 277.769937 
" style="fill: none; stroke: #9467bd; stroke-width: 1.5; stroke-linecap: square"/>
    </g>
    <g id="text_19">
     <!-- jsc_fuzzilli -->
     <g transform="translate(354.302813 281.269937)scale(0.1 -0.1)">
      <use xlink:href="#DejaVuSans-6a"/>
      <use xlink:href="#DejaVuSans-73" x="27.783203"/>
      <use xlink:href="#DejaVuSans-63" x="79.882812"/>
      <use xlink:href="#DejaVuSans-5f" x="134.863281"/>
      <use xlink:href="#DejaVuSans-66" x="184.863281"/>
      <use xlink:href="#DejaVuSans-75" x="220.068359"/>
      <use xlink:href="#DejaVuSans-7a" x="283.447266"/>
      <use xlink:href="#DejaVuSans-7a" x="335.9375"/>
      <use xlink:href="#DejaVuSans-69" x="388.427734"/>
      <use xlink:href="#DejaVuSans-6c" x="416.210938"/>
      <use xlink:href="#DejaVuSans-6c" x="443.994141"/>
      <use xlink:href="#DejaVuSans-69" x="471.777344"/>
     </g>
    </g>
    <g id="line2d_29">
     <path d="M 326.302813 292.726187 
L 336.302813 292.726187 
L 346.302813 292.726187 
" style="fill: none; stroke: #8c564b; stroke-width: 1.5; stroke-linecap: square"/>
    </g>
    <g id="text_20">
     <!-- jsc_fuzzjit -->
     <g transform="translate(354.302813 296.226187)scale(0.1 -0.1)">
      <use xlink:href="#DejaVuSans-6a"/>
      <use xlink:href="#DejaVuSans-73" x="27.783203"/>
      <use xlink:href="#DejaVuSans-63" x="79.882812"/>
      <use xlink:href="#DejaVuSans-5f" x="134.863281"/>
      <use xlink:href="#DejaVuSans-66" x="184.863281"/>
      <use xlink:href="#DejaVuSans-75" x="220.068359"/>
      <use xlink:href="#DejaVuSans-7a" x="283.447266"/>
      <use xlink:href="#DejaVuSans-7a" x="335.9375"/>
      <use xlink:href="#DejaVuSans-6a" x="388.427734"/>
      <use xlink:href="#DejaVuSans-69" x="416.210938"/>
      <use xlink:href="#DejaVuSans-74" x="443.994141"/>
     </g>
    </g>
   </g>
  </g>
 </g>
 <defs>
  <clipPath id="p38ffa5e963">
   <rect x="57.6" y="41.472" width="357.12" height="266.112"/>
  </clipPath>
 </defs>
</svg>
