<?xml version="1.0" encoding="utf-8" standalone="no"?>
<!DOCTYPE svg PUBLIC "-//W3C//DTD SVG 1.1//EN"
  "http://www.w3.org/Graphics/SVG/1.1/DTD/svg11.dtd">
<svg xmlns:xlink="http://www.w3.org/1999/xlink" width="460.8pt" height="345.6pt" viewBox="0 0 460.8 345.6" xmlns="http://www.w3.org/2000/svg" version="1.1">
 <metadata>
  <rdf:RDF xmlns:dc="http://purl.org/dc/elements/1.1/" xmlns:cc="http://creativecommons.org/ns#" xmlns:rdf="http://www.w3.org/1999/02/22-rdf-syntax-ns#">
   <cc:Work>
    <dc:type rdf:resource="http://purl.org/dc/dcmitype/StillImage"/>
    <dc:date>2023-08-03T23:18:46.800943</dc:date>
    <dc:format>image/svg+xml</dc:format>
    <dc:creator>
     <cc:Agent>
      <dc:title>Matplotlib v3.5.1, https://matplotlib.org/</dc:title>
     </cc:Agent>
    </dc:creator>
   </cc:Work>
  </rdf:RDF>
 </metadata>
 <defs>
  <style type="text/css">*{stroke-linejoin: round; stroke-linecap: butt}</style>
 </defs>
 <g id="figure_1">
  <g id="patch_1">
   <path d="M 0 345.6 
L 460.8 345.6 
L 460.8 0 
L 0 0 
z
" style="fill: #ffffff"/>
  </g>
  <g id="axes_1">
   <g id="patch_2">
    <path d="M 57.6 307.584 
L 414.72 307.584 
L 414.72 41.472 
L 57.6 41.472 
z
" style="fill: #ffffff"/>
   </g>
   <g id="PolyCollection_1">
    <defs>
     <path id="mc73f98e67d" d="M 73.832727 -50.112 
L 73.832727 -50.112 
L 76.087273 -201.494914 
L 78.341818 -211.072466 
L 80.596364 -216.868287 
L 82.850909 -220.292849 
L 85.105455 -223.878834 
L 87.36 -226.578243 
L 89.614545 -229.131207 
L 91.869091 -231.664668 
L 94.123636 -233.528881 
L 96.378182 -235.832534 
L 98.632727 -237.473543 
L 100.887273 -239.303433 
L 103.141818 -241.094007 
L 105.396364 -242.740008 
L 107.650909 -243.654407 
L 109.905455 -245.17076 
L 112.16 -246.614255 
L 114.414545 -248.021347 
L 116.669091 -249.152449 
L 118.923636 -250.28116 
L 121.178182 -251.253544 
L 123.432727 -252.285785 
L 125.687273 -253.06804 
L 127.941818 -253.763707 
L 130.196364 -254.482932 
L 132.450909 -255.199141 
L 134.705455 -256.084158 
L 136.96 -256.818256 
L 139.214545 -257.673994 
L 141.469091 -258.453388 
L 143.723636 -259.058827 
L 145.978182 -259.628071 
L 148.232727 -260.310165 
L 150.487273 -260.860895 
L 152.741818 -261.366276 
L 154.996364 -262.079781 
L 157.250909 -262.721571 
L 159.505455 -263.280206 
L 161.76 -263.913779 
L 164.014545 -264.281869 
L 166.269091 -264.612983 
L 168.523636 -265.150191 
L 170.778182 -265.392741 
L 173.032727 -265.816944 
L 175.287273 -266.475584 
L 177.541818 -266.840033 
L 179.796364 -267.170835 
L 182.050909 -267.645846 
L 184.305455 -268.009567 
L 186.56 -268.66363 
L 188.814545 -268.990635 
L 191.069091 -269.473603 
L 193.323636 -269.91866 
L 195.578182 -270.286125 
L 197.832727 -270.700863 
L 200.087273 -271.04451 
L 202.341818 -271.450666 
L 204.596364 -272.04014 
L 206.850909 -272.573552 
L 209.105455 -272.930357 
L 211.36 -273.269375 
L 213.614545 -273.455916 
L 215.869091 -273.834459 
L 218.123636 -274.080077 
L 220.378182 -274.417587 
L 222.632727 -274.770283 
L 224.887273 -274.967745 
L 227.141818 -275.395224 
L 229.396364 -275.70018 
L 231.650909 -275.944082 
L 233.905455 -276.439011 
L 236.16 -276.818905 
L 238.414545 -277.013143 
L 240.669091 -277.286167 
L 242.923636 -277.657377 
L 245.178182 -277.75083 
L 247.432727 -278.121467 
L 249.687273 -278.503338 
L 251.941818 -278.756445 
L 254.196364 -278.942882 
L 256.450909 -279.178931 
L 258.705455 -279.367448 
L 260.96 -279.620035 
L 263.214545 -279.868774 
L 265.469091 -280.148975 
L 267.723636 -280.407438 
L 269.978182 -280.639223 
L 272.232727 -280.812919 
L 274.487273 -281.0446 
L 276.741818 -281.237122 
L 278.996364 -281.391472 
L 281.250909 -281.627989 
L 283.505455 -281.954007 
L 285.76 -282.196713 
L 288.014545 -282.491423 
L 290.269091 -282.772613 
L 292.523636 -282.970959 
L 294.778182 -283.150531 
L 297.032727 -283.441809 
L 299.287273 -283.553411 
L 301.541818 -283.866012 
L 303.796364 -284.14949 
L 306.050909 -284.358184 
L 308.305455 -284.66444 
L 310.56 -284.838396 
L 312.814545 -285.015836 
L 315.069091 -285.276172 
L 317.323636 -285.430626 
L 319.578182 -285.636512 
L 321.832727 -285.781657 
L 324.087273 -285.936684 
L 326.341818 -286.075172 
L 328.596364 -286.243251 
L 330.850909 -286.434681 
L 333.105455 -286.581126 
L 335.36 -286.836469 
L 337.614545 -287.010893 
L 339.869091 -287.125147 
L 342.123636 -287.276273 
L 344.378182 -287.521579 
L 346.632727 -287.617424 
L 348.887273 -287.859766 
L 351.141818 -288.009071 
L 353.396364 -288.129722 
L 355.650909 -288.244913 
L 357.905455 -288.50296 
L 360.16 -288.546488 
L 362.414545 -288.726632 
L 364.669091 -288.87963 
L 366.923636 -288.920506 
L 369.178182 -289.05005 
L 371.432727 -289.236383 
L 373.687273 -289.403266 
L 375.941818 -289.490894 
L 378.196364 -289.673378 
L 380.450909 -289.773071 
L 382.705455 -289.916604 
L 384.96 -290.020718 
L 387.214545 -290.119735 
L 389.469091 -290.253595 
L 391.723636 -290.415121 
L 393.978182 -290.55439 
L 396.232727 -290.704372 
L 398.487273 -290.747016 
L 398.487273 -292.032 
L 398.487273 -292.032 
L 396.232727 -291.926534 
L 393.978182 -291.761471 
L 391.723636 -291.643733 
L 389.469091 -291.536031 
L 387.214545 -291.359111 
L 384.96 -291.27996 
L 382.705455 -291.152964 
L 380.450909 -291.052439 
L 378.196364 -290.92534 
L 375.941818 -290.811917 
L 373.687273 -290.700835 
L 371.432727 -290.496561 
L 369.178182 -290.267948 
L 366.923636 -290.24517 
L 364.669091 -290.090768 
L 362.414545 -290.04828 
L 360.16 -289.846398 
L 357.905455 -289.727463 
L 355.650909 -289.605824 
L 353.396364 -289.418971 
L 351.141818 -289.33618 
L 348.887273 -289.171429 
L 346.632727 -288.982288 
L 344.378182 -288.845359 
L 342.123636 -288.647845 
L 339.869091 -288.448979 
L 337.614545 -288.328276 
L 335.36 -288.187188 
L 333.105455 -287.945418 
L 330.850909 -287.780303 
L 328.596364 -287.577172 
L 326.341818 -287.470407 
L 324.087273 -287.339251 
L 321.832727 -287.210123 
L 319.578182 -287.010789 
L 317.323636 -286.80017 
L 315.069091 -286.703025 
L 312.814545 -286.483981 
L 310.56 -286.349133 
L 308.305455 -286.246996 
L 306.050909 -285.923214 
L 303.796364 -285.779941 
L 301.541818 -285.485075 
L 299.287273 -285.304098 
L 297.032727 -285.13087 
L 294.778182 -284.798144 
L 292.523636 -284.531724 
L 290.269091 -284.395888 
L 288.014545 -284.172216 
L 285.76 -283.900439 
L 283.505455 -283.768139 
L 281.250909 -283.408162 
L 278.996364 -283.238367 
L 276.741818 -283.006166 
L 274.487273 -282.793675 
L 272.232727 -282.643537 
L 269.978182 -282.406135 
L 267.723636 -281.999251 
L 265.469091 -281.746508 
L 263.214545 -281.503906 
L 260.96 -281.214968 
L 258.705455 -281.01787 
L 256.450909 -280.89415 
L 254.196364 -280.573489 
L 251.941818 -280.38336 
L 249.687273 -280.004454 
L 247.432727 -279.712811 
L 245.178182 -279.358503 
L 242.923636 -279.191984 
L 240.669091 -278.976269 
L 238.414545 -278.641306 
L 236.16 -278.37473 
L 233.905455 -278.13634 
L 231.650909 -277.818644 
L 229.396364 -277.428608 
L 227.141818 -277.068684 
L 224.887273 -276.815421 
L 222.632727 -276.596741 
L 220.378182 -276.318048 
L 218.123636 -275.967796 
L 215.869091 -275.692743 
L 213.614545 -275.331778 
L 211.36 -275.050849 
L 209.105455 -274.652129 
L 206.850909 -274.249248 
L 204.596364 -273.875854 
L 202.341818 -273.326268 
L 200.087273 -272.995571 
L 197.832727 -272.721766 
L 195.578182 -272.314413 
L 193.323636 -271.983195 
L 191.069091 -271.378848 
L 188.814545 -271.065468 
L 186.56 -270.633152 
L 184.305455 -270.002231 
L 182.050909 -269.576365 
L 179.796364 -269.097973 
L 177.541818 -268.841018 
L 175.287273 -268.552652 
L 173.032727 -267.814913 
L 170.778182 -267.460605 
L 168.523636 -266.997763 
L 166.269091 -266.615996 
L 164.014545 -266.32165 
L 161.76 -265.819492 
L 159.505455 -265.095118 
L 157.250909 -264.607262 
L 154.996364 -263.908891 
L 152.741818 -263.306156 
L 150.487273 -262.636752 
L 148.232727 -262.20454 
L 145.978182 -261.487603 
L 143.723636 -260.978893 
L 141.469091 -260.195546 
L 139.214545 -259.388433 
L 136.96 -258.47523 
L 134.705455 -257.787 
L 132.450909 -256.961269 
L 130.196364 -256.224466 
L 127.941818 -255.377778 
L 125.687273 -254.638427 
L 123.432727 -253.660166 
L 121.178182 -252.460313 
L 118.923636 -251.417671 
L 116.669091 -250.319019 
L 114.414545 -249.182872 
L 112.16 -247.735997 
L 109.905455 -246.299523 
L 107.650909 -244.843339 
L 105.396364 -243.828935 
L 103.141818 -242.14107 
L 100.887273 -240.37317 
L 98.632727 -238.558621 
L 96.378182 -236.867948 
L 94.123636 -234.72759 
L 91.869091 -232.753751 
L 89.614545 -230.351341 
L 87.36 -227.761454 
L 85.105455 -225.374074 
L 82.850909 -221.653553 
L 80.596364 -218.174125 
L 78.341818 -212.61997 
L 76.087273 -203.014387 
L 73.832727 -50.112 
z
" style="stroke: #1f77b4; stroke-opacity: 0.2"/>
    </defs>
    <g clip-path="url(#pa0e917886f)">
     <use xlink:href="#mc73f98e67d" x="0" y="345.6" style="fill: #1f77b4; fill-opacity: 0.2; stroke: #1f77b4; stroke-opacity: 0.2"/>
    </g>
   </g>
   <g id="PolyCollection_2">
    <defs>
     <path id="mf4a59793e6" d="M 73.832727 -50.112 
L 73.832727 -50.112 
L 76.087273 -227.796246 
L 78.341818 -239.357153 
L 80.596364 -245.584094 
L 82.850909 -249.631725 
L 85.105455 -251.683727 
L 87.36 -253.086242 
L 89.614545 -254.179693 
L 91.869091 -254.846549 
L 94.123636 -255.684761 
L 96.378182 -256.667078 
L 98.632727 -257.71799 
L 100.887273 -258.488752 
L 103.141818 -259.146299 
L 105.396364 -259.886274 
L 107.650909 -260.445117 
L 109.905455 -260.98347 
L 112.16 -261.502997 
L 114.414545 -261.997822 
L 116.669091 -262.5057 
L 118.923636 -263.061994 
L 121.178182 -263.681422 
L 123.432727 -264.219775 
L 125.687273 -264.722921 
L 127.941818 -265.025744 
L 130.196364 -265.478757 
L 132.450909 -265.916949 
L 134.705455 -266.435488 
L 136.96 -266.757397 
L 139.214545 -267.184304 
L 141.469091 -267.466689 
L 143.723636 -267.901449 
L 145.978182 -268.206248 
L 148.232727 -268.563573 
L 150.487273 -268.915489 
L 152.741818 -269.191634 
L 154.996364 -269.597583 
L 157.250909 -269.898482 
L 159.505455 -270.151173 
L 161.76 -270.401263 
L 164.014545 -270.770497 
L 166.269091 -271.149767 
L 168.523636 -271.563881 
L 170.778182 -271.807991 
L 173.032727 -271.982623 
L 175.287273 -272.280454 
L 177.541818 -272.540997 
L 179.796364 -272.803621 
L 182.050909 -273.026461 
L 184.305455 -273.263499 
L 186.56 -273.458516 
L 188.814545 -273.676364 
L 191.069091 -273.957398 
L 193.323636 -274.156836 
L 195.578182 -274.304269 
L 197.832727 -274.578906 
L 200.087273 -274.736116 
L 202.341818 -275.054489 
L 204.596364 -275.255383 
L 206.850909 -275.425543 
L 209.105455 -275.735543 
L 211.36 -275.975857 
L 213.614545 -276.172642 
L 215.869091 -276.49892 
L 218.123636 -276.71682 
L 220.378182 -276.836015 
L 222.632727 -277.006382 
L 224.887273 -277.215181 
L 227.141818 -277.425852 
L 229.396364 -277.62503 
L 231.650909 -277.822648 
L 233.905455 -277.943871 
L 236.16 -278.067538 
L 238.414545 -278.364589 
L 240.669091 -278.537401 
L 242.923636 -278.681714 
L 245.178182 -278.92338 
L 247.432727 -279.087143 
L 249.687273 -279.264427 
L 251.941818 -279.392618 
L 254.196364 -279.532303 
L 256.450909 -279.740478 
L 258.705455 -279.89852 
L 260.96 -280.030976 
L 263.214545 -280.214345 
L 265.469091 -280.327507 
L 267.723636 -280.419503 
L 269.978182 -280.548059 
L 272.232727 -280.677135 
L 274.487273 -280.842094 
L 276.741818 -281.014073 
L 278.996364 -281.097229 
L 281.250909 -281.232441 
L 283.505455 -281.380291 
L 285.76 -281.475771 
L 288.014545 -281.590494 
L 290.269091 -281.803713 
L 292.523636 -281.92244 
L 294.778182 -282.025357 
L 297.032727 -282.21377 
L 299.287273 -282.35023 
L 301.541818 -282.444567 
L 303.796364 -282.526786 
L 306.050909 -282.681448 
L 308.305455 -282.839803 
L 310.56 -282.940484 
L 312.814545 -283.038409 
L 315.069091 -283.172945 
L 317.323636 -283.378364 
L 319.578182 -283.478161 
L 321.832727 -283.57879 
L 324.087273 -283.699753 
L 326.341818 -283.767619 
L 328.596364 -283.938662 
L 330.850909 -284.051981 
L 333.105455 -284.116519 
L 335.36 -284.228641 
L 337.614545 -284.327606 
L 339.869091 -284.432447 
L 342.123636 -284.539837 
L 344.378182 -284.604011 
L 346.632727 -284.717433 
L 348.887273 -284.805321 
L 351.141818 -284.941781 
L 353.396364 -284.981565 
L 355.650909 -285.15058 
L 357.905455 -285.220475 
L 360.16 -285.308259 
L 362.414545 -285.34877 
L 364.669091 -285.473165 
L 366.923636 -285.589032 
L 369.178182 -285.633444 
L 371.432727 -285.730277 
L 373.687273 -285.827318 
L 375.941818 -286.001013 
L 378.196364 -286.106427 
L 380.450909 -286.209396 
L 382.705455 -286.271386 
L 384.96 -286.391257 
L 387.214545 -286.456991 
L 389.469091 -286.563392 
L 391.723636 -286.624082 
L 393.978182 -286.736308 
L 396.232727 -286.798142 
L 398.487273 -286.852487 
L 398.487273 -287.279653 
L 398.487273 -287.279653 
L 396.232727 -287.250427 
L 393.978182 -287.150057 
L 391.723636 -287.058321 
L 389.469091 -286.970069 
L 387.214545 -286.896847 
L 384.96 -286.823936 
L 382.705455 -286.699125 
L 380.450909 -286.662253 
L 378.196364 -286.58617 
L 375.941818 -286.473788 
L 373.687273 -286.359222 
L 371.432727 -286.259841 
L 369.178182 -286.152659 
L 366.923636 -286.10081 
L 364.669091 -286.015575 
L 362.414545 -285.880206 
L 360.16 -285.839487 
L 357.905455 -285.724868 
L 355.650909 -285.652582 
L 353.396364 -285.532347 
L 351.141818 -285.421161 
L 348.887273 -285.30025 
L 346.632727 -285.200037 
L 344.378182 -285.087655 
L 342.123636 -285.022753 
L 339.869091 -284.933773 
L 337.614545 -284.854049 
L 335.36 -284.73007 
L 333.105455 -284.609731 
L 330.850909 -284.505046 
L 328.596364 -284.413517 
L 326.341818 -284.200922 
L 324.087273 -284.091452 
L 321.832727 -283.990719 
L 319.578182 -283.861227 
L 317.323636 -283.762106 
L 315.069091 -283.568493 
L 312.814545 -283.441809 
L 310.56 -283.321418 
L 308.305455 -283.213821 
L 306.050909 -283.056662 
L 303.796364 -282.89394 
L 301.541818 -282.818325 
L 299.287273 -282.728045 
L 297.032727 -282.605054 
L 294.778182 -282.425897 
L 292.523636 -282.309667 
L 290.269091 -282.180279 
L 288.014545 -282.028373 
L 285.76 -281.880472 
L 283.505455 -281.812034 
L 281.250909 -281.661688 
L 278.996364 -281.510874 
L 276.741818 -281.434687 
L 274.487273 -281.298539 
L 272.232727 -281.144189 
L 269.978182 -280.989267 
L 267.723636 -280.876521 
L 265.469091 -280.761018 
L 263.214545 -280.634335 
L 260.96 -280.45029 
L 258.705455 -280.285331 
L 256.450909 -280.123753 
L 254.196364 -279.8954 
L 251.941818 -279.753167 
L 249.687273 -279.664447 
L 247.432727 -279.463501 
L 245.178182 -279.315287 
L 242.923636 -279.142112 
L 240.669091 -278.94647 
L 238.414545 -278.797268 
L 236.16 -278.545566 
L 233.905455 -278.401877 
L 231.650909 -278.23723 
L 229.396364 -278.051469 
L 227.141818 -277.924941 
L 224.887273 -277.723423 
L 222.632727 -277.493042 
L 220.378182 -277.323923 
L 218.123636 -277.186214 
L 215.869091 -277.005498 
L 213.614545 -276.745786 
L 211.36 -276.529603 
L 209.105455 -276.34561 
L 206.850909 -275.991874 
L 204.596364 -275.814122 
L 202.341818 -275.618428 
L 200.087273 -275.340567 
L 197.832727 -275.135981 
L 195.578182 -274.933318 
L 193.323636 -274.744697 
L 191.069091 -274.551292 
L 188.814545 -274.233335 
L 186.56 -274.032961 
L 184.305455 -273.853804 
L 182.050909 -273.581092 
L 179.796364 -273.402559 
L 177.541818 -273.127766 
L 175.287273 -272.921464 
L 173.032727 -272.636894 
L 170.778182 -272.445049 
L 168.523636 -272.219712 
L 166.269091 -271.79629 
L 164.014545 -271.394033 
L 161.76 -271.106031 
L 159.505455 -270.863845 
L 157.250909 -270.659259 
L 154.996364 -270.357839 
L 152.741818 -270.000775 
L 150.487273 -269.713449 
L 148.232727 -269.224241 
L 145.978182 -268.916737 
L 143.723636 -268.626082 
L 141.469091 -268.234851 
L 139.214545 -267.960006 
L 136.96 -267.505745 
L 134.705455 -267.128243 
L 132.450909 -266.676166 
L 130.196364 -266.240574 
L 127.941818 -265.800458 
L 125.687273 -265.467784 
L 123.432727 -264.961206 
L 121.178182 -264.43367 
L 118.923636 -263.803789 
L 116.669091 -263.239798 
L 114.414545 -262.77134 
L 112.16 -262.336216 
L 109.905455 -261.765465 
L 107.650909 -261.225448 
L 105.396364 -260.637222 
L 103.141818 -259.92637 
L 100.887273 -259.271943 
L 98.632727 -258.402476 
L 96.378182 -257.471331 
L 94.123636 -256.426401 
L 91.869091 -255.584756 
L 89.614545 -254.867299 
L 87.36 -253.845199 
L 85.105455 -252.429214 
L 82.850909 -250.300609 
L 80.596364 -246.209087 
L 78.341818 -240.107581 
L 76.087273 -228.605231 
L 73.832727 -50.112 
z
" style="stroke: #ff7f0e; stroke-opacity: 0.2"/>
    </defs>
    <g clip-path="url(#pa0e917886f)">
     <use xlink:href="#mf4a59793e6" x="0" y="345.6" style="fill: #ff7f0e; fill-opacity: 0.2; stroke: #ff7f0e; stroke-opacity: 0.2"/>
    </g>
   </g>
   <g id="matplotlib.axis_1">
    <g id="xtick_1">
     <g id="line2d_1">
      <defs>
       <path id="m8054741afa" d="M 0 0 
L 0 3.5 
" style="stroke: #000000; stroke-width: 0.8"/>
      </defs>
      <g>
       <use xlink:href="#m8054741afa" x="73.832727" y="307.584" style="stroke: #000000; stroke-width: 0.8"/>
      </g>
     </g>
     <g id="text_1">
      <!-- 0 -->
      <g transform="translate(70.651477 322.182437)scale(0.1 -0.1)">
       <defs>
        <path id="DejaVuSans-30" d="M 2034 4250 
Q 1547 4250 1301 3770 
Q 1056 3291 1056 2328 
Q 1056 1369 1301 889 
Q 1547 409 2034 409 
Q 2525 409 2770 889 
Q 3016 1369 3016 2328 
Q 3016 3291 2770 3770 
Q 2525 4250 2034 4250 
z
M 2034 4750 
Q 2819 4750 3233 4129 
Q 3647 3509 3647 2328 
Q 3647 1150 3233 529 
Q 2819 -91 2034 -91 
Q 1250 -91 836 529 
Q 422 1150 422 2328 
Q 422 3509 836 4129 
Q 1250 4750 2034 4750 
z
" transform="scale(0.015625)"/>
       </defs>
       <use xlink:href="#DejaVuSans-30"/>
      </g>
     </g>
    </g>
    <g id="xtick_2">
     <g id="line2d_2">
      <g>
       <use xlink:href="#m8054741afa" x="148.984242" y="307.584" style="stroke: #000000; stroke-width: 0.8"/>
      </g>
     </g>
     <g id="text_2">
      <!-- 20000 -->
      <g transform="translate(133.077992 322.182437)scale(0.1 -0.1)">
       <defs>
        <path id="DejaVuSans-32" d="M 1228 531 
L 3431 531 
L 3431 0 
L 469 0 
L 469 531 
Q 828 903 1448 1529 
Q 2069 2156 2228 2338 
Q 2531 2678 2651 2914 
Q 2772 3150 2772 3378 
Q 2772 3750 2511 3984 
Q 2250 4219 1831 4219 
Q 1534 4219 1204 4116 
Q 875 4013 500 3803 
L 500 4441 
Q 881 4594 1212 4672 
Q 1544 4750 1819 4750 
Q 2544 4750 2975 4387 
Q 3406 4025 3406 3419 
Q 3406 3131 3298 2873 
Q 3191 2616 2906 2266 
Q 2828 2175 2409 1742 
Q 1991 1309 1228 531 
z
" transform="scale(0.015625)"/>
       </defs>
       <use xlink:href="#DejaVuSans-32"/>
       <use xlink:href="#DejaVuSans-30" x="63.623047"/>
       <use xlink:href="#DejaVuSans-30" x="127.246094"/>
       <use xlink:href="#DejaVuSans-30" x="190.869141"/>
       <use xlink:href="#DejaVuSans-30" x="254.492188"/>
      </g>
     </g>
    </g>
    <g id="xtick_3">
     <g id="line2d_3">
      <g>
       <use xlink:href="#m8054741afa" x="224.135758" y="307.584" style="stroke: #000000; stroke-width: 0.8"/>
      </g>
     </g>
     <g id="text_3">
      <!-- 40000 -->
      <g transform="translate(208.229508 322.182437)scale(0.1 -0.1)">
       <defs>
        <path id="DejaVuSans-34" d="M 2419 4116 
L 825 1625 
L 2419 1625 
L 2419 4116 
z
M 2253 4666 
L 3047 4666 
L 3047 1625 
L 3713 1625 
L 3713 1100 
L 3047 1100 
L 3047 0 
L 2419 0 
L 2419 1100 
L 313 1100 
L 313 1709 
L 2253 4666 
z
" transform="scale(0.015625)"/>
       </defs>
       <use xlink:href="#DejaVuSans-34"/>
       <use xlink:href="#DejaVuSans-30" x="63.623047"/>
       <use xlink:href="#DejaVuSans-30" x="127.246094"/>
       <use xlink:href="#DejaVuSans-30" x="190.869141"/>
       <use xlink:href="#DejaVuSans-30" x="254.492188"/>
      </g>
     </g>
    </g>
    <g id="xtick_4">
     <g id="line2d_4">
      <g>
       <use xlink:href="#m8054741afa" x="299.287273" y="307.584" style="stroke: #000000; stroke-width: 0.8"/>
      </g>
     </g>
     <g id="text_4">
      <!-- 60000 -->
      <g transform="translate(283.381023 322.182437)scale(0.1 -0.1)">
       <defs>
        <path id="DejaVuSans-36" d="M 2113 2584 
Q 1688 2584 1439 2293 
Q 1191 2003 1191 1497 
Q 1191 994 1439 701 
Q 1688 409 2113 409 
Q 2538 409 2786 701 
Q 3034 994 3034 1497 
Q 3034 2003 2786 2293 
Q 2538 2584 2113 2584 
z
M 3366 4563 
L 3366 3988 
Q 3128 4100 2886 4159 
Q 2644 4219 2406 4219 
Q 1781 4219 1451 3797 
Q 1122 3375 1075 2522 
Q 1259 2794 1537 2939 
Q 1816 3084 2150 3084 
Q 2853 3084 3261 2657 
Q 3669 2231 3669 1497 
Q 3669 778 3244 343 
Q 2819 -91 2113 -91 
Q 1303 -91 875 529 
Q 447 1150 447 2328 
Q 447 3434 972 4092 
Q 1497 4750 2381 4750 
Q 2619 4750 2861 4703 
Q 3103 4656 3366 4563 
z
" transform="scale(0.015625)"/>
       </defs>
       <use xlink:href="#DejaVuSans-36"/>
       <use xlink:href="#DejaVuSans-30" x="63.623047"/>
       <use xlink:href="#DejaVuSans-30" x="127.246094"/>
       <use xlink:href="#DejaVuSans-30" x="190.869141"/>
       <use xlink:href="#DejaVuSans-30" x="254.492188"/>
      </g>
     </g>
    </g>
    <g id="xtick_5">
     <g id="line2d_5">
      <g>
       <use xlink:href="#m8054741afa" x="374.438788" y="307.584" style="stroke: #000000; stroke-width: 0.8"/>
      </g>
     </g>
     <g id="text_5">
      <!-- 80000 -->
      <g transform="translate(358.532538 322.182437)scale(0.1 -0.1)">
       <defs>
        <path id="DejaVuSans-38" d="M 2034 2216 
Q 1584 2216 1326 1975 
Q 1069 1734 1069 1313 
Q 1069 891 1326 650 
Q 1584 409 2034 409 
Q 2484 409 2743 651 
Q 3003 894 3003 1313 
Q 3003 1734 2745 1975 
Q 2488 2216 2034 2216 
z
M 1403 2484 
Q 997 2584 770 2862 
Q 544 3141 544 3541 
Q 544 4100 942 4425 
Q 1341 4750 2034 4750 
Q 2731 4750 3128 4425 
Q 3525 4100 3525 3541 
Q 3525 3141 3298 2862 
Q 3072 2584 2669 2484 
Q 3125 2378 3379 2068 
Q 3634 1759 3634 1313 
Q 3634 634 3220 271 
Q 2806 -91 2034 -91 
Q 1263 -91 848 271 
Q 434 634 434 1313 
Q 434 1759 690 2068 
Q 947 2378 1403 2484 
z
M 1172 3481 
Q 1172 3119 1398 2916 
Q 1625 2713 2034 2713 
Q 2441 2713 2670 2916 
Q 2900 3119 2900 3481 
Q 2900 3844 2670 4047 
Q 2441 4250 2034 4250 
Q 1625 4250 1398 4047 
Q 1172 3844 1172 3481 
z
" transform="scale(0.015625)"/>
       </defs>
       <use xlink:href="#DejaVuSans-38"/>
       <use xlink:href="#DejaVuSans-30" x="63.623047"/>
       <use xlink:href="#DejaVuSans-30" x="127.246094"/>
       <use xlink:href="#DejaVuSans-30" x="190.869141"/>
       <use xlink:href="#DejaVuSans-30" x="254.492188"/>
      </g>
     </g>
    </g>
    <g id="text_6">
     <!-- epoch -->
     <g transform="translate(220.931875 335.860562)scale(0.1 -0.1)">
      <defs>
       <path id="DejaVuSans-65" d="M 3597 1894 
L 3597 1613 
L 953 1613 
Q 991 1019 1311 708 
Q 1631 397 2203 397 
Q 2534 397 2845 478 
Q 3156 559 3463 722 
L 3463 178 
Q 3153 47 2828 -22 
Q 2503 -91 2169 -91 
Q 1331 -91 842 396 
Q 353 884 353 1716 
Q 353 2575 817 3079 
Q 1281 3584 2069 3584 
Q 2775 3584 3186 3129 
Q 3597 2675 3597 1894 
z
M 3022 2063 
Q 3016 2534 2758 2815 
Q 2500 3097 2075 3097 
Q 1594 3097 1305 2825 
Q 1016 2553 972 2059 
L 3022 2063 
z
" transform="scale(0.015625)"/>
       <path id="DejaVuSans-70" d="M 1159 525 
L 1159 -1331 
L 581 -1331 
L 581 3500 
L 1159 3500 
L 1159 2969 
Q 1341 3281 1617 3432 
Q 1894 3584 2278 3584 
Q 2916 3584 3314 3078 
Q 3713 2572 3713 1747 
Q 3713 922 3314 415 
Q 2916 -91 2278 -91 
Q 1894 -91 1617 61 
Q 1341 213 1159 525 
z
M 3116 1747 
Q 3116 2381 2855 2742 
Q 2594 3103 2138 3103 
Q 1681 3103 1420 2742 
Q 1159 2381 1159 1747 
Q 1159 1113 1420 752 
Q 1681 391 2138 391 
Q 2594 391 2855 752 
Q 3116 1113 3116 1747 
z
" transform="scale(0.015625)"/>
       <path id="DejaVuSans-6f" d="M 1959 3097 
Q 1497 3097 1228 2736 
Q 959 2375 959 1747 
Q 959 1119 1226 758 
Q 1494 397 1959 397 
Q 2419 397 2687 759 
Q 2956 1122 2956 1747 
Q 2956 2369 2687 2733 
Q 2419 3097 1959 3097 
z
M 1959 3584 
Q 2709 3584 3137 3096 
Q 3566 2609 3566 1747 
Q 3566 888 3137 398 
Q 2709 -91 1959 -91 
Q 1206 -91 779 398 
Q 353 888 353 1747 
Q 353 2609 779 3096 
Q 1206 3584 1959 3584 
z
" transform="scale(0.015625)"/>
       <path id="DejaVuSans-63" d="M 3122 3366 
L 3122 2828 
Q 2878 2963 2633 3030 
Q 2388 3097 2138 3097 
Q 1578 3097 1268 2742 
Q 959 2388 959 1747 
Q 959 1106 1268 751 
Q 1578 397 2138 397 
Q 2388 397 2633 464 
Q 2878 531 3122 666 
L 3122 134 
Q 2881 22 2623 -34 
Q 2366 -91 2075 -91 
Q 1284 -91 818 406 
Q 353 903 353 1747 
Q 353 2603 823 3093 
Q 1294 3584 2113 3584 
Q 2378 3584 2631 3529 
Q 2884 3475 3122 3366 
z
" transform="scale(0.015625)"/>
       <path id="DejaVuSans-68" d="M 3513 2113 
L 3513 0 
L 2938 0 
L 2938 2094 
Q 2938 2591 2744 2837 
Q 2550 3084 2163 3084 
Q 1697 3084 1428 2787 
Q 1159 2491 1159 1978 
L 1159 0 
L 581 0 
L 581 4863 
L 1159 4863 
L 1159 2956 
Q 1366 3272 1645 3428 
Q 1925 3584 2291 3584 
Q 2894 3584 3203 3211 
Q 3513 2838 3513 2113 
z
" transform="scale(0.015625)"/>
      </defs>
      <use xlink:href="#DejaVuSans-65"/>
      <use xlink:href="#DejaVuSans-70" x="61.523438"/>
      <use xlink:href="#DejaVuSans-6f" x="125"/>
      <use xlink:href="#DejaVuSans-63" x="186.181641"/>
      <use xlink:href="#DejaVuSans-68" x="241.162109"/>
     </g>
    </g>
   </g>
   <g id="matplotlib.axis_2">
    <g id="ytick_1">
     <g id="line2d_6">
      <defs>
       <path id="mc0f7baae23" d="M 0 0 
L -3.5 0 
" style="stroke: #000000; stroke-width: 0.8"/>
      </defs>
      <g>
       <use xlink:href="#mc0f7baae23" x="57.6" y="295.488" style="stroke: #000000; stroke-width: 0.8"/>
      </g>
     </g>
     <g id="text_7">
      <!-- 0 -->
      <g transform="translate(44.2375 299.287219)scale(0.1 -0.1)">
       <use xlink:href="#DejaVuSans-30"/>
      </g>
     </g>
    </g>
    <g id="ytick_2">
     <g id="line2d_7">
      <g>
       <use xlink:href="#mc0f7baae23" x="57.6" y="243.483286" style="stroke: #000000; stroke-width: 0.8"/>
      </g>
     </g>
     <g id="text_8">
      <!-- 20000 -->
      <g transform="translate(18.7875 247.282505)scale(0.1 -0.1)">
       <use xlink:href="#DejaVuSans-32"/>
       <use xlink:href="#DejaVuSans-30" x="63.623047"/>
       <use xlink:href="#DejaVuSans-30" x="127.246094"/>
       <use xlink:href="#DejaVuSans-30" x="190.869141"/>
       <use xlink:href="#DejaVuSans-30" x="254.492188"/>
      </g>
     </g>
    </g>
    <g id="ytick_3">
     <g id="line2d_8">
      <g>
       <use xlink:href="#mc0f7baae23" x="57.6" y="191.478572" style="stroke: #000000; stroke-width: 0.8"/>
      </g>
     </g>
     <g id="text_9">
      <!-- 40000 -->
      <g transform="translate(18.7875 195.277791)scale(0.1 -0.1)">
       <use xlink:href="#DejaVuSans-34"/>
       <use xlink:href="#DejaVuSans-30" x="63.623047"/>
       <use xlink:href="#DejaVuSans-30" x="127.246094"/>
       <use xlink:href="#DejaVuSans-30" x="190.869141"/>
       <use xlink:href="#DejaVuSans-30" x="254.492188"/>
      </g>
     </g>
    </g>
    <g id="ytick_4">
     <g id="line2d_9">
      <g>
       <use xlink:href="#mc0f7baae23" x="57.6" y="139.473859" style="stroke: #000000; stroke-width: 0.8"/>
      </g>
     </g>
     <g id="text_10">
      <!-- 60000 -->
      <g transform="translate(18.7875 143.273077)scale(0.1 -0.1)">
       <use xlink:href="#DejaVuSans-36"/>
       <use xlink:href="#DejaVuSans-30" x="63.623047"/>
       <use xlink:href="#DejaVuSans-30" x="127.246094"/>
       <use xlink:href="#DejaVuSans-30" x="190.869141"/>
       <use xlink:href="#DejaVuSans-30" x="254.492188"/>
      </g>
     </g>
    </g>
    <g id="ytick_5">
     <g id="line2d_10">
      <g>
       <use xlink:href="#mc0f7baae23" x="57.6" y="87.469145" style="stroke: #000000; stroke-width: 0.8"/>
      </g>
     </g>
     <g id="text_11">
      <!-- 80000 -->
      <g transform="translate(18.7875 91.268364)scale(0.1 -0.1)">
       <use xlink:href="#DejaVuSans-38"/>
       <use xlink:href="#DejaVuSans-30" x="63.623047"/>
       <use xlink:href="#DejaVuSans-30" x="127.246094"/>
       <use xlink:href="#DejaVuSans-30" x="190.869141"/>
       <use xlink:href="#DejaVuSans-30" x="254.492188"/>
      </g>
     </g>
    </g>
    <g id="text_12">
     <!-- coverage -->
     <g transform="translate(12.707812 197.742844)rotate(-90)scale(0.1 -0.1)">
      <defs>
       <path id="DejaVuSans-76" d="M 191 3500 
L 800 3500 
L 1894 563 
L 2988 3500 
L 3597 3500 
L 2284 0 
L 1503 0 
L 191 3500 
z
" transform="scale(0.015625)"/>
       <path id="DejaVuSans-72" d="M 2631 2963 
Q 2534 3019 2420 3045 
Q 2306 3072 2169 3072 
Q 1681 3072 1420 2755 
Q 1159 2438 1159 1844 
L 1159 0 
L 581 0 
L 581 3500 
L 1159 3500 
L 1159 2956 
Q 1341 3275 1631 3429 
Q 1922 3584 2338 3584 
Q 2397 3584 2469 3576 
Q 2541 3569 2628 3553 
L 2631 2963 
z
" transform="scale(0.015625)"/>
       <path id="DejaVuSans-61" d="M 2194 1759 
Q 1497 1759 1228 1600 
Q 959 1441 959 1056 
Q 959 750 1161 570 
Q 1363 391 1709 391 
Q 2188 391 2477 730 
Q 2766 1069 2766 1631 
L 2766 1759 
L 2194 1759 
z
M 3341 1997 
L 3341 0 
L 2766 0 
L 2766 531 
Q 2569 213 2275 61 
Q 1981 -91 1556 -91 
Q 1019 -91 701 211 
Q 384 513 384 1019 
Q 384 1609 779 1909 
Q 1175 2209 1959 2209 
L 2766 2209 
L 2766 2266 
Q 2766 2663 2505 2880 
Q 2244 3097 1772 3097 
Q 1472 3097 1187 3025 
Q 903 2953 641 2809 
L 641 3341 
Q 956 3463 1253 3523 
Q 1550 3584 1831 3584 
Q 2591 3584 2966 3190 
Q 3341 2797 3341 1997 
z
" transform="scale(0.015625)"/>
       <path id="DejaVuSans-67" d="M 2906 1791 
Q 2906 2416 2648 2759 
Q 2391 3103 1925 3103 
Q 1463 3103 1205 2759 
Q 947 2416 947 1791 
Q 947 1169 1205 825 
Q 1463 481 1925 481 
Q 2391 481 2648 825 
Q 2906 1169 2906 1791 
z
M 3481 434 
Q 3481 -459 3084 -895 
Q 2688 -1331 1869 -1331 
Q 1566 -1331 1297 -1286 
Q 1028 -1241 775 -1147 
L 775 -588 
Q 1028 -725 1275 -790 
Q 1522 -856 1778 -856 
Q 2344 -856 2625 -561 
Q 2906 -266 2906 331 
L 2906 616 
Q 2728 306 2450 153 
Q 2172 0 1784 0 
Q 1141 0 747 490 
Q 353 981 353 1791 
Q 353 2603 747 3093 
Q 1141 3584 1784 3584 
Q 2172 3584 2450 3431 
Q 2728 3278 2906 2969 
L 2906 3500 
L 3481 3500 
L 3481 434 
z
" transform="scale(0.015625)"/>
      </defs>
      <use xlink:href="#DejaVuSans-63"/>
      <use xlink:href="#DejaVuSans-6f" x="54.980469"/>
      <use xlink:href="#DejaVuSans-76" x="116.162109"/>
      <use xlink:href="#DejaVuSans-65" x="175.341797"/>
      <use xlink:href="#DejaVuSans-72" x="236.865234"/>
      <use xlink:href="#DejaVuSans-61" x="277.978516"/>
      <use xlink:href="#DejaVuSans-67" x="339.257812"/>
      <use xlink:href="#DejaVuSans-65" x="402.734375"/>
     </g>
    </g>
   </g>
   <g id="line2d_11">
    <path d="M 73.832727 295.488 
L 76.087273 143.364591 
L 78.341818 133.761661 
L 80.596364 128.078066 
L 82.850909 124.636394 
L 85.105455 120.967461 
L 91.869091 113.391414 
L 94.123636 111.479201 
L 96.378182 109.227137 
L 98.632727 107.567927 
L 103.141818 104.003004 
L 105.396364 102.320391 
L 107.650909 101.31748 
L 114.414545 96.967286 
L 123.432727 92.638153 
L 127.941818 90.993244 
L 136.96 88.006354 
L 139.214545 87.067408 
L 141.469091 86.271996 
L 152.741818 83.248962 
L 154.996364 82.664429 
L 157.250909 81.949885 
L 164.014545 80.3549 
L 170.778182 79.108087 
L 173.032727 78.69543 
L 175.287273 78.169662 
L 184.305455 76.551275 
L 188.814545 75.61155 
L 197.832727 73.894354 
L 200.087273 73.591167 
L 209.105455 71.817026 
L 213.614545 71.132904 
L 222.632727 69.919634 
L 224.887273 69.693674 
L 229.396364 69.043355 
L 231.650909 68.796332 
L 236.16 68.036283 
L 263.214545 64.897019 
L 265.469091 64.69082 
L 269.978182 64.083145 
L 276.741818 63.469229 
L 288.014545 62.277541 
L 290.269091 61.996456 
L 292.523636 61.827961 
L 297.032727 61.316754 
L 301.541818 60.909817 
L 310.56 59.955271 
L 317.323636 59.457066 
L 326.341818 58.827809 
L 357.905455 56.51958 
L 378.196364 55.298249 
L 389.469091 54.699415 
L 398.487273 54.21135 
L 398.487273 54.21135 
" clip-path="url(#pa0e917886f)" style="fill: none; stroke: #1f77b4; stroke-width: 1.5; stroke-linecap: square"/>
   </g>
   <g id="line2d_12">
    <path d="M 73.832727 295.488 
L 76.087273 117.386677 
L 78.341818 105.869973 
L 80.596364 99.699613 
L 82.850909 95.637005 
L 85.105455 93.531334 
L 87.36 92.143589 
L 89.614545 91.103494 
L 91.869091 90.373348 
L 94.123636 89.526191 
L 98.632727 87.539351 
L 100.887273 86.696875 
L 109.905455 84.210269 
L 125.687273 80.509874 
L 127.941818 80.175744 
L 136.96 78.448927 
L 143.723636 77.342787 
L 148.232727 76.70885 
L 150.487273 76.27799 
L 166.269091 74.127596 
L 168.523636 73.700897 
L 182.050909 72.29625 
L 191.069091 71.354184 
L 206.850909 69.887391 
L 209.105455 69.555861 
L 231.650909 67.580722 
L 236.16 67.272854 
L 240.669091 66.861497 
L 265.469091 65.054593 
L 288.014545 63.788018 
L 292.523636 63.492632 
L 321.832727 61.81704 
L 393.978182 58.650733 
L 398.487273 58.532682 
L 398.487273 58.532682 
" clip-path="url(#pa0e917886f)" style="fill: none; stroke: #ff7f0e; stroke-width: 1.5; stroke-linecap: square"/>
   </g>
   <g id="line2d_13"/>
   <g id="line2d_14"/>
   <g id="patch_3">
    <path d="M 57.6 307.584 
L 57.6 41.472 
" style="fill: none; stroke: #000000; stroke-width: 0.8; stroke-linejoin: miter; stroke-linecap: square"/>
   </g>
   <g id="patch_4">
    <path d="M 57.6 307.584 
L 414.72 307.584 
" style="fill: none; stroke: #000000; stroke-width: 0.8; stroke-linejoin: miter; stroke-linecap: square"/>
   </g>
   <g id="legend_1">
    <g id="patch_5">
     <path d="M 344.252813 302.584 
L 407.72 302.584 
Q 409.72 302.584 409.72 300.584 
L 409.72 257.549625 
Q 409.72 255.549625 407.72 255.549625 
L 344.252813 255.549625 
Q 342.252813 255.549625 342.252813 257.549625 
L 342.252813 300.584 
Q 342.252813 302.584 344.252813 302.584 
z
" style="fill: #ffffff; opacity: 0.8; stroke: #cccccc; stroke-linejoin: miter"/>
    </g>
    <g id="text_13">
     <!-- fuzzer -->
     <g transform="translate(360.677031 267.148062)scale(0.1 -0.1)">
      <defs>
       <path id="DejaVuSans-66" d="M 2375 4863 
L 2375 4384 
L 1825 4384 
Q 1516 4384 1395 4259 
Q 1275 4134 1275 3809 
L 1275 3500 
L 2222 3500 
L 2222 3053 
L 1275 3053 
L 1275 0 
L 697 0 
L 697 3053 
L 147 3053 
L 147 3500 
L 697 3500 
L 697 3744 
Q 697 4328 969 4595 
Q 1241 4863 1831 4863 
L 2375 4863 
z
" transform="scale(0.015625)"/>
       <path id="DejaVuSans-75" d="M 544 1381 
L 544 3500 
L 1119 3500 
L 1119 1403 
Q 1119 906 1312 657 
Q 1506 409 1894 409 
Q 2359 409 2629 706 
Q 2900 1003 2900 1516 
L 2900 3500 
L 3475 3500 
L 3475 0 
L 2900 0 
L 2900 538 
Q 2691 219 2414 64 
Q 2138 -91 1772 -91 
Q 1169 -91 856 284 
Q 544 659 544 1381 
z
M 1991 3584 
L 1991 3584 
z
" transform="scale(0.015625)"/>
       <path id="DejaVuSans-7a" d="M 353 3500 
L 3084 3500 
L 3084 2975 
L 922 459 
L 3084 459 
L 3084 0 
L 275 0 
L 275 525 
L 2438 3041 
L 353 3041 
L 353 3500 
z
" transform="scale(0.015625)"/>
      </defs>
      <use xlink:href="#DejaVuSans-66"/>
      <use xlink:href="#DejaVuSans-75" x="35.205078"/>
      <use xlink:href="#DejaVuSans-7a" x="98.583984"/>
      <use xlink:href="#DejaVuSans-7a" x="151.074219"/>
      <use xlink:href="#DejaVuSans-65" x="203.564453"/>
      <use xlink:href="#DejaVuSans-72" x="265.087891"/>
     </g>
    </g>
    <g id="line2d_15">
     <path d="M 346.252813 278.326188 
L 356.252813 278.326188 
L 366.252813 278.326188 
" style="fill: none; stroke: #1f77b4; stroke-width: 1.5; stroke-linecap: square"/>
    </g>
    <g id="text_14">
     <!-- fuzzilli -->
     <g transform="translate(374.252813 281.826188)scale(0.1 -0.1)">
      <defs>
       <path id="DejaVuSans-69" d="M 603 3500 
L 1178 3500 
L 1178 0 
L 603 0 
L 603 3500 
z
M 603 4863 
L 1178 4863 
L 1178 4134 
L 603 4134 
L 603 4863 
z
" transform="scale(0.015625)"/>
       <path id="DejaVuSans-6c" d="M 603 4863 
L 1178 4863 
L 1178 0 
L 603 0 
L 603 4863 
z
" transform="scale(0.015625)"/>
      </defs>
      <use xlink:href="#DejaVuSans-66"/>
      <use xlink:href="#DejaVuSans-75" x="35.205078"/>
      <use xlink:href="#DejaVuSans-7a" x="98.583984"/>
      <use xlink:href="#DejaVuSans-7a" x="151.074219"/>
      <use xlink:href="#DejaVuSans-69" x="203.564453"/>
      <use xlink:href="#DejaVuSans-6c" x="231.347656"/>
      <use xlink:href="#DejaVuSans-6c" x="259.130859"/>
      <use xlink:href="#DejaVuSans-69" x="286.914062"/>
     </g>
    </g>
    <g id="line2d_16">
     <path d="M 346.252813 293.004312 
L 356.252813 293.004312 
L 366.252813 293.004312 
" style="fill: none; stroke: #ff7f0e; stroke-width: 1.5; stroke-linecap: square"/>
    </g>
    <g id="text_15">
     <!-- fuzzjit -->
     <g transform="translate(374.252813 296.504312)scale(0.1 -0.1)">
      <defs>
       <path id="DejaVuSans-6a" d="M 603 3500 
L 1178 3500 
L 1178 -63 
Q 1178 -731 923 -1031 
Q 669 -1331 103 -1331 
L -116 -1331 
L -116 -844 
L 38 -844 
Q 366 -844 484 -692 
Q 603 -541 603 -63 
L 603 3500 
z
M 603 4863 
L 1178 4863 
L 1178 4134 
L 603 4134 
L 603 4863 
z
" transform="scale(0.015625)"/>
       <path id="DejaVuSans-74" d="M 1172 4494 
L 1172 3500 
L 2356 3500 
L 2356 3053 
L 1172 3053 
L 1172 1153 
Q 1172 725 1289 603 
Q 1406 481 1766 481 
L 2356 481 
L 2356 0 
L 1766 0 
Q 1100 0 847 248 
Q 594 497 594 1153 
L 594 3053 
L 172 3053 
L 172 3500 
L 594 3500 
L 594 4494 
L 1172 4494 
z
" transform="scale(0.015625)"/>
      </defs>
      <use xlink:href="#DejaVuSans-66"/>
      <use xlink:href="#DejaVuSans-75" x="35.205078"/>
      <use xlink:href="#DejaVuSans-7a" x="98.583984"/>
      <use xlink:href="#DejaVuSans-7a" x="151.074219"/>
      <use xlink:href="#DejaVuSans-6a" x="203.564453"/>
      <use xlink:href="#DejaVuSans-69" x="231.347656"/>
      <use xlink:href="#DejaVuSans-74" x="259.130859"/>
     </g>
    </g>
   </g>
  </g>
 </g>
 <defs>
  <clipPath id="pa0e917886f">
   <rect x="57.6" y="41.472" width="357.12" height="266.112"/>
  </clipPath>
 </defs>
</svg>
