<?xml version="1.0" encoding="utf-8" standalone="no"?>
<!DOCTYPE svg PUBLIC "-//W3C//DTD SVG 1.1//EN"
  "http://www.w3.org/Graphics/SVG/1.1/DTD/svg11.dtd">
<svg xmlns:xlink="http://www.w3.org/1999/xlink" width="460.8pt" height="345.6pt" viewBox="0 0 460.8 345.6" xmlns="http://www.w3.org/2000/svg" version="1.1">
 <metadata>
  <rdf:RDF xmlns:dc="http://purl.org/dc/elements/1.1/" xmlns:cc="http://creativecommons.org/ns#" xmlns:rdf="http://www.w3.org/1999/02/22-rdf-syntax-ns#">
   <cc:Work>
    <dc:type rdf:resource="http://purl.org/dc/dcmitype/StillImage"/>
    <dc:date>2023-08-03T23:18:39.525685</dc:date>
    <dc:format>image/svg+xml</dc:format>
    <dc:creator>
     <cc:Agent>
      <dc:title>Matplotlib v3.5.1, https://matplotlib.org/</dc:title>
     </cc:Agent>
    </dc:creator>
   </cc:Work>
  </rdf:RDF>
 </metadata>
 <defs>
  <style type="text/css">*{stroke-linejoin: round; stroke-linecap: butt}</style>
 </defs>
 <g id="figure_1">
  <g id="patch_1">
   <path d="M 0 345.6 
L 460.8 345.6 
L 460.8 0 
L 0 0 
z
" style="fill: #ffffff"/>
  </g>
  <g id="axes_1">
   <g id="patch_2">
    <path d="M 57.6 307.584 
L 414.72 307.584 
L 414.72 41.472 
L 57.6 41.472 
z
" style="fill: #ffffff"/>
   </g>
   <g id="PolyCollection_1">
    <defs>
     <path id="mdab4e97081" d="M 73.832727 -50.112 
L 73.832727 -50.112 
L 76.087273 -207.078887 
L 78.341818 -214.398395 
L 80.596364 -218.123188 
L 82.850909 -221.385375 
L 85.105455 -223.826302 
L 87.36 -225.491248 
L 89.614545 -226.914466 
L 91.869091 -228.3038 
L 94.123636 -229.220466 
L 96.378182 -230.064698 
L 98.632727 -230.939056 
L 100.887273 -231.595627 
L 103.141818 -232.317298 
L 105.396364 -232.80718 
L 107.650909 -233.511091 
L 109.905455 -234.100623 
L 112.16 -234.65809 
L 114.414545 -235.028927 
L 116.669091 -235.883342 
L 118.923636 -236.399532 
L 121.178182 -236.870745 
L 123.432727 -237.300438 
L 125.687273 -237.705643 
L 127.941818 -238.140245 
L 130.196364 -238.487867 
L 132.450909 -239.021088 
L 134.705455 -239.33816 
L 136.96 -239.647231 
L 139.214545 -240.038798 
L 141.469091 -240.303378 
L 143.723636 -240.64118 
L 145.978182 -240.90667 
L 148.232727 -241.31836 
L 150.487273 -241.548087 
L 152.741818 -241.846854 
L 154.996364 -242.145075 
L 157.250909 -242.406685 
L 159.505455 -242.66775 
L 161.76 -242.921238 
L 164.014545 -243.221277 
L 166.269091 -243.429001 
L 168.523636 -243.658365 
L 170.778182 -243.876091 
L 173.032727 -244.094544 
L 175.287273 -244.267475 
L 177.541818 -244.489686 
L 179.796364 -244.615642 
L 182.050909 -244.797485 
L 184.305455 -245.067035 
L 186.56 -245.271244 
L 188.814545 -245.438842 
L 191.069091 -245.639777 
L 193.323636 -245.89775 
L 195.578182 -246.02013 
L 197.832727 -246.278285 
L 200.087273 -246.516074 
L 202.341818 -246.67949 
L 204.596364 -246.848178 
L 206.850909 -247.052811 
L 209.105455 -247.197315 
L 211.36 -247.406494 
L 213.614545 -247.685622 
L 215.869091 -247.920259 
L 218.123636 -248.142773 
L 220.378182 -248.385169 
L 222.632727 -248.529733 
L 224.887273 -248.79304 
L 227.141818 -248.963366 
L 229.396364 -249.118174 
L 231.650909 -249.416759 
L 233.905455 -249.682976 
L 236.16 -249.865606 
L 238.414545 -250.160372 
L 240.669091 -250.480777 
L 242.923636 -250.666741 
L 245.178182 -250.857797 
L 247.432727 -251.060005 
L 249.687273 -251.249545 
L 251.941818 -251.485031 
L 254.196364 -251.726517 
L 256.450909 -251.990249 
L 258.705455 -252.311079 
L 260.96 -252.695069 
L 263.214545 -253.057541 
L 265.469091 -253.405101 
L 267.723636 -253.633859 
L 269.978182 -253.776362 
L 272.232727 -254.105497 
L 274.487273 -254.402202 
L 276.741818 -254.71588 
L 278.996364 -255.013859 
L 281.250909 -255.320808 
L 283.505455 -255.420094 
L 285.76 -255.627454 
L 288.014545 -255.782687 
L 290.269091 -255.814085 
L 292.523636 -256.022112 
L 294.778182 -256.255658 
L 297.032727 -256.342761 
L 299.287273 -256.593036 
L 301.541818 -256.818096 
L 303.796364 -256.954659 
L 306.050909 -257.088495 
L 308.305455 -257.379685 
L 310.56 -257.525704 
L 312.814545 -257.685604 
L 315.069091 -257.798649 
L 317.323636 -257.881023 
L 319.578182 -258.015102 
L 321.832727 -258.215674 
L 324.087273 -258.287016 
L 326.341818 -258.369512 
L 328.596364 -258.545959 
L 330.850909 -258.611423 
L 333.105455 -258.752047 
L 335.36 -258.797447 
L 337.614545 -258.939769 
L 339.869091 -259.09779 
L 342.123636 -259.17877 
L 344.378182 -259.322304 
L 346.632727 -259.399163 
L 348.887273 -259.537363 
L 351.141818 -259.578216 
L 353.396364 -259.683685 
L 355.650909 -259.662652 
L 357.905455 -259.839705 
L 360.16 -259.848797 
L 362.414545 -259.99215 
L 364.669091 -260.035974 
L 366.923636 -260.075555 
L 369.178182 -260.282551 
L 371.432727 -260.304615 
L 373.687273 -260.375109 
L 375.941818 -260.492155 
L 378.196364 -260.55683 
L 380.450909 -260.631688 
L 382.705455 -260.651024 
L 384.96 -260.719397 
L 387.214545 -260.766312 
L 389.469091 -260.846383 
L 391.723636 -260.864083 
L 393.978182 -260.905239 
L 396.232727 -261.003798 
L 398.487273 -261.04447 
L 398.487273 -261.964106 
L 398.487273 -261.964106 
L 396.232727 -261.947073 
L 393.978182 -261.868881 
L 391.723636 -261.811783 
L 389.469091 -261.764686 
L 387.214545 -261.701405 
L 384.96 -261.682917 
L 382.705455 -261.619273 
L 380.450909 -261.592724 
L 378.196364 -261.48677 
L 375.941818 -261.422459 
L 373.687273 -261.305595 
L 371.432727 -261.277652 
L 369.178182 -261.219463 
L 366.923636 -261.127632 
L 364.669091 -261.080838 
L 362.414545 -261.003616 
L 360.16 -260.888268 
L 357.905455 -260.862143 
L 355.650909 -260.761524 
L 353.396364 -260.749461 
L 351.141818 -260.683392 
L 348.887273 -260.662905 
L 346.632727 -260.511612 
L 344.378182 -260.409841 
L 342.123636 -260.312677 
L 339.869091 -260.239879 
L 337.614545 -260.079131 
L 335.36 -259.984027 
L 333.105455 -259.847585 
L 330.850909 -259.822491 
L 328.596364 -259.651802 
L 326.341818 -259.61604 
L 324.087273 -259.466868 
L 321.832727 -259.361703 
L 319.578182 -259.137371 
L 317.323636 -259.01099 
L 315.069091 -258.915038 
L 312.814545 -258.762897 
L 310.56 -258.618939 
L 308.305455 -258.395879 
L 306.050909 -258.142331 
L 303.796364 -258.00013 
L 301.541818 -257.883509 
L 299.287273 -257.724154 
L 297.032727 -257.434419 
L 294.778182 -257.377442 
L 292.523636 -257.130804 
L 290.269091 -256.924958 
L 288.014545 -256.911744 
L 285.76 -256.80761 
L 283.505455 -256.573094 
L 281.250909 -256.503933 
L 278.996364 -256.248385 
L 276.741818 -255.967438 
L 274.487273 -255.594965 
L 272.232727 -255.370633 
L 269.978182 -255.011252 
L 267.723636 -254.921846 
L 265.469091 -254.637021 
L 263.214545 -254.341588 
L 260.96 -253.955841 
L 258.705455 -253.627494 
L 256.450909 -253.296057 
L 254.196364 -252.968559 
L 251.941818 -252.820964 
L 249.687273 -252.470191 
L 247.432727 -252.273377 
L 245.178182 -252.032618 
L 242.923636 -251.733366 
L 240.669091 -251.629232 
L 238.414545 -251.289914 
L 236.16 -251.024182 
L 233.905455 -250.769058 
L 231.650909 -250.536239 
L 229.396364 -250.2402 
L 227.141818 -250.083816 
L 224.887273 -249.886336 
L 222.632727 -249.58072 
L 220.378182 -249.397302 
L 218.123636 -249.002765 
L 215.869091 -248.854503 
L 213.614545 -248.611926 
L 211.36 -248.330252 
L 209.105455 -248.133378 
L 206.850909 -247.988025 
L 204.596364 -247.737023 
L 202.341818 -247.594398 
L 200.087273 -247.401948 
L 197.832727 -247.158522 
L 195.578182 -246.899215 
L 193.323636 -246.745256 
L 191.069091 -246.56008 
L 188.814545 -246.384542 
L 186.56 -246.167362 
L 184.305455 -245.952849 
L 182.050909 -245.768158 
L 179.796364 -245.517458 
L 177.541818 -245.366347 
L 175.287273 -245.133407 
L 173.032727 -244.943746 
L 170.778182 -244.76936 
L 168.523636 -244.475563 
L 166.269091 -244.32324 
L 164.014545 -244.071631 
L 161.76 -243.724919 
L 159.505455 -243.414757 
L 157.250909 -243.159815 
L 154.996364 -242.858987 
L 152.741818 -242.637382 
L 150.487273 -242.311582 
L 148.232727 -242.077309 
L 145.978182 -241.65689 
L 143.723636 -241.388188 
L 141.469091 -241.084511 
L 139.214545 -240.837812 
L 136.96 -240.467764 
L 134.705455 -240.105898 
L 132.450909 -239.695965 
L 130.196364 -239.163228 
L 127.941818 -238.800878 
L 125.687273 -238.396824 
L 123.432727 -238.027988 
L 121.178182 -237.540894 
L 118.923636 -237.056951 
L 116.669091 -236.625622 
L 114.414545 -236.060457 
L 112.16 -235.645554 
L 109.905455 -235.064447 
L 107.650909 -234.498797 
L 105.396364 -233.806281 
L 103.141818 -233.336765 
L 100.887273 -232.566967 
L 98.632727 -231.983981 
L 96.378182 -231.127323 
L 94.123636 -230.303699 
L 91.869091 -229.496927 
L 89.614545 -228.142809 
L 87.36 -226.904949 
L 85.105455 -225.378082 
L 82.850909 -223.140939 
L 80.596364 -219.926759 
L 78.341818 -216.01776 
L 76.087273 -207.843533 
L 73.832727 -50.112 
z
" style="stroke: #1f77b4; stroke-opacity: 0.2"/>
    </defs>
    <g clip-path="url(#p3bdfba8d1c)">
     <use xlink:href="#mdab4e97081" x="0" y="345.6" style="fill: #1f77b4; fill-opacity: 0.2; stroke: #1f77b4; stroke-opacity: 0.2"/>
    </g>
   </g>
   <g id="PolyCollection_2">
    <defs>
     <path id="mc810b79235" d="M 73.832727 -50.112 
L 73.832727 -50.112 
L 76.087273 -195.802859 
L 78.341818 -206.334971 
L 80.596364 -211.553961 
L 82.850909 -215.495024 
L 85.105455 -218.027903 
L 87.36 -220.614122 
L 89.614545 -222.400236 
L 91.869091 -224.855104 
L 94.123636 -226.204736 
L 96.378182 -227.355978 
L 98.632727 -230.331461 
L 100.887273 -231.962766 
L 103.141818 -233.012601 
L 105.396364 -233.978001 
L 107.650909 -235.804605 
L 109.905455 -237.22958 
L 112.16 -239.018603 
L 114.414545 -240.163057 
L 116.669091 -241.14361 
L 118.923636 -241.778481 
L 121.178182 -242.565858 
L 123.432727 -243.393845 
L 125.687273 -244.910227 
L 127.941818 -245.835864 
L 130.196364 -246.417031 
L 132.450909 -247.07639 
L 134.705455 -248.550827 
L 136.96 -249.241463 
L 139.214545 -249.86706 
L 141.469091 -250.574123 
L 143.723636 -251.082735 
L 145.978182 -252.021222 
L 148.232727 -252.598389 
L 150.487273 -253.41086 
L 152.741818 -253.976752 
L 154.996364 -254.646841 
L 157.250909 -255.183517 
L 159.505455 -255.810206 
L 161.76 -256.409194 
L 164.014545 -257.31798 
L 166.269091 -257.927878 
L 168.523636 -258.204339 
L 170.778182 -258.507409 
L 173.032727 -259.216654 
L 175.287273 -259.668046 
L 177.541818 -260.646478 
L 179.796364 -261.006222 
L 182.050909 -261.376514 
L 184.305455 -261.939194 
L 186.56 -262.1985 
L 188.814545 -262.664804 
L 191.069091 -263.662935 
L 193.323636 -264.123542 
L 195.578182 -264.52808 
L 197.832727 -265.03948 
L 200.087273 -265.295211 
L 202.341818 -265.576884 
L 204.596364 -265.855042 
L 206.850909 -266.518584 
L 209.105455 -266.743765 
L 211.36 -267.326266 
L 213.614545 -268.618557 
L 215.869091 -269.095044 
L 218.123636 -269.511099 
L 220.378182 -269.773618 
L 222.632727 -270.704346 
L 224.887273 -271.064515 
L 227.141818 -271.624831 
L 229.396364 -271.760788 
L 231.650909 -271.974453 
L 233.905455 -273.127695 
L 236.16 -273.555509 
L 238.414545 -273.790267 
L 240.669091 -274.072486 
L 242.923636 -274.37889 
L 245.178182 -274.806522 
L 247.432727 -274.795612 
L 249.687273 -274.967695 
L 251.941818 -275.469519 
L 254.196364 -275.657846 
L 256.450909 -276.118089 
L 258.705455 -276.475227 
L 260.96 -276.649856 
L 263.214545 -276.71835 
L 265.469091 -277.011661 
L 267.723636 -277.067486 
L 269.978182 -277.537184 
L 272.232727 -277.697448 
L 274.487273 -277.754122 
L 276.741818 -278.125686 
L 278.996364 -278.469428 
L 281.250909 -278.402814 
L 283.505455 -278.809534 
L 285.76 -278.957553 
L 288.014545 -279.228558 
L 290.269091 -280.281849 
L 292.523636 -280.39653 
L 294.778182 -280.947815 
L 297.032727 -281.240823 
L 299.287273 -281.407148 
L 301.541818 -281.759134 
L 303.796364 -282.146154 
L 306.050909 -282.870977 
L 308.305455 -283.256361 
L 310.56 -283.475359 
L 312.814545 -283.496817 
L 315.069091 -283.754487 
L 317.323636 -284.136598 
L 319.578182 -284.186726 
L 321.832727 -284.507798 
L 324.087273 -284.702915 
L 326.341818 -284.764135 
L 328.596364 -285.045687 
L 330.850909 -285.157278 
L 333.105455 -285.319602 
L 335.36 -285.483381 
L 337.614545 -285.622005 
L 339.869091 -285.664556 
L 342.123636 -286.012117 
L 344.378182 -286.030968 
L 346.632727 -286.23845 
L 348.887273 -286.53849 
L 351.141818 -286.653838 
L 353.396364 -286.817435 
L 355.650909 -286.926359 
L 357.905455 -287.228944 
L 360.16 -287.347323 
L 362.414545 -287.535772 
L 364.669091 -287.617662 
L 366.923636 -287.723191 
L 369.178182 -287.891152 
L 371.432727 -288.120213 
L 373.687273 -288.100331 
L 375.941818 -288.199738 
L 378.196364 -288.445043 
L 380.450909 -288.453893 
L 382.705455 -288.840914 
L 384.96 -289.018573 
L 387.214545 -289.162471 
L 389.469091 -289.226479 
L 391.723636 -289.257817 
L 393.978182 -289.759641 
L 396.232727 -289.839227 
L 398.487273 -290.055679 
L 398.487273 -292.032 
L 398.487273 -292.032 
L 396.232727 -291.767602 
L 393.978182 -291.674983 
L 391.723636 -291.492596 
L 389.469091 -291.289781 
L 387.214545 -291.252746 
L 384.96 -291.125517 
L 382.705455 -290.950646 
L 380.450909 -290.656183 
L 378.196364 -290.60163 
L 375.941818 -290.411484 
L 373.687273 -290.295166 
L 371.432727 -290.336201 
L 369.178182 -290.10314 
L 366.923636 -289.981185 
L 364.669091 -289.8662 
L 362.414545 -289.687389 
L 360.16 -289.521852 
L 357.905455 -289.42693 
L 355.650909 -289.307884 
L 353.396364 -289.084279 
L 351.141818 -288.923894 
L 348.887273 -288.817577 
L 346.632727 -288.646464 
L 344.378182 -288.358668 
L 342.123636 -288.269323 
L 339.869091 -288.053295 
L 337.614545 -288.012623 
L 335.36 -287.860542 
L 333.105455 -287.753134 
L 330.850909 -287.527529 
L 328.596364 -287.425394 
L 326.341818 -287.164451 
L 324.087273 -287.036979 
L 321.832727 -287.072984 
L 319.578182 -286.497696 
L 317.323636 -286.418898 
L 315.069091 -286.027756 
L 312.814545 -285.77845 
L 310.56 -285.564786 
L 308.305455 -285.520356 
L 306.050909 -284.94725 
L 303.796364 -284.347595 
L 301.541818 -284.104897 
L 299.287273 -283.763943 
L 297.032727 -283.525184 
L 294.778182 -283.349585 
L 292.523636 -282.612034 
L 290.269091 -282.630945 
L 288.014545 -281.94831 
L 285.76 -281.711734 
L 283.505455 -281.558865 
L 281.250909 -281.506191 
L 278.996364 -281.321561 
L 276.741818 -281.033463 
L 274.487273 -280.745606 
L 272.232727 -280.63244 
L 269.978182 -280.452477 
L 267.723636 -280.296456 
L 265.469091 -279.994902 
L 263.214545 -279.918589 
L 260.96 -279.572361 
L 258.705455 -279.443738 
L 256.450909 -279.222558 
L 254.196364 -278.846023 
L 251.941818 -278.668606 
L 249.687273 -278.352746 
L 247.432727 -278.220729 
L 245.178182 -277.966211 
L 242.923636 -277.502877 
L 240.669091 -277.368677 
L 238.414545 -277.046393 
L 236.16 -276.698892 
L 233.905455 -276.471953 
L 231.650909 -275.46376 
L 229.396364 -275.316468 
L 227.141818 -274.906414 
L 224.887273 -274.118553 
L 222.632727 -273.853912 
L 220.378182 -272.836566 
L 218.123636 -272.408268 
L 215.869091 -272.152779 
L 213.614545 -271.75703 
L 211.36 -270.393093 
L 209.105455 -269.914849 
L 206.850909 -269.520191 
L 204.596364 -269.012245 
L 202.341818 -268.544729 
L 200.087273 -268.249781 
L 197.832727 -267.892158 
L 195.578182 -267.518533 
L 193.323636 -267.000587 
L 191.069091 -266.572106 
L 188.814545 -265.145555 
L 186.56 -264.679978 
L 184.305455 -264.086628 
L 182.050909 -263.75416 
L 179.796364 -263.239546 
L 177.541818 -262.890955 
L 175.287273 -261.870821 
L 173.032727 -261.264559 
L 170.778182 -260.76116 
L 168.523636 -260.31498 
L 166.269091 -260.01288 
L 164.014545 -259.344428 
L 161.76 -258.092385 
L 159.505455 -257.524977 
L 157.250909 -256.813732 
L 154.996364 -256.196196 
L 152.741818 -255.489982 
L 150.487273 -255.043074 
L 148.232727 -254.217693 
L 145.978182 -253.705808 
L 143.723636 -252.062258 
L 141.469091 -251.566011 
L 139.214545 -250.822944 
L 136.96 -250.186193 
L 134.705455 -249.36651 
L 132.450909 -248.468028 
L 130.196364 -247.762238 
L 127.941818 -247.092574 
L 125.687273 -246.269072 
L 123.432727 -244.943989 
L 121.178182 -244.13964 
L 118.923636 -243.391966 
L 116.669091 -242.647626 
L 114.414545 -241.707624 
L 112.16 -240.494737 
L 109.905455 -238.898163 
L 107.650909 -237.656545 
L 105.396364 -235.851035 
L 103.141818 -234.953766 
L 100.887273 -234.106563 
L 98.632727 -232.200313 
L 96.378182 -228.929519 
L 94.123636 -227.628317 
L 91.869091 -226.193704 
L 89.614545 -223.649673 
L 87.36 -221.967452 
L 85.105455 -219.704548 
L 82.850909 -216.939881 
L 80.596364 -213.098406 
L 78.341818 -207.730731 
L 76.087273 -198.026485 
L 73.832727 -50.112 
z
" style="stroke: #ff7f0e; stroke-opacity: 0.2"/>
    </defs>
    <g clip-path="url(#p3bdfba8d1c)">
     <use xlink:href="#mc810b79235" x="0" y="345.6" style="fill: #ff7f0e; fill-opacity: 0.2; stroke: #ff7f0e; stroke-opacity: 0.2"/>
    </g>
   </g>
   <g id="matplotlib.axis_1">
    <g id="xtick_1">
     <g id="line2d_1">
      <defs>
       <path id="m6315c56432" d="M 0 0 
L 0 3.5 
" style="stroke: #000000; stroke-width: 0.8"/>
      </defs>
      <g>
       <use xlink:href="#m6315c56432" x="73.832727" y="307.584" style="stroke: #000000; stroke-width: 0.8"/>
      </g>
     </g>
     <g id="text_1">
      <!-- 0 -->
      <g transform="translate(70.651477 322.182437)scale(0.1 -0.1)">
       <defs>
        <path id="DejaVuSans-30" d="M 2034 4250 
Q 1547 4250 1301 3770 
Q 1056 3291 1056 2328 
Q 1056 1369 1301 889 
Q 1547 409 2034 409 
Q 2525 409 2770 889 
Q 3016 1369 3016 2328 
Q 3016 3291 2770 3770 
Q 2525 4250 2034 4250 
z
M 2034 4750 
Q 2819 4750 3233 4129 
Q 3647 3509 3647 2328 
Q 3647 1150 3233 529 
Q 2819 -91 2034 -91 
Q 1250 -91 836 529 
Q 422 1150 422 2328 
Q 422 3509 836 4129 
Q 1250 4750 2034 4750 
z
" transform="scale(0.015625)"/>
       </defs>
       <use xlink:href="#DejaVuSans-30"/>
      </g>
     </g>
    </g>
    <g id="xtick_2">
     <g id="line2d_2">
      <g>
       <use xlink:href="#m6315c56432" x="148.984242" y="307.584" style="stroke: #000000; stroke-width: 0.8"/>
      </g>
     </g>
     <g id="text_2">
      <!-- 20000 -->
      <g transform="translate(133.077992 322.182437)scale(0.1 -0.1)">
       <defs>
        <path id="DejaVuSans-32" d="M 1228 531 
L 3431 531 
L 3431 0 
L 469 0 
L 469 531 
Q 828 903 1448 1529 
Q 2069 2156 2228 2338 
Q 2531 2678 2651 2914 
Q 2772 3150 2772 3378 
Q 2772 3750 2511 3984 
Q 2250 4219 1831 4219 
Q 1534 4219 1204 4116 
Q 875 4013 500 3803 
L 500 4441 
Q 881 4594 1212 4672 
Q 1544 4750 1819 4750 
Q 2544 4750 2975 4387 
Q 3406 4025 3406 3419 
Q 3406 3131 3298 2873 
Q 3191 2616 2906 2266 
Q 2828 2175 2409 1742 
Q 1991 1309 1228 531 
z
" transform="scale(0.015625)"/>
       </defs>
       <use xlink:href="#DejaVuSans-32"/>
       <use xlink:href="#DejaVuSans-30" x="63.623047"/>
       <use xlink:href="#DejaVuSans-30" x="127.246094"/>
       <use xlink:href="#DejaVuSans-30" x="190.869141"/>
       <use xlink:href="#DejaVuSans-30" x="254.492188"/>
      </g>
     </g>
    </g>
    <g id="xtick_3">
     <g id="line2d_3">
      <g>
       <use xlink:href="#m6315c56432" x="224.135758" y="307.584" style="stroke: #000000; stroke-width: 0.8"/>
      </g>
     </g>
     <g id="text_3">
      <!-- 40000 -->
      <g transform="translate(208.229508 322.182437)scale(0.1 -0.1)">
       <defs>
        <path id="DejaVuSans-34" d="M 2419 4116 
L 825 1625 
L 2419 1625 
L 2419 4116 
z
M 2253 4666 
L 3047 4666 
L 3047 1625 
L 3713 1625 
L 3713 1100 
L 3047 1100 
L 3047 0 
L 2419 0 
L 2419 1100 
L 313 1100 
L 313 1709 
L 2253 4666 
z
" transform="scale(0.015625)"/>
       </defs>
       <use xlink:href="#DejaVuSans-34"/>
       <use xlink:href="#DejaVuSans-30" x="63.623047"/>
       <use xlink:href="#DejaVuSans-30" x="127.246094"/>
       <use xlink:href="#DejaVuSans-30" x="190.869141"/>
       <use xlink:href="#DejaVuSans-30" x="254.492188"/>
      </g>
     </g>
    </g>
    <g id="xtick_4">
     <g id="line2d_4">
      <g>
       <use xlink:href="#m6315c56432" x="299.287273" y="307.584" style="stroke: #000000; stroke-width: 0.8"/>
      </g>
     </g>
     <g id="text_4">
      <!-- 60000 -->
      <g transform="translate(283.381023 322.182437)scale(0.1 -0.1)">
       <defs>
        <path id="DejaVuSans-36" d="M 2113 2584 
Q 1688 2584 1439 2293 
Q 1191 2003 1191 1497 
Q 1191 994 1439 701 
Q 1688 409 2113 409 
Q 2538 409 2786 701 
Q 3034 994 3034 1497 
Q 3034 2003 2786 2293 
Q 2538 2584 2113 2584 
z
M 3366 4563 
L 3366 3988 
Q 3128 4100 2886 4159 
Q 2644 4219 2406 4219 
Q 1781 4219 1451 3797 
Q 1122 3375 1075 2522 
Q 1259 2794 1537 2939 
Q 1816 3084 2150 3084 
Q 2853 3084 3261 2657 
Q 3669 2231 3669 1497 
Q 3669 778 3244 343 
Q 2819 -91 2113 -91 
Q 1303 -91 875 529 
Q 447 1150 447 2328 
Q 447 3434 972 4092 
Q 1497 4750 2381 4750 
Q 2619 4750 2861 4703 
Q 3103 4656 3366 4563 
z
" transform="scale(0.015625)"/>
       </defs>
       <use xlink:href="#DejaVuSans-36"/>
       <use xlink:href="#DejaVuSans-30" x="63.623047"/>
       <use xlink:href="#DejaVuSans-30" x="127.246094"/>
       <use xlink:href="#DejaVuSans-30" x="190.869141"/>
       <use xlink:href="#DejaVuSans-30" x="254.492188"/>
      </g>
     </g>
    </g>
    <g id="xtick_5">
     <g id="line2d_5">
      <g>
       <use xlink:href="#m6315c56432" x="374.438788" y="307.584" style="stroke: #000000; stroke-width: 0.8"/>
      </g>
     </g>
     <g id="text_5">
      <!-- 80000 -->
      <g transform="translate(358.532538 322.182437)scale(0.1 -0.1)">
       <defs>
        <path id="DejaVuSans-38" d="M 2034 2216 
Q 1584 2216 1326 1975 
Q 1069 1734 1069 1313 
Q 1069 891 1326 650 
Q 1584 409 2034 409 
Q 2484 409 2743 651 
Q 3003 894 3003 1313 
Q 3003 1734 2745 1975 
Q 2488 2216 2034 2216 
z
M 1403 2484 
Q 997 2584 770 2862 
Q 544 3141 544 3541 
Q 544 4100 942 4425 
Q 1341 4750 2034 4750 
Q 2731 4750 3128 4425 
Q 3525 4100 3525 3541 
Q 3525 3141 3298 2862 
Q 3072 2584 2669 2484 
Q 3125 2378 3379 2068 
Q 3634 1759 3634 1313 
Q 3634 634 3220 271 
Q 2806 -91 2034 -91 
Q 1263 -91 848 271 
Q 434 634 434 1313 
Q 434 1759 690 2068 
Q 947 2378 1403 2484 
z
M 1172 3481 
Q 1172 3119 1398 2916 
Q 1625 2713 2034 2713 
Q 2441 2713 2670 2916 
Q 2900 3119 2900 3481 
Q 2900 3844 2670 4047 
Q 2441 4250 2034 4250 
Q 1625 4250 1398 4047 
Q 1172 3844 1172 3481 
z
" transform="scale(0.015625)"/>
       </defs>
       <use xlink:href="#DejaVuSans-38"/>
       <use xlink:href="#DejaVuSans-30" x="63.623047"/>
       <use xlink:href="#DejaVuSans-30" x="127.246094"/>
       <use xlink:href="#DejaVuSans-30" x="190.869141"/>
       <use xlink:href="#DejaVuSans-30" x="254.492188"/>
      </g>
     </g>
    </g>
    <g id="text_6">
     <!-- epoch -->
     <g transform="translate(220.931875 335.860562)scale(0.1 -0.1)">
      <defs>
       <path id="DejaVuSans-65" d="M 3597 1894 
L 3597 1613 
L 953 1613 
Q 991 1019 1311 708 
Q 1631 397 2203 397 
Q 2534 397 2845 478 
Q 3156 559 3463 722 
L 3463 178 
Q 3153 47 2828 -22 
Q 2503 -91 2169 -91 
Q 1331 -91 842 396 
Q 353 884 353 1716 
Q 353 2575 817 3079 
Q 1281 3584 2069 3584 
Q 2775 3584 3186 3129 
Q 3597 2675 3597 1894 
z
M 3022 2063 
Q 3016 2534 2758 2815 
Q 2500 3097 2075 3097 
Q 1594 3097 1305 2825 
Q 1016 2553 972 2059 
L 3022 2063 
z
" transform="scale(0.015625)"/>
       <path id="DejaVuSans-70" d="M 1159 525 
L 1159 -1331 
L 581 -1331 
L 581 3500 
L 1159 3500 
L 1159 2969 
Q 1341 3281 1617 3432 
Q 1894 3584 2278 3584 
Q 2916 3584 3314 3078 
Q 3713 2572 3713 1747 
Q 3713 922 3314 415 
Q 2916 -91 2278 -91 
Q 1894 -91 1617 61 
Q 1341 213 1159 525 
z
M 3116 1747 
Q 3116 2381 2855 2742 
Q 2594 3103 2138 3103 
Q 1681 3103 1420 2742 
Q 1159 2381 1159 1747 
Q 1159 1113 1420 752 
Q 1681 391 2138 391 
Q 2594 391 2855 752 
Q 3116 1113 3116 1747 
z
" transform="scale(0.015625)"/>
       <path id="DejaVuSans-6f" d="M 1959 3097 
Q 1497 3097 1228 2736 
Q 959 2375 959 1747 
Q 959 1119 1226 758 
Q 1494 397 1959 397 
Q 2419 397 2687 759 
Q 2956 1122 2956 1747 
Q 2956 2369 2687 2733 
Q 2419 3097 1959 3097 
z
M 1959 3584 
Q 2709 3584 3137 3096 
Q 3566 2609 3566 1747 
Q 3566 888 3137 398 
Q 2709 -91 1959 -91 
Q 1206 -91 779 398 
Q 353 888 353 1747 
Q 353 2609 779 3096 
Q 1206 3584 1959 3584 
z
" transform="scale(0.015625)"/>
       <path id="DejaVuSans-63" d="M 3122 3366 
L 3122 2828 
Q 2878 2963 2633 3030 
Q 2388 3097 2138 3097 
Q 1578 3097 1268 2742 
Q 959 2388 959 1747 
Q 959 1106 1268 751 
Q 1578 397 2138 397 
Q 2388 397 2633 464 
Q 2878 531 3122 666 
L 3122 134 
Q 2881 22 2623 -34 
Q 2366 -91 2075 -91 
Q 1284 -91 818 406 
Q 353 903 353 1747 
Q 353 2603 823 3093 
Q 1294 3584 2113 3584 
Q 2378 3584 2631 3529 
Q 2884 3475 3122 3366 
z
" transform="scale(0.015625)"/>
       <path id="DejaVuSans-68" d="M 3513 2113 
L 3513 0 
L 2938 0 
L 2938 2094 
Q 2938 2591 2744 2837 
Q 2550 3084 2163 3084 
Q 1697 3084 1428 2787 
Q 1159 2491 1159 1978 
L 1159 0 
L 581 0 
L 581 4863 
L 1159 4863 
L 1159 2956 
Q 1366 3272 1645 3428 
Q 1925 3584 2291 3584 
Q 2894 3584 3203 3211 
Q 3513 2838 3513 2113 
z
" transform="scale(0.015625)"/>
      </defs>
      <use xlink:href="#DejaVuSans-65"/>
      <use xlink:href="#DejaVuSans-70" x="61.523438"/>
      <use xlink:href="#DejaVuSans-6f" x="125"/>
      <use xlink:href="#DejaVuSans-63" x="186.181641"/>
      <use xlink:href="#DejaVuSans-68" x="241.162109"/>
     </g>
    </g>
   </g>
   <g id="matplotlib.axis_2">
    <g id="ytick_1">
     <g id="line2d_6">
      <defs>
       <path id="m36af6d0814" d="M 0 0 
L -3.5 0 
" style="stroke: #000000; stroke-width: 0.8"/>
      </defs>
      <g>
       <use xlink:href="#m36af6d0814" x="57.6" y="295.488" style="stroke: #000000; stroke-width: 0.8"/>
      </g>
     </g>
     <g id="text_7">
      <!-- 0 -->
      <g transform="translate(44.2375 299.287219)scale(0.1 -0.1)">
       <use xlink:href="#DejaVuSans-30"/>
      </g>
     </g>
    </g>
    <g id="ytick_2">
     <g id="line2d_7">
      <g>
       <use xlink:href="#m36af6d0814" x="57.6" y="265.180984" style="stroke: #000000; stroke-width: 0.8"/>
      </g>
     </g>
     <g id="text_8">
      <!-- 10000 -->
      <g transform="translate(18.7875 268.980202)scale(0.1 -0.1)">
       <defs>
        <path id="DejaVuSans-31" d="M 794 531 
L 1825 531 
L 1825 4091 
L 703 3866 
L 703 4441 
L 1819 4666 
L 2450 4666 
L 2450 531 
L 3481 531 
L 3481 0 
L 794 0 
L 794 531 
z
" transform="scale(0.015625)"/>
       </defs>
       <use xlink:href="#DejaVuSans-31"/>
       <use xlink:href="#DejaVuSans-30" x="63.623047"/>
       <use xlink:href="#DejaVuSans-30" x="127.246094"/>
       <use xlink:href="#DejaVuSans-30" x="190.869141"/>
       <use xlink:href="#DejaVuSans-30" x="254.492188"/>
      </g>
     </g>
    </g>
    <g id="ytick_3">
     <g id="line2d_8">
      <g>
       <use xlink:href="#m36af6d0814" x="57.6" y="234.873967" style="stroke: #000000; stroke-width: 0.8"/>
      </g>
     </g>
     <g id="text_9">
      <!-- 20000 -->
      <g transform="translate(18.7875 238.673186)scale(0.1 -0.1)">
       <use xlink:href="#DejaVuSans-32"/>
       <use xlink:href="#DejaVuSans-30" x="63.623047"/>
       <use xlink:href="#DejaVuSans-30" x="127.246094"/>
       <use xlink:href="#DejaVuSans-30" x="190.869141"/>
       <use xlink:href="#DejaVuSans-30" x="254.492188"/>
      </g>
     </g>
    </g>
    <g id="ytick_4">
     <g id="line2d_9">
      <g>
       <use xlink:href="#m36af6d0814" x="57.6" y="204.566951" style="stroke: #000000; stroke-width: 0.8"/>
      </g>
     </g>
     <g id="text_10">
      <!-- 30000 -->
      <g transform="translate(18.7875 208.36617)scale(0.1 -0.1)">
       <defs>
        <path id="DejaVuSans-33" d="M 2597 2516 
Q 3050 2419 3304 2112 
Q 3559 1806 3559 1356 
Q 3559 666 3084 287 
Q 2609 -91 1734 -91 
Q 1441 -91 1130 -33 
Q 819 25 488 141 
L 488 750 
Q 750 597 1062 519 
Q 1375 441 1716 441 
Q 2309 441 2620 675 
Q 2931 909 2931 1356 
Q 2931 1769 2642 2001 
Q 2353 2234 1838 2234 
L 1294 2234 
L 1294 2753 
L 1863 2753 
Q 2328 2753 2575 2939 
Q 2822 3125 2822 3475 
Q 2822 3834 2567 4026 
Q 2313 4219 1838 4219 
Q 1578 4219 1281 4162 
Q 984 4106 628 3988 
L 628 4550 
Q 988 4650 1302 4700 
Q 1616 4750 1894 4750 
Q 2613 4750 3031 4423 
Q 3450 4097 3450 3541 
Q 3450 3153 3228 2886 
Q 3006 2619 2597 2516 
z
" transform="scale(0.015625)"/>
       </defs>
       <use xlink:href="#DejaVuSans-33"/>
       <use xlink:href="#DejaVuSans-30" x="63.623047"/>
       <use xlink:href="#DejaVuSans-30" x="127.246094"/>
       <use xlink:href="#DejaVuSans-30" x="190.869141"/>
       <use xlink:href="#DejaVuSans-30" x="254.492188"/>
      </g>
     </g>
    </g>
    <g id="ytick_5">
     <g id="line2d_10">
      <g>
       <use xlink:href="#m36af6d0814" x="57.6" y="174.259934" style="stroke: #000000; stroke-width: 0.8"/>
      </g>
     </g>
     <g id="text_11">
      <!-- 40000 -->
      <g transform="translate(18.7875 178.059153)scale(0.1 -0.1)">
       <use xlink:href="#DejaVuSans-34"/>
       <use xlink:href="#DejaVuSans-30" x="63.623047"/>
       <use xlink:href="#DejaVuSans-30" x="127.246094"/>
       <use xlink:href="#DejaVuSans-30" x="190.869141"/>
       <use xlink:href="#DejaVuSans-30" x="254.492188"/>
      </g>
     </g>
    </g>
    <g id="ytick_6">
     <g id="line2d_11">
      <g>
       <use xlink:href="#m36af6d0814" x="57.6" y="143.952918" style="stroke: #000000; stroke-width: 0.8"/>
      </g>
     </g>
     <g id="text_12">
      <!-- 50000 -->
      <g transform="translate(18.7875 147.752137)scale(0.1 -0.1)">
       <defs>
        <path id="DejaVuSans-35" d="M 691 4666 
L 3169 4666 
L 3169 4134 
L 1269 4134 
L 1269 2991 
Q 1406 3038 1543 3061 
Q 1681 3084 1819 3084 
Q 2600 3084 3056 2656 
Q 3513 2228 3513 1497 
Q 3513 744 3044 326 
Q 2575 -91 1722 -91 
Q 1428 -91 1123 -41 
Q 819 9 494 109 
L 494 744 
Q 775 591 1075 516 
Q 1375 441 1709 441 
Q 2250 441 2565 725 
Q 2881 1009 2881 1497 
Q 2881 1984 2565 2268 
Q 2250 2553 1709 2553 
Q 1456 2553 1204 2497 
Q 953 2441 691 2322 
L 691 4666 
z
" transform="scale(0.015625)"/>
       </defs>
       <use xlink:href="#DejaVuSans-35"/>
       <use xlink:href="#DejaVuSans-30" x="63.623047"/>
       <use xlink:href="#DejaVuSans-30" x="127.246094"/>
       <use xlink:href="#DejaVuSans-30" x="190.869141"/>
       <use xlink:href="#DejaVuSans-30" x="254.492188"/>
      </g>
     </g>
    </g>
    <g id="ytick_7">
     <g id="line2d_12">
      <g>
       <use xlink:href="#m36af6d0814" x="57.6" y="113.645902" style="stroke: #000000; stroke-width: 0.8"/>
      </g>
     </g>
     <g id="text_13">
      <!-- 60000 -->
      <g transform="translate(18.7875 117.44512)scale(0.1 -0.1)">
       <use xlink:href="#DejaVuSans-36"/>
       <use xlink:href="#DejaVuSans-30" x="63.623047"/>
       <use xlink:href="#DejaVuSans-30" x="127.246094"/>
       <use xlink:href="#DejaVuSans-30" x="190.869141"/>
       <use xlink:href="#DejaVuSans-30" x="254.492188"/>
      </g>
     </g>
    </g>
    <g id="ytick_8">
     <g id="line2d_13">
      <g>
       <use xlink:href="#m36af6d0814" x="57.6" y="83.338885" style="stroke: #000000; stroke-width: 0.8"/>
      </g>
     </g>
     <g id="text_14">
      <!-- 70000 -->
      <g transform="translate(18.7875 87.138104)scale(0.1 -0.1)">
       <defs>
        <path id="DejaVuSans-37" d="M 525 4666 
L 3525 4666 
L 3525 4397 
L 1831 0 
L 1172 0 
L 2766 4134 
L 525 4134 
L 525 4666 
z
" transform="scale(0.015625)"/>
       </defs>
       <use xlink:href="#DejaVuSans-37"/>
       <use xlink:href="#DejaVuSans-30" x="63.623047"/>
       <use xlink:href="#DejaVuSans-30" x="127.246094"/>
       <use xlink:href="#DejaVuSans-30" x="190.869141"/>
       <use xlink:href="#DejaVuSans-30" x="254.492188"/>
      </g>
     </g>
    </g>
    <g id="ytick_9">
     <g id="line2d_14">
      <g>
       <use xlink:href="#m36af6d0814" x="57.6" y="53.031869" style="stroke: #000000; stroke-width: 0.8"/>
      </g>
     </g>
     <g id="text_15">
      <!-- 80000 -->
      <g transform="translate(18.7875 56.831088)scale(0.1 -0.1)">
       <use xlink:href="#DejaVuSans-38"/>
       <use xlink:href="#DejaVuSans-30" x="63.623047"/>
       <use xlink:href="#DejaVuSans-30" x="127.246094"/>
       <use xlink:href="#DejaVuSans-30" x="190.869141"/>
       <use xlink:href="#DejaVuSans-30" x="254.492188"/>
      </g>
     </g>
    </g>
    <g id="text_16">
     <!-- coverage -->
     <g transform="translate(12.707812 197.742844)rotate(-90)scale(0.1 -0.1)">
      <defs>
       <path id="DejaVuSans-76" d="M 191 3500 
L 800 3500 
L 1894 563 
L 2988 3500 
L 3597 3500 
L 2284 0 
L 1503 0 
L 191 3500 
z
" transform="scale(0.015625)"/>
       <path id="DejaVuSans-72" d="M 2631 2963 
Q 2534 3019 2420 3045 
Q 2306 3072 2169 3072 
Q 1681 3072 1420 2755 
Q 1159 2438 1159 1844 
L 1159 0 
L 581 0 
L 581 3500 
L 1159 3500 
L 1159 2956 
Q 1341 3275 1631 3429 
Q 1922 3584 2338 3584 
Q 2397 3584 2469 3576 
Q 2541 3569 2628 3553 
L 2631 2963 
z
" transform="scale(0.015625)"/>
       <path id="DejaVuSans-61" d="M 2194 1759 
Q 1497 1759 1228 1600 
Q 959 1441 959 1056 
Q 959 750 1161 570 
Q 1363 391 1709 391 
Q 2188 391 2477 730 
Q 2766 1069 2766 1631 
L 2766 1759 
L 2194 1759 
z
M 3341 1997 
L 3341 0 
L 2766 0 
L 2766 531 
Q 2569 213 2275 61 
Q 1981 -91 1556 -91 
Q 1019 -91 701 211 
Q 384 513 384 1019 
Q 384 1609 779 1909 
Q 1175 2209 1959 2209 
L 2766 2209 
L 2766 2266 
Q 2766 2663 2505 2880 
Q 2244 3097 1772 3097 
Q 1472 3097 1187 3025 
Q 903 2953 641 2809 
L 641 3341 
Q 956 3463 1253 3523 
Q 1550 3584 1831 3584 
Q 2591 3584 2966 3190 
Q 3341 2797 3341 1997 
z
" transform="scale(0.015625)"/>
       <path id="DejaVuSans-67" d="M 2906 1791 
Q 2906 2416 2648 2759 
Q 2391 3103 1925 3103 
Q 1463 3103 1205 2759 
Q 947 2416 947 1791 
Q 947 1169 1205 825 
Q 1463 481 1925 481 
Q 2391 481 2648 825 
Q 2906 1169 2906 1791 
z
M 3481 434 
Q 3481 -459 3084 -895 
Q 2688 -1331 1869 -1331 
Q 1566 -1331 1297 -1286 
Q 1028 -1241 775 -1147 
L 775 -588 
Q 1028 -725 1275 -790 
Q 1522 -856 1778 -856 
Q 2344 -856 2625 -561 
Q 2906 -266 2906 331 
L 2906 616 
Q 2728 306 2450 153 
Q 2172 0 1784 0 
Q 1141 0 747 490 
Q 353 981 353 1791 
Q 353 2603 747 3093 
Q 1141 3584 1784 3584 
Q 2172 3584 2450 3431 
Q 2728 3278 2906 2969 
L 2906 3500 
L 3481 3500 
L 3481 434 
z
" transform="scale(0.015625)"/>
      </defs>
      <use xlink:href="#DejaVuSans-63"/>
      <use xlink:href="#DejaVuSans-6f" x="54.980469"/>
      <use xlink:href="#DejaVuSans-76" x="116.162109"/>
      <use xlink:href="#DejaVuSans-65" x="175.341797"/>
      <use xlink:href="#DejaVuSans-72" x="236.865234"/>
      <use xlink:href="#DejaVuSans-61" x="277.978516"/>
      <use xlink:href="#DejaVuSans-67" x="339.257812"/>
      <use xlink:href="#DejaVuSans-65" x="402.734375"/>
     </g>
    </g>
   </g>
   <g id="line2d_15">
    <path d="M 73.832727 295.488 
L 76.087273 138.113362 
L 78.341818 130.355069 
L 80.596364 126.596696 
L 82.850909 123.40567 
L 85.105455 121.01475 
L 87.36 119.448786 
L 91.869091 116.736914 
L 98.632727 114.175668 
L 103.141818 112.800336 
L 105.396364 112.259962 
L 107.650909 111.567446 
L 114.414545 110.035124 
L 116.669091 109.342305 
L 123.432727 107.929998 
L 130.196364 106.783787 
L 132.450909 106.226138 
L 141.469091 104.907177 
L 159.505455 102.537774 
L 166.269091 101.720091 
L 195.578182 99.113384 
L 202.341818 98.471785 
L 211.36 97.721686 
L 215.869091 97.190707 
L 218.123636 97.013411 
L 222.632727 96.492737 
L 231.650909 95.613227 
L 238.414545 94.885555 
L 240.669091 94.558543 
L 245.178182 94.17819 
L 258.705455 92.624349 
L 267.723636 91.309024 
L 269.978182 91.137487 
L 278.996364 89.957938 
L 281.250909 89.726089 
L 290.269091 89.162378 
L 299.287273 88.451376 
L 312.814545 87.396086 
L 328.596364 86.484147 
L 337.614545 86.078336 
L 344.378182 85.746475 
L 360.16 85.200039 
L 380.450909 84.512676 
L 398.487273 84.111108 
L 398.487273 84.111108 
" clip-path="url(#p3bdfba8d1c)" style="fill: none; stroke: #1f77b4; stroke-width: 1.5; stroke-linecap: square"/>
   </g>
   <g id="line2d_16">
    <path d="M 73.832727 295.488 
L 76.087273 148.753549 
L 78.341818 138.607366 
L 80.596364 133.318186 
L 82.850909 129.375546 
L 85.105455 126.701861 
L 87.36 124.336096 
L 89.614545 122.557377 
L 91.869091 120.044622 
L 94.123636 118.656561 
L 96.378182 117.465495 
L 98.632727 114.272348 
L 100.887273 112.549394 
L 105.396364 110.646719 
L 107.650909 108.944071 
L 109.905455 107.59359 
L 112.16 105.838511 
L 114.414545 104.673206 
L 116.669091 103.722172 
L 121.178182 102.279255 
L 123.432727 101.476422 
L 125.687273 100.036233 
L 127.941818 99.175211 
L 132.450909 97.787755 
L 134.705455 96.652151 
L 136.96 95.829619 
L 139.214545 95.242572 
L 141.469091 94.539752 
L 143.723636 94.051506 
L 145.978182 92.732848 
L 148.232727 92.149741 
L 150.487273 91.380852 
L 154.996364 90.191302 
L 157.250909 89.624864 
L 159.505455 88.910527 
L 161.76 88.394399 
L 164.014545 87.263341 
L 168.523636 86.293213 
L 170.778182 85.944683 
L 175.287273 84.830597 
L 177.541818 83.833193 
L 182.050909 83.054302 
L 188.814545 81.664726 
L 191.069091 80.598525 
L 197.832727 79.129544 
L 202.341818 78.482489 
L 211.36 76.782871 
L 213.614545 75.377232 
L 218.123636 74.659562 
L 220.378182 74.323154 
L 222.632727 73.312415 
L 224.887273 73.020558 
L 227.141818 72.378959 
L 229.396364 72.064978 
L 231.650909 71.86768 
L 233.905455 70.803297 
L 240.669091 69.940759 
L 242.923636 69.742855 
L 247.432727 69.114893 
L 254.196364 68.367522 
L 256.450909 67.959893 
L 267.723636 66.922181 
L 272.232727 66.507581 
L 274.487273 66.349378 
L 278.996364 65.793547 
L 285.76 65.234686 
L 288.014545 64.91131 
L 290.269091 64.160908 
L 292.523636 64.010282 
L 294.778182 63.426569 
L 299.287273 63.085009 
L 301.541818 62.698595 
L 303.796364 62.443107 
L 306.050909 61.697857 
L 308.305455 61.263861 
L 315.069091 60.758946 
L 317.323636 60.304947 
L 330.850909 59.194195 
L 344.378182 58.363479 
L 348.887273 57.923724 
L 375.941818 56.23623 
L 380.450909 55.989531 
L 382.705455 55.682824 
L 389.469091 55.289439 
L 391.723636 55.21064 
L 393.978182 54.887567 
L 396.232727 54.804526 
L 398.487273 54.545098 
L 398.487273 54.545098 
" clip-path="url(#p3bdfba8d1c)" style="fill: none; stroke: #ff7f0e; stroke-width: 1.5; stroke-linecap: square"/>
   </g>
   <g id="line2d_17"/>
   <g id="line2d_18"/>
   <g id="patch_3">
    <path d="M 57.6 307.584 
L 57.6 41.472 
" style="fill: none; stroke: #000000; stroke-width: 0.8; stroke-linejoin: miter; stroke-linecap: square"/>
   </g>
   <g id="patch_4">
    <path d="M 57.6 307.584 
L 414.72 307.584 
" style="fill: none; stroke: #000000; stroke-width: 0.8; stroke-linejoin: miter; stroke-linecap: square"/>
   </g>
   <g id="legend_1">
    <g id="patch_5">
     <path d="M 64.6 93.506375 
L 128.067187 93.506375 
Q 130.067187 93.506375 130.067187 91.506375 
L 130.067187 48.472 
Q 130.067187 46.472 128.067187 46.472 
L 64.6 46.472 
Q 62.6 46.472 62.6 48.472 
L 62.6 91.506375 
Q 62.6 93.506375 64.6 93.506375 
z
" style="fill: #ffffff; opacity: 0.8; stroke: #cccccc; stroke-linejoin: miter"/>
    </g>
    <g id="text_17">
     <!-- fuzzer -->
     <g transform="translate(81.024219 58.070438)scale(0.1 -0.1)">
      <defs>
       <path id="DejaVuSans-66" d="M 2375 4863 
L 2375 4384 
L 1825 4384 
Q 1516 4384 1395 4259 
Q 1275 4134 1275 3809 
L 1275 3500 
L 2222 3500 
L 2222 3053 
L 1275 3053 
L 1275 0 
L 697 0 
L 697 3053 
L 147 3053 
L 147 3500 
L 697 3500 
L 697 3744 
Q 697 4328 969 4595 
Q 1241 4863 1831 4863 
L 2375 4863 
z
" transform="scale(0.015625)"/>
       <path id="DejaVuSans-75" d="M 544 1381 
L 544 3500 
L 1119 3500 
L 1119 1403 
Q 1119 906 1312 657 
Q 1506 409 1894 409 
Q 2359 409 2629 706 
Q 2900 1003 2900 1516 
L 2900 3500 
L 3475 3500 
L 3475 0 
L 2900 0 
L 2900 538 
Q 2691 219 2414 64 
Q 2138 -91 1772 -91 
Q 1169 -91 856 284 
Q 544 659 544 1381 
z
M 1991 3584 
L 1991 3584 
z
" transform="scale(0.015625)"/>
       <path id="DejaVuSans-7a" d="M 353 3500 
L 3084 3500 
L 3084 2975 
L 922 459 
L 3084 459 
L 3084 0 
L 275 0 
L 275 525 
L 2438 3041 
L 353 3041 
L 353 3500 
z
" transform="scale(0.015625)"/>
      </defs>
      <use xlink:href="#DejaVuSans-66"/>
      <use xlink:href="#DejaVuSans-75" x="35.205078"/>
      <use xlink:href="#DejaVuSans-7a" x="98.583984"/>
      <use xlink:href="#DejaVuSans-7a" x="151.074219"/>
      <use xlink:href="#DejaVuSans-65" x="203.564453"/>
      <use xlink:href="#DejaVuSans-72" x="265.087891"/>
     </g>
    </g>
    <g id="line2d_19">
     <path d="M 66.6 69.248563 
L 76.6 69.248563 
L 86.6 69.248563 
" style="fill: none; stroke: #1f77b4; stroke-width: 1.5; stroke-linecap: square"/>
    </g>
    <g id="text_18">
     <!-- fuzzjit -->
     <g transform="translate(94.6 72.748563)scale(0.1 -0.1)">
      <defs>
       <path id="DejaVuSans-6a" d="M 603 3500 
L 1178 3500 
L 1178 -63 
Q 1178 -731 923 -1031 
Q 669 -1331 103 -1331 
L -116 -1331 
L -116 -844 
L 38 -844 
Q 366 -844 484 -692 
Q 603 -541 603 -63 
L 603 3500 
z
M 603 4863 
L 1178 4863 
L 1178 4134 
L 603 4134 
L 603 4863 
z
" transform="scale(0.015625)"/>
       <path id="DejaVuSans-69" d="M 603 3500 
L 1178 3500 
L 1178 0 
L 603 0 
L 603 3500 
z
M 603 4863 
L 1178 4863 
L 1178 4134 
L 603 4134 
L 603 4863 
z
" transform="scale(0.015625)"/>
       <path id="DejaVuSans-74" d="M 1172 4494 
L 1172 3500 
L 2356 3500 
L 2356 3053 
L 1172 3053 
L 1172 1153 
Q 1172 725 1289 603 
Q 1406 481 1766 481 
L 2356 481 
L 2356 0 
L 1766 0 
Q 1100 0 847 248 
Q 594 497 594 1153 
L 594 3053 
L 172 3053 
L 172 3500 
L 594 3500 
L 594 4494 
L 1172 4494 
z
" transform="scale(0.015625)"/>
      </defs>
      <use xlink:href="#DejaVuSans-66"/>
      <use xlink:href="#DejaVuSans-75" x="35.205078"/>
      <use xlink:href="#DejaVuSans-7a" x="98.583984"/>
      <use xlink:href="#DejaVuSans-7a" x="151.074219"/>
      <use xlink:href="#DejaVuSans-6a" x="203.564453"/>
      <use xlink:href="#DejaVuSans-69" x="231.347656"/>
      <use xlink:href="#DejaVuSans-74" x="259.130859"/>
     </g>
    </g>
    <g id="line2d_20">
     <path d="M 66.6 83.926688 
L 76.6 83.926688 
L 86.6 83.926688 
" style="fill: none; stroke: #ff7f0e; stroke-width: 1.5; stroke-linecap: square"/>
    </g>
    <g id="text_19">
     <!-- fuzzilli -->
     <g transform="translate(94.6 87.426688)scale(0.1 -0.1)">
      <defs>
       <path id="DejaVuSans-6c" d="M 603 4863 
L 1178 4863 
L 1178 0 
L 603 0 
L 603 4863 
z
" transform="scale(0.015625)"/>
      </defs>
      <use xlink:href="#DejaVuSans-66"/>
      <use xlink:href="#DejaVuSans-75" x="35.205078"/>
      <use xlink:href="#DejaVuSans-7a" x="98.583984"/>
      <use xlink:href="#DejaVuSans-7a" x="151.074219"/>
      <use xlink:href="#DejaVuSans-69" x="203.564453"/>
      <use xlink:href="#DejaVuSans-6c" x="231.347656"/>
      <use xlink:href="#DejaVuSans-6c" x="259.130859"/>
      <use xlink:href="#DejaVuSans-69" x="286.914062"/>
     </g>
    </g>
   </g>
  </g>
 </g>
 <defs>
  <clipPath id="p3bdfba8d1c">
   <rect x="57.6" y="41.472" width="357.12" height="266.112"/>
  </clipPath>
 </defs>
</svg>
