<?xml version="1.0" encoding="utf-8" standalone="no"?>
<!DOCTYPE svg PUBLIC "-//W3C//DTD SVG 1.1//EN"
  "http://www.w3.org/Graphics/SVG/1.1/DTD/svg11.dtd">
<svg xmlns:xlink="http://www.w3.org/1999/xlink" width="460.8pt" height="345.6pt" viewBox="0 0 460.8 345.6" xmlns="http://www.w3.org/2000/svg" version="1.1">
 <metadata>
  <rdf:RDF xmlns:dc="http://purl.org/dc/elements/1.1/" xmlns:cc="http://creativecommons.org/ns#" xmlns:rdf="http://www.w3.org/1999/02/22-rdf-syntax-ns#">
   <cc:Work>
    <dc:type rdf:resource="http://purl.org/dc/dcmitype/StillImage"/>
    <dc:date>2023-08-03T23:18:43.167847</dc:date>
    <dc:format>image/svg+xml</dc:format>
    <dc:creator>
     <cc:Agent>
      <dc:title>Matplotlib v3.5.1, https://matplotlib.org/</dc:title>
     </cc:Agent>
    </dc:creator>
   </cc:Work>
  </rdf:RDF>
 </metadata>
 <defs>
  <style type="text/css">*{stroke-linejoin: round; stroke-linecap: butt}</style>
 </defs>
 <g id="figure_1">
  <g id="patch_1">
   <path d="M 0 345.6 
L 460.8 345.6 
L 460.8 0 
L 0 0 
z
" style="fill: #ffffff"/>
  </g>
  <g id="axes_1">
   <g id="patch_2">
    <path d="M 57.6 307.584 
L 414.72 307.584 
L 414.72 41.472 
L 57.6 41.472 
z
" style="fill: #ffffff"/>
   </g>
   <g id="PolyCollection_1">
    <defs>
     <path id="mfc1133bbaa" d="M 73.832727 -50.112 
L 73.832727 -50.112 
L 76.087273 -144.282225 
L 78.341818 -165.205946 
L 80.596364 -173.279331 
L 82.850909 -177.323646 
L 85.105455 -183.350874 
L 87.36 -189.589987 
L 89.614545 -197.766466 
L 91.869091 -202.348116 
L 94.123636 -204.7567 
L 96.378182 -205.287364 
L 98.632727 -208.084922 
L 100.887273 -210.662717 
L 103.141818 -215.743247 
L 105.396364 -215.997019 
L 107.650909 -217.603977 
L 109.905455 -220.639414 
L 112.16 -228.325493 
L 114.414545 -229.832462 
L 116.669091 -239.960902 
L 118.923636 -243.295333 
L 121.178182 -244.635036 
L 123.432727 -246.04753 
L 125.687273 -246.9851 
L 127.941818 -247.901541 
L 130.196364 -249.391644 
L 132.450909 -250.095505 
L 134.705455 -251.315203 
L 136.96 -252.392933 
L 139.214545 -253.039571 
L 141.469091 -253.930112 
L 143.723636 -254.86972 
L 145.978182 -255.638727 
L 148.232727 -256.855459 
L 150.487273 -258.336713 
L 152.741818 -259.49057 
L 154.996364 -260.282512 
L 157.250909 -261.022328 
L 159.505455 -261.609751 
L 161.76 -262.723066 
L 164.014545 -263.333841 
L 166.269091 -263.743851 
L 168.523636 -264.339985 
L 170.778182 -264.880611 
L 173.032727 -265.558617 
L 175.287273 -266.064122 
L 177.541818 -266.788138 
L 179.796364 -267.35712 
L 182.050909 -267.870455 
L 184.305455 -268.777815 
L 186.56 -269.239534 
L 188.814545 -269.741888 
L 191.069091 -270.083463 
L 193.323636 -270.576087 
L 195.578182 -271.070008 
L 197.832727 -271.400416 
L 200.087273 -271.851756 
L 202.341818 -272.149267 
L 204.596364 -273.105231 
L 206.850909 -273.431052 
L 209.105455 -273.805154 
L 211.36 -274.314226 
L 213.614545 -274.39392 
L 215.869091 -274.780717 
L 218.123636 -275.104778 
L 220.378182 -275.377176 
L 222.632727 -275.618808 
L 224.887273 -275.958529 
L 227.141818 -276.287316 
L 229.396364 -276.483309 
L 231.650909 -276.852035 
L 233.905455 -277.083335 
L 236.16 -277.475969 
L 238.414545 -277.54876 
L 240.669091 -277.98291 
L 242.923636 -278.309056 
L 245.178182 -278.633672 
L 247.432727 -278.815858 
L 249.687273 -279.137694 
L 251.941818 -279.380716 
L 254.196364 -280.288262 
L 256.450909 -280.523824 
L 258.705455 -280.792006 
L 260.96 -280.952692 
L 263.214545 -281.091972 
L 265.469091 -281.440451 
L 267.723636 -281.679581 
L 269.978182 -281.878169 
L 272.232727 -282.08783 
L 274.487273 -282.379735 
L 276.741818 -282.628688 
L 278.996364 -282.791691 
L 281.250909 -283.065062 
L 283.505455 -283.270924 
L 285.76 -283.524047 
L 288.014545 -283.733755 
L 290.269091 -283.924976 
L 292.523636 -284.262102 
L 294.778182 -284.285872 
L 297.032727 -284.595986 
L 299.287273 -284.706585 
L 301.541818 -284.865974 
L 303.796364 -285.007803 
L 306.050909 -285.187533 
L 308.305455 -285.328017 
L 310.56 -285.469336 
L 312.814545 -285.651754 
L 315.069091 -285.775187 
L 317.323636 -285.969003 
L 319.578182 -286.250158 
L 321.832727 -286.380959 
L 324.087273 -286.552395 
L 326.341818 -286.704185 
L 328.596364 -286.861165 
L 330.850909 -286.965092 
L 333.105455 -287.141672 
L 335.36 -287.274697 
L 337.614545 -287.37501 
L 339.869091 -287.552145 
L 342.123636 -287.710376 
L 344.378182 -287.893905 
L 346.632727 -288.022853 
L 348.887273 -288.155229 
L 351.141818 -288.231727 
L 353.396364 -288.370451 
L 355.650909 -288.546289 
L 357.905455 -288.73598 
L 360.16 -288.821142 
L 362.414545 -288.921965 
L 364.669091 -289.146593 
L 366.923636 -289.241578 
L 369.178182 -289.323311 
L 371.432727 -289.484414 
L 373.687273 -289.556186 
L 375.941818 -289.763438 
L 378.196364 -289.885158 
L 380.450909 -289.9889 
L 382.705455 -290.067667 
L 384.96 -290.244942 
L 387.214545 -290.3807 
L 389.469091 -290.489168 
L 391.723636 -290.560801 
L 393.978182 -290.723248 
L 396.232727 -290.826249 
L 398.487273 -290.879209 
L 398.487273 -292.017219 
L 398.487273 -292.017219 
L 396.232727 -292.032 
L 393.978182 -291.871082 
L 391.723636 -291.749177 
L 389.469091 -291.618886 
L 387.214545 -291.452917 
L 384.96 -291.358998 
L 382.705455 -291.258407 
L 380.450909 -291.116624 
L 378.196364 -290.997546 
L 375.941818 -290.867579 
L 373.687273 -290.794417 
L 371.432727 -290.60834 
L 369.178182 -290.534993 
L 366.923636 -290.372546 
L 364.669091 -290.319539 
L 362.414545 -290.148659 
L 360.16 -289.996267 
L 357.905455 -289.977965 
L 355.650909 -289.779655 
L 353.396364 -289.666739 
L 351.141818 -289.466205 
L 348.887273 -289.332902 
L 346.632727 -289.227307 
L 344.378182 -289.134731 
L 342.123636 -288.952731 
L 339.869091 -288.853437 
L 337.614545 -288.658046 
L 335.36 -288.580668 
L 333.105455 -288.468679 
L 330.850909 -288.26606 
L 328.596364 -288.136464 
L 326.341818 -288.079102 
L 324.087273 -287.823338 
L 321.832727 -287.699117 
L 319.578182 -287.523279 
L 317.323636 -287.34985 
L 315.069091 -287.047938 
L 312.814545 -286.928118 
L 310.56 -286.770767 
L 308.305455 -286.643163 
L 306.050909 -286.561615 
L 303.796364 -286.300384 
L 301.541818 -286.241123 
L 299.287273 -286.047585 
L 297.032727 -285.850573 
L 294.778182 -285.659491 
L 292.523636 -285.583642 
L 290.269091 -285.281035 
L 288.014545 -285.125677 
L 285.76 -284.889929 
L 283.505455 -284.660992 
L 281.250909 -284.575599 
L 278.996364 -284.30788 
L 276.741818 -284.061522 
L 274.487273 -283.845559 
L 272.232727 -283.613796 
L 269.978182 -283.449542 
L 267.723636 -283.310401 
L 265.469091 -283.059965 
L 263.214545 -282.851138 
L 260.96 -282.575682 
L 258.705455 -282.34137 
L 256.450909 -282.163772 
L 254.196364 -281.883126 
L 251.941818 -281.54322 
L 249.687273 -281.311503 
L 247.432727 -281.01339 
L 245.178182 -280.71055 
L 242.923636 -280.536149 
L 240.669091 -280.298594 
L 238.414545 -279.9383 
L 236.16 -279.724191 
L 233.905455 -279.467129 
L 231.650909 -279.247413 
L 229.396364 -278.957594 
L 227.141818 -278.676346 
L 224.887273 -278.51098 
L 222.632727 -278.12687 
L 220.378182 -277.909981 
L 218.123636 -277.49214 
L 215.869091 -277.351563 
L 213.614545 -277.023842 
L 211.36 -276.782488 
L 209.105455 -276.319981 
L 206.850909 -276.102674 
L 204.596364 -275.764297 
L 202.341818 -274.795451 
L 200.087273 -274.714042 
L 197.832727 -274.22735 
L 195.578182 -273.771839 
L 193.323636 -273.667449 
L 191.069091 -273.044534 
L 188.814545 -272.625118 
L 186.56 -272.296609 
L 184.305455 -271.836975 
L 182.050909 -270.917708 
L 179.796364 -270.44561 
L 177.541818 -269.890991 
L 175.287273 -269.191717 
L 173.032727 -268.774711 
L 170.778182 -268.131362 
L 168.523636 -267.719731 
L 166.269091 -267.279511 
L 164.014545 -266.654696 
L 161.76 -266.122781 
L 159.505455 -265.241136 
L 157.250909 -264.69963 
L 154.996364 -263.63024 
L 152.741818 -262.894316 
L 150.487273 -262.120028 
L 148.232727 -260.656196 
L 145.978182 -259.853458 
L 143.723636 -259.024032 
L 141.469091 -258.13238 
L 139.214545 -257.51938 
L 136.96 -256.509019 
L 134.705455 -255.775829 
L 132.450909 -254.985833 
L 130.196364 -254.235778 
L 127.941818 -252.459191 
L 125.687273 -251.804444 
L 123.432727 -250.602539 
L 121.178182 -249.316537 
L 118.923636 -248.007878 
L 116.669091 -245.311282 
L 114.414545 -241.80384 
L 112.16 -240.899677 
L 109.905455 -236.040763 
L 107.650909 -233.291439 
L 105.396364 -231.874728 
L 103.141818 -230.305347 
L 100.887273 -226.475096 
L 98.632727 -224.469711 
L 96.378182 -221.126153 
L 94.123636 -219.254859 
L 91.869091 -217.393342 
L 89.614545 -212.222044 
L 87.36 -205.467789 
L 85.105455 -200.465888 
L 82.850909 -193.635691 
L 80.596364 -189.806506 
L 78.341818 -179.477763 
L 76.087273 -155.82594 
L 73.832727 -50.112 
z
" style="stroke: #1f77b4; stroke-opacity: 0.2"/>
    </defs>
    <g clip-path="url(#p6ba57f77b5)">
     <use xlink:href="#mfc1133bbaa" x="0" y="345.6" style="fill: #1f77b4; fill-opacity: 0.2; stroke: #1f77b4; stroke-opacity: 0.2"/>
    </g>
   </g>
   <g id="PolyCollection_2">
    <defs>
     <path id="m238c3367d4" d="M 73.832727 -50.112 
L 73.832727 -50.112 
L 76.087273 -222.979608 
L 78.341818 -236.137416 
L 80.596364 -243.271703 
L 82.850909 -247.753504 
L 85.105455 -251.884 
L 87.36 -254.200749 
L 89.614545 -255.400153 
L 91.869091 -256.808662 
L 94.123636 -257.641841 
L 96.378182 -258.623243 
L 98.632727 -259.955717 
L 100.887273 -260.95973 
L 103.141818 -261.520604 
L 105.396364 -262.14009 
L 107.650909 -262.811008 
L 109.905455 -263.38782 
L 112.16 -263.753998 
L 114.414545 -264.436406 
L 116.669091 -264.81338 
L 118.923636 -265.215884 
L 121.178182 -265.565799 
L 123.432727 -266.071026 
L 125.687273 -266.270818 
L 127.941818 -266.52964 
L 130.196364 -266.895401 
L 132.450909 -267.079672 
L 134.705455 -267.427455 
L 136.96 -268.0658 
L 139.214545 -268.406031 
L 141.469091 -268.646783 
L 143.723636 -268.989191 
L 145.978182 -269.184953 
L 148.232727 -269.342118 
L 150.487273 -269.571888 
L 152.741818 -269.855638 
L 154.996364 -270.113719 
L 157.250909 -270.268104 
L 159.505455 -270.49477 
L 161.76 -270.795803 
L 164.014545 -271.036601 
L 166.269091 -271.274943 
L 168.523636 -271.463615 
L 170.778182 -271.604795 
L 173.032727 -271.849995 
L 175.287273 -272.115072 
L 177.541818 -272.314448 
L 179.796364 -272.427596 
L 182.050909 -272.53143 
L 184.305455 -272.733678 
L 186.56 -272.871939 
L 188.814545 -273.066728 
L 191.069091 -273.231677 
L 193.323636 -273.328283 
L 195.578182 -273.543181 
L 197.832727 -273.639926 
L 200.087273 -273.797045 
L 202.341818 -273.969871 
L 204.596364 -274.122264 
L 206.850909 -274.293515 
L 209.105455 -274.434972 
L 211.36 -274.731927 
L 213.614545 -274.967582 
L 215.869091 -275.136424 
L 218.123636 -275.326347 
L 220.378182 -275.389639 
L 222.632727 -275.605232 
L 224.887273 -275.671814 
L 227.141818 -275.84135 
L 229.396364 -276.018393 
L 231.650909 -276.208084 
L 233.905455 -276.362655 
L 236.16 -276.376045 
L 238.414545 -276.534508 
L 240.669091 -276.698206 
L 242.923636 -276.969863 
L 245.178182 -277.111089 
L 247.432727 -277.226831 
L 249.687273 -277.295498 
L 251.941818 -277.402808 
L 254.196364 -277.57429 
L 256.450909 -277.671963 
L 258.705455 -277.711625 
L 260.96 -277.818378 
L 263.214545 -277.925595 
L 265.469091 -278.087764 
L 267.723636 -278.183491 
L 269.978182 -278.321056 
L 272.232727 -278.441293 
L 274.487273 -278.553607 
L 276.741818 -278.627742 
L 278.996364 -278.775686 
L 281.250909 -278.849867 
L 283.505455 -278.925762 
L 285.76 -278.974413 
L 288.014545 -279.03335 
L 290.269091 -279.102341 
L 292.523636 -279.25478 
L 294.778182 -279.242456 
L 297.032727 -279.349256 
L 299.287273 -279.423066 
L 301.541818 -279.621932 
L 303.796364 -279.662242 
L 306.050909 -279.694676 
L 308.305455 -279.805275 
L 310.56 -279.958224 
L 312.814545 -280.059927 
L 315.069091 -280.108393 
L 317.323636 -280.229973 
L 319.578182 -280.32 
L 321.832727 -280.375833 
L 324.087273 -280.486386 
L 326.341818 -280.556351 
L 328.596364 -280.637898 
L 330.850909 -280.661714 
L 333.105455 -280.721902 
L 335.36 -280.764344 
L 337.614545 -280.803404 
L 339.869091 -280.837552 
L 342.123636 -281.008386 
L 344.378182 -281.021174 
L 346.632727 -281.103695 
L 348.887273 -281.169906 
L 351.141818 -281.204657 
L 353.396364 -281.300568 
L 355.650909 -281.341481 
L 357.905455 -281.451432 
L 360.16 -281.474414 
L 362.414545 -281.560039 
L 364.669091 -281.574032 
L 366.923636 -281.689079 
L 369.178182 -281.736618 
L 371.432727 -281.780728 
L 373.687273 -281.857133 
L 375.941818 -281.874323 
L 378.196364 -281.956566 
L 380.450909 -281.997062 
L 382.705455 -282.042979 
L 384.96 -282.092186 
L 387.214545 -282.167988 
L 389.469091 -282.195603 
L 391.723636 -282.303237 
L 393.978182 -282.300735 
L 396.232727 -282.378159 
L 398.487273 -282.47648 
L 398.487273 -283.220096 
L 398.487273 -283.220096 
L 396.232727 -283.174549 
L 393.978182 -283.100137 
L 391.723636 -283.067379 
L 389.469091 -283.004272 
L 387.214545 -282.964517 
L 384.96 -282.910723 
L 382.705455 -282.82204 
L 380.450909 -282.754624 
L 378.196364 -282.707734 
L 375.941818 -282.685215 
L 373.687273 -282.622803 
L 371.432727 -282.589906 
L 369.178182 -282.498489 
L 366.923636 -282.454286 
L 364.669091 -282.393264 
L 362.414545 -282.339517 
L 360.16 -282.294063 
L 357.905455 -282.200144 
L 355.650909 -282.13889 
L 353.396364 -282.06508 
L 351.141818 -281.989463 
L 348.887273 -281.898556 
L 346.632727 -281.847959 
L 344.378182 -281.807509 
L 342.123636 -281.739908 
L 339.869091 -281.647332 
L 337.614545 -281.577507 
L 335.36 -281.544563 
L 333.105455 -281.420295 
L 330.850909 -281.424419 
L 328.596364 -281.366733 
L 326.341818 -281.297 
L 324.087273 -281.229075 
L 321.832727 -281.135434 
L 319.578182 -281.079138 
L 317.323636 -280.980168 
L 315.069091 -280.862063 
L 312.814545 -280.780654 
L 310.56 -280.687198 
L 308.305455 -280.564505 
L 306.050909 -280.482494 
L 303.796364 -280.435743 
L 301.541818 -280.401965 
L 299.287273 -280.206065 
L 297.032727 -280.130633 
L 294.778182 -280.058584 
L 292.523636 -279.997515 
L 290.269091 -279.943212 
L 288.014545 -279.818203 
L 285.76 -279.782618 
L 283.505455 -279.714183 
L 281.250909 -279.621885 
L 278.996364 -279.588942 
L 276.741818 -279.504567 
L 274.487273 -279.463145 
L 272.232727 -279.288234 
L 269.978182 -279.13042 
L 267.723636 -279.039142 
L 265.469091 -278.896386 
L 263.214545 -278.785092 
L 260.96 -278.694602 
L 258.705455 -278.57645 
L 256.450909 -278.504817 
L 254.196364 -278.441201 
L 251.941818 -278.239277 
L 249.687273 -278.134052 
L 247.432727 -277.999961 
L 245.178182 -277.963682 
L 242.923636 -277.837746 
L 240.669091 -277.577441 
L 238.414545 -277.382884 
L 236.16 -277.286556 
L 233.905455 -277.164419 
L 231.650909 -277.005725 
L 229.396364 -276.866538 
L 227.141818 -276.75376 
L 224.887273 -276.584641 
L 222.632727 -276.518105 
L 220.378182 -276.293663 
L 218.123636 -276.150584 
L 215.869091 -275.968676 
L 213.614545 -275.807387 
L 211.36 -275.598745 
L 209.105455 -275.260692 
L 206.850909 -275.163112 
L 204.596364 -274.964015 
L 202.341818 -274.825059 
L 200.087273 -274.674056 
L 197.832727 -274.518235 
L 195.578182 -274.364406 
L 193.323636 -274.175224 
L 191.069091 -274.042847 
L 188.814545 -273.840553 
L 186.56 -273.770727 
L 184.305455 -273.527149 
L 182.050909 -273.389583 
L 179.796364 -273.245855 
L 177.541818 -273.104814 
L 175.287273 -272.986292 
L 173.032727 -272.697816 
L 170.778182 -272.486162 
L 168.523636 -272.317043 
L 166.269091 -272.156773 
L 164.014545 -271.931358 
L 161.76 -271.678096 
L 159.505455 -271.382716 
L 157.250909 -271.18158 
L 154.996364 -271.012044 
L 152.741818 -270.717869 
L 150.487273 -270.467248 
L 148.232727 -270.344648 
L 145.978182 -270.154076 
L 143.723636 -269.943256 
L 141.469091 -269.656958 
L 139.214545 -269.358335 
L 136.96 -269.092794 
L 134.705455 -268.6592 
L 132.450909 -268.316699 
L 130.196364 -268.101431 
L 127.941818 -267.70546 
L 125.687273 -267.438437 
L 123.432727 -267.258938 
L 121.178182 -266.866443 
L 118.923636 -266.446424 
L 116.669091 -266.020058 
L 114.414545 -265.683627 
L 112.16 -264.865506 
L 109.905455 -264.428205 
L 107.650909 -263.854265 
L 105.396364 -263.291214 
L 103.141818 -262.705737 
L 100.887273 -262.069709 
L 98.632727 -261.238569 
L 96.378182 -259.991487 
L 94.123636 -259.025098 
L 91.869091 -258.049859 
L 89.614545 -256.690834 
L 87.36 -255.447552 
L 85.105455 -252.960062 
L 82.850909 -249.382609 
L 80.596364 -244.900345 
L 78.341818 -238.276752 
L 76.087273 -225.893372 
L 73.832727 -50.112 
z
" style="stroke: #ff7f0e; stroke-opacity: 0.2"/>
    </defs>
    <g clip-path="url(#p6ba57f77b5)">
     <use xlink:href="#m238c3367d4" x="0" y="345.6" style="fill: #ff7f0e; fill-opacity: 0.2; stroke: #ff7f0e; stroke-opacity: 0.2"/>
    </g>
   </g>
   <g id="matplotlib.axis_1">
    <g id="xtick_1">
     <g id="line2d_1">
      <defs>
       <path id="m433aeeb262" d="M 0 0 
L 0 3.5 
" style="stroke: #000000; stroke-width: 0.8"/>
      </defs>
      <g>
       <use xlink:href="#m433aeeb262" x="73.832727" y="307.584" style="stroke: #000000; stroke-width: 0.8"/>
      </g>
     </g>
     <g id="text_1">
      <!-- 0 -->
      <g transform="translate(70.651477 322.182437)scale(0.1 -0.1)">
       <defs>
        <path id="DejaVuSans-30" d="M 2034 4250 
Q 1547 4250 1301 3770 
Q 1056 3291 1056 2328 
Q 1056 1369 1301 889 
Q 1547 409 2034 409 
Q 2525 409 2770 889 
Q 3016 1369 3016 2328 
Q 3016 3291 2770 3770 
Q 2525 4250 2034 4250 
z
M 2034 4750 
Q 2819 4750 3233 4129 
Q 3647 3509 3647 2328 
Q 3647 1150 3233 529 
Q 2819 -91 2034 -91 
Q 1250 -91 836 529 
Q 422 1150 422 2328 
Q 422 3509 836 4129 
Q 1250 4750 2034 4750 
z
" transform="scale(0.015625)"/>
       </defs>
       <use xlink:href="#DejaVuSans-30"/>
      </g>
     </g>
    </g>
    <g id="xtick_2">
     <g id="line2d_2">
      <g>
       <use xlink:href="#m433aeeb262" x="148.984242" y="307.584" style="stroke: #000000; stroke-width: 0.8"/>
      </g>
     </g>
     <g id="text_2">
      <!-- 20000 -->
      <g transform="translate(133.077992 322.182437)scale(0.1 -0.1)">
       <defs>
        <path id="DejaVuSans-32" d="M 1228 531 
L 3431 531 
L 3431 0 
L 469 0 
L 469 531 
Q 828 903 1448 1529 
Q 2069 2156 2228 2338 
Q 2531 2678 2651 2914 
Q 2772 3150 2772 3378 
Q 2772 3750 2511 3984 
Q 2250 4219 1831 4219 
Q 1534 4219 1204 4116 
Q 875 4013 500 3803 
L 500 4441 
Q 881 4594 1212 4672 
Q 1544 4750 1819 4750 
Q 2544 4750 2975 4387 
Q 3406 4025 3406 3419 
Q 3406 3131 3298 2873 
Q 3191 2616 2906 2266 
Q 2828 2175 2409 1742 
Q 1991 1309 1228 531 
z
" transform="scale(0.015625)"/>
       </defs>
       <use xlink:href="#DejaVuSans-32"/>
       <use xlink:href="#DejaVuSans-30" x="63.623047"/>
       <use xlink:href="#DejaVuSans-30" x="127.246094"/>
       <use xlink:href="#DejaVuSans-30" x="190.869141"/>
       <use xlink:href="#DejaVuSans-30" x="254.492188"/>
      </g>
     </g>
    </g>
    <g id="xtick_3">
     <g id="line2d_3">
      <g>
       <use xlink:href="#m433aeeb262" x="224.135758" y="307.584" style="stroke: #000000; stroke-width: 0.8"/>
      </g>
     </g>
     <g id="text_3">
      <!-- 40000 -->
      <g transform="translate(208.229508 322.182437)scale(0.1 -0.1)">
       <defs>
        <path id="DejaVuSans-34" d="M 2419 4116 
L 825 1625 
L 2419 1625 
L 2419 4116 
z
M 2253 4666 
L 3047 4666 
L 3047 1625 
L 3713 1625 
L 3713 1100 
L 3047 1100 
L 3047 0 
L 2419 0 
L 2419 1100 
L 313 1100 
L 313 1709 
L 2253 4666 
z
" transform="scale(0.015625)"/>
       </defs>
       <use xlink:href="#DejaVuSans-34"/>
       <use xlink:href="#DejaVuSans-30" x="63.623047"/>
       <use xlink:href="#DejaVuSans-30" x="127.246094"/>
       <use xlink:href="#DejaVuSans-30" x="190.869141"/>
       <use xlink:href="#DejaVuSans-30" x="254.492188"/>
      </g>
     </g>
    </g>
    <g id="xtick_4">
     <g id="line2d_4">
      <g>
       <use xlink:href="#m433aeeb262" x="299.287273" y="307.584" style="stroke: #000000; stroke-width: 0.8"/>
      </g>
     </g>
     <g id="text_4">
      <!-- 60000 -->
      <g transform="translate(283.381023 322.182437)scale(0.1 -0.1)">
       <defs>
        <path id="DejaVuSans-36" d="M 2113 2584 
Q 1688 2584 1439 2293 
Q 1191 2003 1191 1497 
Q 1191 994 1439 701 
Q 1688 409 2113 409 
Q 2538 409 2786 701 
Q 3034 994 3034 1497 
Q 3034 2003 2786 2293 
Q 2538 2584 2113 2584 
z
M 3366 4563 
L 3366 3988 
Q 3128 4100 2886 4159 
Q 2644 4219 2406 4219 
Q 1781 4219 1451 3797 
Q 1122 3375 1075 2522 
Q 1259 2794 1537 2939 
Q 1816 3084 2150 3084 
Q 2853 3084 3261 2657 
Q 3669 2231 3669 1497 
Q 3669 778 3244 343 
Q 2819 -91 2113 -91 
Q 1303 -91 875 529 
Q 447 1150 447 2328 
Q 447 3434 972 4092 
Q 1497 4750 2381 4750 
Q 2619 4750 2861 4703 
Q 3103 4656 3366 4563 
z
" transform="scale(0.015625)"/>
       </defs>
       <use xlink:href="#DejaVuSans-36"/>
       <use xlink:href="#DejaVuSans-30" x="63.623047"/>
       <use xlink:href="#DejaVuSans-30" x="127.246094"/>
       <use xlink:href="#DejaVuSans-30" x="190.869141"/>
       <use xlink:href="#DejaVuSans-30" x="254.492188"/>
      </g>
     </g>
    </g>
    <g id="xtick_5">
     <g id="line2d_5">
      <g>
       <use xlink:href="#m433aeeb262" x="374.438788" y="307.584" style="stroke: #000000; stroke-width: 0.8"/>
      </g>
     </g>
     <g id="text_5">
      <!-- 80000 -->
      <g transform="translate(358.532538 322.182437)scale(0.1 -0.1)">
       <defs>
        <path id="DejaVuSans-38" d="M 2034 2216 
Q 1584 2216 1326 1975 
Q 1069 1734 1069 1313 
Q 1069 891 1326 650 
Q 1584 409 2034 409 
Q 2484 409 2743 651 
Q 3003 894 3003 1313 
Q 3003 1734 2745 1975 
Q 2488 2216 2034 2216 
z
M 1403 2484 
Q 997 2584 770 2862 
Q 544 3141 544 3541 
Q 544 4100 942 4425 
Q 1341 4750 2034 4750 
Q 2731 4750 3128 4425 
Q 3525 4100 3525 3541 
Q 3525 3141 3298 2862 
Q 3072 2584 2669 2484 
Q 3125 2378 3379 2068 
Q 3634 1759 3634 1313 
Q 3634 634 3220 271 
Q 2806 -91 2034 -91 
Q 1263 -91 848 271 
Q 434 634 434 1313 
Q 434 1759 690 2068 
Q 947 2378 1403 2484 
z
M 1172 3481 
Q 1172 3119 1398 2916 
Q 1625 2713 2034 2713 
Q 2441 2713 2670 2916 
Q 2900 3119 2900 3481 
Q 2900 3844 2670 4047 
Q 2441 4250 2034 4250 
Q 1625 4250 1398 4047 
Q 1172 3844 1172 3481 
z
" transform="scale(0.015625)"/>
       </defs>
       <use xlink:href="#DejaVuSans-38"/>
       <use xlink:href="#DejaVuSans-30" x="63.623047"/>
       <use xlink:href="#DejaVuSans-30" x="127.246094"/>
       <use xlink:href="#DejaVuSans-30" x="190.869141"/>
       <use xlink:href="#DejaVuSans-30" x="254.492188"/>
      </g>
     </g>
    </g>
    <g id="text_6">
     <!-- epoch -->
     <g transform="translate(220.931875 335.860562)scale(0.1 -0.1)">
      <defs>
       <path id="DejaVuSans-65" d="M 3597 1894 
L 3597 1613 
L 953 1613 
Q 991 1019 1311 708 
Q 1631 397 2203 397 
Q 2534 397 2845 478 
Q 3156 559 3463 722 
L 3463 178 
Q 3153 47 2828 -22 
Q 2503 -91 2169 -91 
Q 1331 -91 842 396 
Q 353 884 353 1716 
Q 353 2575 817 3079 
Q 1281 3584 2069 3584 
Q 2775 3584 3186 3129 
Q 3597 2675 3597 1894 
z
M 3022 2063 
Q 3016 2534 2758 2815 
Q 2500 3097 2075 3097 
Q 1594 3097 1305 2825 
Q 1016 2553 972 2059 
L 3022 2063 
z
" transform="scale(0.015625)"/>
       <path id="DejaVuSans-70" d="M 1159 525 
L 1159 -1331 
L 581 -1331 
L 581 3500 
L 1159 3500 
L 1159 2969 
Q 1341 3281 1617 3432 
Q 1894 3584 2278 3584 
Q 2916 3584 3314 3078 
Q 3713 2572 3713 1747 
Q 3713 922 3314 415 
Q 2916 -91 2278 -91 
Q 1894 -91 1617 61 
Q 1341 213 1159 525 
z
M 3116 1747 
Q 3116 2381 2855 2742 
Q 2594 3103 2138 3103 
Q 1681 3103 1420 2742 
Q 1159 2381 1159 1747 
Q 1159 1113 1420 752 
Q 1681 391 2138 391 
Q 2594 391 2855 752 
Q 3116 1113 3116 1747 
z
" transform="scale(0.015625)"/>
       <path id="DejaVuSans-6f" d="M 1959 3097 
Q 1497 3097 1228 2736 
Q 959 2375 959 1747 
Q 959 1119 1226 758 
Q 1494 397 1959 397 
Q 2419 397 2687 759 
Q 2956 1122 2956 1747 
Q 2956 2369 2687 2733 
Q 2419 3097 1959 3097 
z
M 1959 3584 
Q 2709 3584 3137 3096 
Q 3566 2609 3566 1747 
Q 3566 888 3137 398 
Q 2709 -91 1959 -91 
Q 1206 -91 779 398 
Q 353 888 353 1747 
Q 353 2609 779 3096 
Q 1206 3584 1959 3584 
z
" transform="scale(0.015625)"/>
       <path id="DejaVuSans-63" d="M 3122 3366 
L 3122 2828 
Q 2878 2963 2633 3030 
Q 2388 3097 2138 3097 
Q 1578 3097 1268 2742 
Q 959 2388 959 1747 
Q 959 1106 1268 751 
Q 1578 397 2138 397 
Q 2388 397 2633 464 
Q 2878 531 3122 666 
L 3122 134 
Q 2881 22 2623 -34 
Q 2366 -91 2075 -91 
Q 1284 -91 818 406 
Q 353 903 353 1747 
Q 353 2603 823 3093 
Q 1294 3584 2113 3584 
Q 2378 3584 2631 3529 
Q 2884 3475 3122 3366 
z
" transform="scale(0.015625)"/>
       <path id="DejaVuSans-68" d="M 3513 2113 
L 3513 0 
L 2938 0 
L 2938 2094 
Q 2938 2591 2744 2837 
Q 2550 3084 2163 3084 
Q 1697 3084 1428 2787 
Q 1159 2491 1159 1978 
L 1159 0 
L 581 0 
L 581 4863 
L 1159 4863 
L 1159 2956 
Q 1366 3272 1645 3428 
Q 1925 3584 2291 3584 
Q 2894 3584 3203 3211 
Q 3513 2838 3513 2113 
z
" transform="scale(0.015625)"/>
      </defs>
      <use xlink:href="#DejaVuSans-65"/>
      <use xlink:href="#DejaVuSans-70" x="61.523438"/>
      <use xlink:href="#DejaVuSans-6f" x="125"/>
      <use xlink:href="#DejaVuSans-63" x="186.181641"/>
      <use xlink:href="#DejaVuSans-68" x="241.162109"/>
     </g>
    </g>
   </g>
   <g id="matplotlib.axis_2">
    <g id="ytick_1">
     <g id="line2d_6">
      <defs>
       <path id="mf920e135a6" d="M 0 0 
L -3.5 0 
" style="stroke: #000000; stroke-width: 0.8"/>
      </defs>
      <g>
       <use xlink:href="#mf920e135a6" x="57.6" y="295.488" style="stroke: #000000; stroke-width: 0.8"/>
      </g>
     </g>
     <g id="text_7">
      <!-- 0 -->
      <g transform="translate(44.2375 299.287219)scale(0.1 -0.1)">
       <use xlink:href="#DejaVuSans-30"/>
      </g>
     </g>
    </g>
    <g id="ytick_2">
     <g id="line2d_7">
      <g>
       <use xlink:href="#mf920e135a6" x="57.6" y="249.153939" style="stroke: #000000; stroke-width: 0.8"/>
      </g>
     </g>
     <g id="text_8">
      <!-- 20000 -->
      <g transform="translate(18.7875 252.953158)scale(0.1 -0.1)">
       <use xlink:href="#DejaVuSans-32"/>
       <use xlink:href="#DejaVuSans-30" x="63.623047"/>
       <use xlink:href="#DejaVuSans-30" x="127.246094"/>
       <use xlink:href="#DejaVuSans-30" x="190.869141"/>
       <use xlink:href="#DejaVuSans-30" x="254.492188"/>
      </g>
     </g>
    </g>
    <g id="ytick_3">
     <g id="line2d_8">
      <g>
       <use xlink:href="#mf920e135a6" x="57.6" y="202.819879" style="stroke: #000000; stroke-width: 0.8"/>
      </g>
     </g>
     <g id="text_9">
      <!-- 40000 -->
      <g transform="translate(18.7875 206.619097)scale(0.1 -0.1)">
       <use xlink:href="#DejaVuSans-34"/>
       <use xlink:href="#DejaVuSans-30" x="63.623047"/>
       <use xlink:href="#DejaVuSans-30" x="127.246094"/>
       <use xlink:href="#DejaVuSans-30" x="190.869141"/>
       <use xlink:href="#DejaVuSans-30" x="254.492188"/>
      </g>
     </g>
    </g>
    <g id="ytick_4">
     <g id="line2d_9">
      <g>
       <use xlink:href="#mf920e135a6" x="57.6" y="156.485818" style="stroke: #000000; stroke-width: 0.8"/>
      </g>
     </g>
     <g id="text_10">
      <!-- 60000 -->
      <g transform="translate(18.7875 160.285037)scale(0.1 -0.1)">
       <use xlink:href="#DejaVuSans-36"/>
       <use xlink:href="#DejaVuSans-30" x="63.623047"/>
       <use xlink:href="#DejaVuSans-30" x="127.246094"/>
       <use xlink:href="#DejaVuSans-30" x="190.869141"/>
       <use xlink:href="#DejaVuSans-30" x="254.492188"/>
      </g>
     </g>
    </g>
    <g id="ytick_5">
     <g id="line2d_10">
      <g>
       <use xlink:href="#mf920e135a6" x="57.6" y="110.151757" style="stroke: #000000; stroke-width: 0.8"/>
      </g>
     </g>
     <g id="text_11">
      <!-- 80000 -->
      <g transform="translate(18.7875 113.950976)scale(0.1 -0.1)">
       <use xlink:href="#DejaVuSans-38"/>
       <use xlink:href="#DejaVuSans-30" x="63.623047"/>
       <use xlink:href="#DejaVuSans-30" x="127.246094"/>
       <use xlink:href="#DejaVuSans-30" x="190.869141"/>
       <use xlink:href="#DejaVuSans-30" x="254.492188"/>
      </g>
     </g>
    </g>
    <g id="ytick_6">
     <g id="line2d_11">
      <g>
       <use xlink:href="#mf920e135a6" x="57.6" y="63.817697" style="stroke: #000000; stroke-width: 0.8"/>
      </g>
     </g>
     <g id="text_12">
      <!-- 100000 -->
      <g transform="translate(12.425 67.616915)scale(0.1 -0.1)">
       <defs>
        <path id="DejaVuSans-31" d="M 794 531 
L 1825 531 
L 1825 4091 
L 703 3866 
L 703 4441 
L 1819 4666 
L 2450 4666 
L 2450 531 
L 3481 531 
L 3481 0 
L 794 0 
L 794 531 
z
" transform="scale(0.015625)"/>
       </defs>
       <use xlink:href="#DejaVuSans-31"/>
       <use xlink:href="#DejaVuSans-30" x="63.623047"/>
       <use xlink:href="#DejaVuSans-30" x="127.246094"/>
       <use xlink:href="#DejaVuSans-30" x="190.869141"/>
       <use xlink:href="#DejaVuSans-30" x="254.492188"/>
       <use xlink:href="#DejaVuSans-30" x="318.115234"/>
      </g>
     </g>
    </g>
    <g id="text_13">
     <!-- coverage -->
     <g transform="translate(6.345312 197.742844)rotate(-90)scale(0.1 -0.1)">
      <defs>
       <path id="DejaVuSans-76" d="M 191 3500 
L 800 3500 
L 1894 563 
L 2988 3500 
L 3597 3500 
L 2284 0 
L 1503 0 
L 191 3500 
z
" transform="scale(0.015625)"/>
       <path id="DejaVuSans-72" d="M 2631 2963 
Q 2534 3019 2420 3045 
Q 2306 3072 2169 3072 
Q 1681 3072 1420 2755 
Q 1159 2438 1159 1844 
L 1159 0 
L 581 0 
L 581 3500 
L 1159 3500 
L 1159 2956 
Q 1341 3275 1631 3429 
Q 1922 3584 2338 3584 
Q 2397 3584 2469 3576 
Q 2541 3569 2628 3553 
L 2631 2963 
z
" transform="scale(0.015625)"/>
       <path id="DejaVuSans-61" d="M 2194 1759 
Q 1497 1759 1228 1600 
Q 959 1441 959 1056 
Q 959 750 1161 570 
Q 1363 391 1709 391 
Q 2188 391 2477 730 
Q 2766 1069 2766 1631 
L 2766 1759 
L 2194 1759 
z
M 3341 1997 
L 3341 0 
L 2766 0 
L 2766 531 
Q 2569 213 2275 61 
Q 1981 -91 1556 -91 
Q 1019 -91 701 211 
Q 384 513 384 1019 
Q 384 1609 779 1909 
Q 1175 2209 1959 2209 
L 2766 2209 
L 2766 2266 
Q 2766 2663 2505 2880 
Q 2244 3097 1772 3097 
Q 1472 3097 1187 3025 
Q 903 2953 641 2809 
L 641 3341 
Q 956 3463 1253 3523 
Q 1550 3584 1831 3584 
Q 2591 3584 2966 3190 
Q 3341 2797 3341 1997 
z
" transform="scale(0.015625)"/>
       <path id="DejaVuSans-67" d="M 2906 1791 
Q 2906 2416 2648 2759 
Q 2391 3103 1925 3103 
Q 1463 3103 1205 2759 
Q 947 2416 947 1791 
Q 947 1169 1205 825 
Q 1463 481 1925 481 
Q 2391 481 2648 825 
Q 2906 1169 2906 1791 
z
M 3481 434 
Q 3481 -459 3084 -895 
Q 2688 -1331 1869 -1331 
Q 1566 -1331 1297 -1286 
Q 1028 -1241 775 -1147 
L 775 -588 
Q 1028 -725 1275 -790 
Q 1522 -856 1778 -856 
Q 2344 -856 2625 -561 
Q 2906 -266 2906 331 
L 2906 616 
Q 2728 306 2450 153 
Q 2172 0 1784 0 
Q 1141 0 747 490 
Q 353 981 353 1791 
Q 353 2603 747 3093 
Q 1141 3584 1784 3584 
Q 2172 3584 2450 3431 
Q 2728 3278 2906 2969 
L 2906 3500 
L 3481 3500 
L 3481 434 
z
" transform="scale(0.015625)"/>
      </defs>
      <use xlink:href="#DejaVuSans-63"/>
      <use xlink:href="#DejaVuSans-6f" x="54.980469"/>
      <use xlink:href="#DejaVuSans-76" x="116.162109"/>
      <use xlink:href="#DejaVuSans-65" x="175.341797"/>
      <use xlink:href="#DejaVuSans-72" x="236.865234"/>
      <use xlink:href="#DejaVuSans-61" x="277.978516"/>
      <use xlink:href="#DejaVuSans-67" x="339.257812"/>
      <use xlink:href="#DejaVuSans-65" x="402.734375"/>
     </g>
    </g>
   </g>
   <g id="line2d_12">
    <path d="M 73.832727 295.488 
L 76.087273 195.158542 
L 78.341818 173.786956 
L 80.596364 163.901121 
L 82.850909 160.645227 
L 85.105455 154.106101 
L 87.36 148.15449 
L 89.614545 140.371758 
L 91.869091 136.113426 
L 94.123636 134.329565 
L 96.378182 132.314729 
L 98.632727 129.454295 
L 100.887273 127.098208 
L 103.141818 122.964747 
L 105.396364 121.659285 
L 107.650909 120.167791 
L 109.905455 117.808229 
L 112.16 111.337909 
L 114.414545 110.258789 
L 116.669091 103.042722 
L 118.923636 99.897335 
L 121.178182 98.665312 
L 123.432727 97.28085 
L 127.941818 95.503012 
L 130.196364 93.879235 
L 132.450909 93.174262 
L 134.705455 92.010119 
L 136.96 91.342445 
L 141.469091 89.453637 
L 145.978182 87.79372 
L 148.232727 86.793367 
L 150.487273 85.337088 
L 152.741818 84.3416 
L 154.996364 83.748061 
L 161.76 81.135052 
L 170.778182 79.024535 
L 175.287273 77.979007 
L 179.796364 76.692774 
L 182.050909 76.199779 
L 184.305455 75.293253 
L 200.087273 72.367026 
L 202.341818 72.001913 
L 204.596364 71.263348 
L 211.36 70.138126 
L 249.687273 65.462092 
L 251.941818 65.195672 
L 254.196364 64.491857 
L 258.705455 64.04566 
L 278.996364 62.061404 
L 283.505455 61.615439 
L 292.523636 60.767525 
L 299.287273 60.242792 
L 306.050909 59.750493 
L 317.323636 58.902811 
L 321.832727 58.568974 
L 348.887273 56.849517 
L 380.450909 55.053377 
L 391.723636 54.453351 
L 396.232727 54.213572 
L 398.487273 54.143145 
L 398.487273 54.143145 
" clip-path="url(#p6ba57f77b5)" style="fill: none; stroke: #1f77b4; stroke-width: 1.5; stroke-linecap: square"/>
   </g>
   <g id="line2d_13">
    <path d="M 73.832727 295.488 
L 76.087273 121.128065 
L 78.341818 108.416315 
L 80.596364 101.508602 
L 82.850909 97.079065 
L 85.105455 93.15318 
L 87.36 90.76883 
L 89.614545 89.584763 
L 91.869091 88.203313 
L 96.378182 86.298056 
L 98.632727 85.011591 
L 100.887273 84.096957 
L 109.905455 81.740406 
L 112.16 81.308573 
L 114.414545 80.528539 
L 116.669091 80.164122 
L 118.923636 79.684564 
L 134.705455 77.593971 
L 136.96 77.042828 
L 143.723636 76.13885 
L 159.505455 74.653148 
L 164.014545 74.101773 
L 175.287273 73.088215 
L 182.050909 72.617925 
L 191.069091 71.952799 
L 209.105455 70.735603 
L 213.614545 70.227782 
L 233.905455 68.866024 
L 240.669091 68.469173 
L 242.923636 68.221981 
L 290.269091 66.077872 
L 299.287273 65.787357 
L 303.796364 65.583719 
L 337.614545 64.414711 
L 380.450909 63.235277 
L 398.487273 62.780045 
L 398.487273 62.780045 
" clip-path="url(#p6ba57f77b5)" style="fill: none; stroke: #ff7f0e; stroke-width: 1.5; stroke-linecap: square"/>
   </g>
   <g id="line2d_14"/>
   <g id="line2d_15"/>
   <g id="patch_3">
    <path d="M 57.6 307.584 
L 57.6 41.472 
" style="fill: none; stroke: #000000; stroke-width: 0.8; stroke-linejoin: miter; stroke-linecap: square"/>
   </g>
   <g id="patch_4">
    <path d="M 57.6 307.584 
L 414.72 307.584 
" style="fill: none; stroke: #000000; stroke-width: 0.8; stroke-linejoin: miter; stroke-linecap: square"/>
   </g>
   <g id="legend_1">
    <g id="patch_5">
     <path d="M 344.252813 302.584 
L 407.72 302.584 
Q 409.72 302.584 409.72 300.584 
L 409.72 257.549625 
Q 409.72 255.549625 407.72 255.549625 
L 344.252813 255.549625 
Q 342.252813 255.549625 342.252813 257.549625 
L 342.252813 300.584 
Q 342.252813 302.584 344.252813 302.584 
z
" style="fill: #ffffff; opacity: 0.8; stroke: #cccccc; stroke-linejoin: miter"/>
    </g>
    <g id="text_14">
     <!-- fuzzer -->
     <g transform="translate(360.677031 267.148062)scale(0.1 -0.1)">
      <defs>
       <path id="DejaVuSans-66" d="M 2375 4863 
L 2375 4384 
L 1825 4384 
Q 1516 4384 1395 4259 
Q 1275 4134 1275 3809 
L 1275 3500 
L 2222 3500 
L 2222 3053 
L 1275 3053 
L 1275 0 
L 697 0 
L 697 3053 
L 147 3053 
L 147 3500 
L 697 3500 
L 697 3744 
Q 697 4328 969 4595 
Q 1241 4863 1831 4863 
L 2375 4863 
z
" transform="scale(0.015625)"/>
       <path id="DejaVuSans-75" d="M 544 1381 
L 544 3500 
L 1119 3500 
L 1119 1403 
Q 1119 906 1312 657 
Q 1506 409 1894 409 
Q 2359 409 2629 706 
Q 2900 1003 2900 1516 
L 2900 3500 
L 3475 3500 
L 3475 0 
L 2900 0 
L 2900 538 
Q 2691 219 2414 64 
Q 2138 -91 1772 -91 
Q 1169 -91 856 284 
Q 544 659 544 1381 
z
M 1991 3584 
L 1991 3584 
z
" transform="scale(0.015625)"/>
       <path id="DejaVuSans-7a" d="M 353 3500 
L 3084 3500 
L 3084 2975 
L 922 459 
L 3084 459 
L 3084 0 
L 275 0 
L 275 525 
L 2438 3041 
L 353 3041 
L 353 3500 
z
" transform="scale(0.015625)"/>
      </defs>
      <use xlink:href="#DejaVuSans-66"/>
      <use xlink:href="#DejaVuSans-75" x="35.205078"/>
      <use xlink:href="#DejaVuSans-7a" x="98.583984"/>
      <use xlink:href="#DejaVuSans-7a" x="151.074219"/>
      <use xlink:href="#DejaVuSans-65" x="203.564453"/>
      <use xlink:href="#DejaVuSans-72" x="265.087891"/>
     </g>
    </g>
    <g id="line2d_16">
     <path d="M 346.252813 278.326188 
L 356.252813 278.326188 
L 366.252813 278.326188 
" style="fill: none; stroke: #1f77b4; stroke-width: 1.5; stroke-linecap: square"/>
    </g>
    <g id="text_15">
     <!-- fuzzilli -->
     <g transform="translate(374.252813 281.826188)scale(0.1 -0.1)">
      <defs>
       <path id="DejaVuSans-69" d="M 603 3500 
L 1178 3500 
L 1178 0 
L 603 0 
L 603 3500 
z
M 603 4863 
L 1178 4863 
L 1178 4134 
L 603 4134 
L 603 4863 
z
" transform="scale(0.015625)"/>
       <path id="DejaVuSans-6c" d="M 603 4863 
L 1178 4863 
L 1178 0 
L 603 0 
L 603 4863 
z
" transform="scale(0.015625)"/>
      </defs>
      <use xlink:href="#DejaVuSans-66"/>
      <use xlink:href="#DejaVuSans-75" x="35.205078"/>
      <use xlink:href="#DejaVuSans-7a" x="98.583984"/>
      <use xlink:href="#DejaVuSans-7a" x="151.074219"/>
      <use xlink:href="#DejaVuSans-69" x="203.564453"/>
      <use xlink:href="#DejaVuSans-6c" x="231.347656"/>
      <use xlink:href="#DejaVuSans-6c" x="259.130859"/>
      <use xlink:href="#DejaVuSans-69" x="286.914062"/>
     </g>
    </g>
    <g id="line2d_17">
     <path d="M 346.252813 293.004312 
L 356.252813 293.004312 
L 366.252813 293.004312 
" style="fill: none; stroke: #ff7f0e; stroke-width: 1.5; stroke-linecap: square"/>
    </g>
    <g id="text_16">
     <!-- fuzzjit -->
     <g transform="translate(374.252813 296.504312)scale(0.1 -0.1)">
      <defs>
       <path id="DejaVuSans-6a" d="M 603 3500 
L 1178 3500 
L 1178 -63 
Q 1178 -731 923 -1031 
Q 669 -1331 103 -1331 
L -116 -1331 
L -116 -844 
L 38 -844 
Q 366 -844 484 -692 
Q 603 -541 603 -63 
L 603 3500 
z
M 603 4863 
L 1178 4863 
L 1178 4134 
L 603 4134 
L 603 4863 
z
" transform="scale(0.015625)"/>
       <path id="DejaVuSans-74" d="M 1172 4494 
L 1172 3500 
L 2356 3500 
L 2356 3053 
L 1172 3053 
L 1172 1153 
Q 1172 725 1289 603 
Q 1406 481 1766 481 
L 2356 481 
L 2356 0 
L 1766 0 
Q 1100 0 847 248 
Q 594 497 594 1153 
L 594 3053 
L 172 3053 
L 172 3500 
L 594 3500 
L 594 4494 
L 1172 4494 
z
" transform="scale(0.015625)"/>
      </defs>
      <use xlink:href="#DejaVuSans-66"/>
      <use xlink:href="#DejaVuSans-75" x="35.205078"/>
      <use xlink:href="#DejaVuSans-7a" x="98.583984"/>
      <use xlink:href="#DejaVuSans-7a" x="151.074219"/>
      <use xlink:href="#DejaVuSans-6a" x="203.564453"/>
      <use xlink:href="#DejaVuSans-69" x="231.347656"/>
      <use xlink:href="#DejaVuSans-74" x="259.130859"/>
     </g>
    </g>
   </g>
  </g>
 </g>
 <defs>
  <clipPath id="p6ba57f77b5">
   <rect x="57.6" y="41.472" width="357.12" height="266.112"/>
  </clipPath>
 </defs>
</svg>
